<?xml version="1.0" encoding="UTF-8"?>
<svg width="60px" height="57px" viewBox="0 0 60 57" version="1.1" xmlns="http://www.w3.org/2000/svg" xmlns:xlink="http://www.w3.org/1999/xlink">
    <!-- Generator: Sketch 52.3 (67297) - http://www.bohemiancoding.com/sketch -->
    <title>形状</title>
    <desc>Created with Sketch.</desc>
    <g id="Page-1" stroke="none" stroke-width="1" fill="none" fill-rule="evenodd">
        <g id="余额钱包" transform="translate(-96.000000, -1319.000000)" fill="#7C7AF3" fill-rule="nonzero">
            <g id="分组-3" transform="translate(96.000000, 1319.000000)">
                <g id="形状-2">
                    <path d="M27.8571429,34.8668281 L32.1428571,34.8668281 C33.3428571,34.8668281 34.2857143,33.9079903 34.2857143,32.6876513 C34.2857143,31.4673123 33.3428571,30.5084746 32.1428571,30.5084746 L27.8571429,30.5084746 C26.6571429,30.5084746 25.7142857,31.4673123 25.7142857,32.6876513 C25.7142857,33.9079903 26.6571429,34.8668281 27.8571429,34.8668281 Z M27.8571429,43.5835351 L32.1428571,43.5835351 C33.3428571,43.5835351 34.2857143,42.6246973 34.2857143,41.4043584 C34.2857143,40.1840194 33.3428571,39.2251816 32.1428571,39.2251816 L27.8571429,39.2251816 C26.6571429,39.2251816 25.7142857,40.1840194 25.7142857,41.4043584 C25.7142857,42.6246973 26.6571429,43.5835351 27.8571429,43.5835351 Z M51.4285714,4.35835351 L42.8571429,4.35835351 L42.8571429,2.17917676 C42.8571429,0.958837772 41.9142857,3.22231131e-12 40.7142857,3.22231131e-12 C39.5142857,3.22231131e-12 38.5714286,0.958837772 38.5714286,2.17917676 L38.5714286,4.35835351 L21.4285714,4.35835351 L21.4285714,2.17917676 C21.4285714,0.958837772 20.4857143,3.22231131e-12 19.2857143,3.22231131e-12 C18.0857143,3.22231131e-12 17.1428571,0.958837772 17.1428571,2.17917676 L17.1428571,4.35835351 L8.57142857,4.35835351 C3.85714286,4.35835351 0,8.28087167 0,13.0750605 L0,47.9418886 C0,52.7360775 3.85714286,56.6585956 8.57142857,56.6585956 L51.4285714,56.6585956 C56.1428571,56.6585956 60,52.7360775 60,47.9418886 L60,13.0750605 C60,8.28087167 56.1428571,4.35835351 51.4285714,4.35835351 Z M55.7142857,47.9418886 C55.7142857,50.3389831 53.7857143,52.3002421 51.4285714,52.3002421 L8.57142857,52.3002421 C6.21428571,52.3002421 4.28571429,50.3389831 4.28571429,47.9418886 L4.28571429,21.7917676 L55.7142857,21.7917676 L55.7142857,47.9418886 Z M55.7142857,17.433414 L4.28571429,17.433414 L4.28571429,13.0750605 C4.28571429,10.6779661 6.21428571,8.71670702 8.57142857,8.71670702 L17.1428571,8.71670702 L17.1428571,10.8958838 C17.1428571,12.1162228 18.0857143,13.0750605 19.2857143,13.0750605 C20.4857143,13.0750605 21.4285714,12.1162228 21.4285714,10.8958838 L21.4285714,8.71670702 L38.5714286,8.71670702 L38.5714286,10.8958838 C38.5714286,12.1162228 39.5142857,13.0750605 40.7142857,13.0750605 C41.9142857,13.0750605 42.8571429,12.1162228 42.8571429,10.8958838 L42.8571429,8.71670702 L51.4285714,8.71670702 C53.7857143,8.71670702 55.7142857,10.6779661 55.7142857,13.0750605 L55.7142857,17.433414 Z M15,43.5835351 L19.2857143,43.5835351 C20.4857143,43.5835351 21.4285714,42.6246973 21.4285714,41.4043584 C21.4285714,40.1840194 20.4857143,39.2251816 19.2857143,39.2251816 L15,39.2251816 C13.8,39.2251816 12.8571429,40.1840194 12.8571429,41.4043584 C12.8571429,42.6246973 13.8,43.5835351 15,43.5835351 Z M40.7142857,34.8668281 L45,34.8668281 C46.2,34.8668281 47.1428571,33.9079903 47.1428571,32.6876513 C47.1428571,31.4673123 46.2,30.5084746 45,30.5084746 L40.7142857,30.5084746 C39.5142857,30.5084746 38.5714286,31.4673123 38.5714286,32.6876513 C38.5714286,33.9079903 39.5142857,34.8668281 40.7142857,34.8668281 Z M15,34.8668281 L19.2857143,34.8668281 C20.4857143,34.8668281 21.4285714,33.9079903 21.4285714,32.6876513 C21.4285714,31.4673123 20.4857143,30.5084746 19.2857143,30.5084746 L15,30.5084746 C13.8,30.5084746 12.8571429,31.4673123 12.8571429,32.6876513 C12.8571429,33.9079903 13.8,34.8668281 15,34.8668281 Z M40.7142857,43.5835351 L45,43.5835351 C46.2,43.5835351 47.1428571,42.6246973 47.1428571,41.4043584 C47.1428571,40.1840194 46.2,39.2251816 45,39.2251816 L40.7142857,39.2251816 C39.5142857,39.2251816 38.5714286,40.1840194 38.5714286,41.4043584 C38.5714286,42.6246973 39.5142857,43.5835351 40.7142857,43.5835351 Z" id="形状"></path>
                </g>
            </g>
        </g>
    </g>
</svg>