<svg xmlns="http://www.w3.org/2000/svg" xmlns:xlink="http://www.w3.org/1999/xlink" width="129" height="129" viewBox="0 0 129 129">
  <defs>
    <style>
      .cls-1 {
        fill: url(#linear-gradient);
      }

      .cls-2 {
        fill: url(#linear-gradient-2);
      }
    </style>
    <linearGradient id="linear-gradient" x1="0.202" y1="0.235" x2="0.663" y2="0.635" gradientUnits="objectBoundingBox">
      <stop offset="0" stop-color="#ff6e56"/>
      <stop offset="1" stop-color="#ff2216"/>
    </linearGradient>
    <linearGradient id="linear-gradient-2" x1="0.5" y1="0.5" x2="0.5" y2="1.187" gradientUnits="objectBoundingBox">
      <stop offset="0" stop-color="#fff"/>
      <stop offset="1" stop-color="#fff" stop-opacity="0.443"/>
    </linearGradient>
  </defs>
  <g id="Page-1" transform="translate(-0.477 -0.638)">
    <g id="画板" transform="translate(0.477 0.638)">
      <g id="分组-2" transform="translate(0)">
        <g id="分组" transform="translate(0 0)">
          <ellipse id="Oval" class="cls-1" cx="64.5" cy="64.5" rx="64.5" ry="64.5"/>
        </g>
        <g id="分组-2-2" data-name="分组" transform="translate(21.669 36.59)">
          <path id="合并形状" class="cls-2" d="M41.963,12.973a8.289,8.289,0,0,1,2.127,2.6c6.572.017,10.655,1.69,11.5,1.69A31.287,31.287,0,0,1,69.168,6.43a14.862,14.862,0,0,1,5.175-1.19,2.282,2.282,0,0,1,.342.019c.466.08,2.4,1.926,4.527,6.294A105.125,105.125,0,0,1,83.737,23.7,38.868,38.868,0,0,1,86,38.069v.35c-.047,6.925-6.379,15.744-15.777,15.744H16.658C5.92,54.163,0,45.278,0,37.024A62.01,62.01,0,0,1,5.658,12.286C7.355,8.333,8.744,6.511,10.75,5.7,14,4.381,26.875,12.286,32.25,17.263a43.921,43.921,0,0,1,9.327-1.616,9.992,9.992,0,0,0-.635-2.5q-.242.019-.489.02A6.335,6.335,0,0,1,34.23,6.723a6.227,6.227,0,1,1,12.447,0A6.405,6.405,0,0,1,41.963,12.973Zm18.86,5.607c10.609,1.317,18.812,8.783,18.812,8.783-.141-6.587-2.122-15.223-6.082-16.834S61.529,16.092,60.823,18.58ZM12.447,10.529C8.487,12.14,6.506,20.776,6.365,27.363c0,0,8.2-7.466,18.813-8.783C24.471,16.092,16.408,8.919,12.447,10.529ZM65.773,31.9c0,5.9-1.488,10.686-3.324,10.686S59.125,37.8,59.125,31.9a32.776,32.776,0,0,1,.185-3.513c-4.521,1.356-7.682,4.449-7.682,8.05,0,4.851,5.732,8.783,12.8,8.783s12.8-3.932,12.8-8.783c0-4.6-5.16-8.375-11.726-8.75A32.082,32.082,0,0,1,65.773,31.9ZM9.053,36.439c0,4.851,5.731,8.783,12.8,8.783s12.8-3.932,12.8-8.783c0-3.792-3.5-7.023-8.41-8.253A32.676,32.676,0,0,1,26.45,31.9c0,5.9-1.488,10.686-3.324,10.686S19.8,37.8,19.8,31.9a32.16,32.16,0,0,1,.261-4.158C13.842,28.341,9.053,32.005,9.053,36.439ZM39.888,40.1c0,1.025,2.546,2.342,3.677,2.342s3.537-1.61,3.537-2.2c0-1.024-1.7-1.9-3.537-1.9C42.01,38.342,39.888,39.073,39.888,40.1ZM42.346,8.681A11.056,11.056,0,0,1,45.1,6.87,11.015,11.015,0,0,1,42.4,5.11a13.165,13.165,0,0,1-1.8-2.9,11.58,11.58,0,0,1-1.75,2.847,11.055,11.055,0,0,1-2.75,1.811,9.8,9.8,0,0,1,2.75,1.812,10.259,10.259,0,0,1,1.75,2.846A11.576,11.576,0,0,1,42.346,8.681Z" transform="translate(0 -0.282)"/>
        </g>
      </g>
    </g>
  </g>
</svg>
