<?xml version="1.0" encoding="UTF-8"?>
<svg width="70px" height="69px" viewBox="0 0 70 69" version="1.1" xmlns="http://www.w3.org/2000/svg" xmlns:xlink="http://www.w3.org/1999/xlink">
    <!-- Generator: Sketch 52.3 (67297) - http://www.bohemiancoding.com/sketch -->
    <title>分组 9</title>
    <desc>Created with Sketch.</desc>
    <g id="Page-1" stroke="none" stroke-width="1" fill="none" fill-rule="evenodd">
        <g id="节点申请--copy" transform="translate(-851.000000, -770.000000)" fill="#D8D8D8" fill-rule="nonzero">
            <g id="分组-7" transform="translate(158.500000, 709.000000)">
                <g id="分组-9" transform="translate(693.000000, 61.000000)">
                    <g id="分组-4" transform="translate(34.294679, 34.705321) rotate(-315.000000) translate(-34.294679, -34.705321) translate(10.294679, 10.205321)">
                        <path d="M21.5,22 L21.5,2.5 C21.5,1.3954305 22.3954305,0.5 23.5,0.5 L24.5,0.5 C25.6045695,0.5 26.5,1.3954305 26.5,2.5 L26.5,22 L46,22 C47.1045695,22 48,22.8954305 48,24 L48,25 C48,26.1045695 47.1045695,27 46,27 L26.5,27 L26.5,46.5 C26.5,47.6045695 25.6045695,48.5 24.5,48.5 L23.5,48.5 C22.3954305,48.5 21.5,47.6045695 21.5,46.5 L21.5,27 L2,27 C0.8954305,27 1.3527075e-16,26.1045695 0,25 L0,24 C-1.3527075e-16,22.8954305 0.8954305,22 2,22 L21.5,22 Z" id="合并形状"></path>
                    </g>
                </g>
            </g>
        </g>
    </g>
</svg>