<?xml version="1.0" encoding="UTF-8"?>
<svg width="72px" height="73px" viewBox="0 0 72 73" version="1.1" xmlns="http://www.w3.org/2000/svg" xmlns:xlink="http://www.w3.org/1999/xlink">
    <!-- Generator: Sketch 52.5 (67469) - http://www.bohemiancoding.com/sketch -->
    <title>订单信息 copy 4</title>
    <desc>Created with Sketch.</desc>
    <g id="Page-1" stroke="none" stroke-width="1" fill="none" fill-rule="evenodd">
        <g id="我的-copy" transform="translate(-96.000000, -1918.000000)">
            <g id="Group-7" transform="translate(48.000000, 1718.988709)">
                <g id="Group-4" transform="translate(48.000000, 199.171382)">
                    <g id="帮助中心">
                        <circle id="椭圆形-copy-4" fill="#FF9351" fill-rule="nonzero" cx="36" cy="36" r="36"></circle>
                        <g id="Group" stroke-width="1" fill-rule="evenodd" transform="translate(24.000000, 17.000000)" fill="#FFFFFF">
                            <path d="M12.9411765,0 C16.6274694,0 19.5882241,0.912853507 21.8235294,2.73858791 C23.9411871,4.46289262 25,6.79574047 25,9.73720145 C25,11.8672249 24.2549094,13.7774554 22.7647059,15.4679502 C22.1764676,16.1103382 20.6274635,17.4119997 18.1176471,19.3729737 C16.7843071,20.3872706 15.8039247,21.3508382 15.1764706,22.2637054 C14.3529371,23.4808617 13.9411765,24.7825231 13.9411765,26.1687289 L13.9411765,27.639452 C13.4647497,28.546484 12.8748576,29 12.1715001,29 C11.4681426,29 10.8619563,28.546484 10.3529412,27.639452 L10.3529412,26.1687289 C10.3529412,24.6810935 10.7058788,23.3287179 11.4117647,22.1115616 C12.2745141,20.4886866 14.0784176,18.6460749 16.8235294,16.5836712 C18.3137329,15.2988952 19.2156847,14.4874698 19.5294118,14.1493709 C20.78432,12.7631651 21.4117647,11.3262661 21.4117647,9.83863063 C21.4117647,7.70860716 20.6862818,5.98432832 19.2352941,4.66574236 C17.7450906,3.3809663 15.5882494,2.73858791 12.7647059,2.73858791 C9.62743529,2.73858791 7.25491,3.65144141 5.64705882,5.47717581 C4.23528706,6.99862115 3.52941176,9.09480327 3.52941176,11.7657851 C3.08207536,12.5991823 2.48856317,13.0158809 1.74887521,13.0158809 C1.00918724,13.0158809 0.426228841,12.5991823 0,11.7657851 C0,8.38479545 1.07842059,5.61242554 3.23529412,3.44859218 C5.54903118,1.14951923 8.78429294,0 12.9411765,0 Z" id="Path"></path>
                            <path d="M12.5,32 C13.506541,32 14.3300622,32.2799972 14.9705882,32.84 C15.6568662,33.3600026 16,34.0799954 16,35 C16,35.8400042 15.6568662,36.559997 14.9705882,37.16 C14.2385584,37.7200028 13.4150373,38 12.5,38 C11.493459,38 10.6470623,37.700003 9.96078431,37.1 C9.32025824,36.5399972 9,35.8400042 9,35 C9,34.0799954 9.32025824,33.3600026 9.96078431,32.84 C10.6013104,32.2799972 11.4477072,32 12.5,32 Z" id="Path"></path>
                        </g>
                    </g>
                </g>
            </g>
        </g>
    </g>
</svg>