<?xml version="1.0" encoding="UTF-8"?>
<svg width="210px" height="204px" viewBox="0 0 210 204" version="1.1" xmlns="http://www.w3.org/2000/svg" xmlns:xlink="http://www.w3.org/1999/xlink">
    <!-- Generator: Sketch 52.3 (67297) - http://www.bohemiancoding.com/sketch -->
    <title>Group 2</title>
    <desc>Created with Sketch.</desc>
    <g id="Page-1" stroke="none" stroke-width="1" fill="none" fill-rule="evenodd">
        <g id="帮助中心" transform="translate(-228.000000, -354.000000)" fill-rule="nonzero">
            <g id="Group-11" transform="translate(228.000000, 354.000000)">
                <g id="Group-2">
                    <rect id="Rectangle-Copy-11" fill="#FFBF43" x="0" y="-2.94164693e-12" width="210" height="203.069307" rx="24"></rect>
                    <g id="Group" transform="translate(51.000000, 48.000000)">
                        <circle id="Oval" stroke="#FFFFFF" stroke-width="12" cx="54" cy="54" r="54"></circle>
                        <path d="M53.0733928,19.0000001 C56.6973044,19.0000003 59.9643317,21.2592516 61.3508911,24.7241484 C62.7374504,28.1890453 61.9704441,32.1771389 59.4075667,34.8285752 C56.8446892,37.4800115 52.9907271,38.2725615 49.6429819,36.8366182 C46.2952367,35.4006749 44.113083,32.0190628 44.1141717,28.2688024 C44.1145286,25.8101938 45.0586443,23.4524302 46.7388242,21.7141925 C48.4190041,19.9759549 50.6976166,18.9996307 53.0733928,19.0000001 Z M69,89 L39,89 L39,84.9317549 L42.7562245,83.4958217 C44.8574791,82.6924098 46.2534808,80.6204141 46.2553945,78.3022285 L46.2553945,56.3732591 C46.2557184,54.0553254 44.8586084,51.9833531 42.7562245,51.1838441 L39,49.7437327 L39,45.5891366 L61.7365304,45.5891366 L61.7365304,78.305014 C61.73887,80.6248509 63.1382321,82.6972918 65.2424297,83.4972146 L68.9986542,84.9345404 L69,89 Z" id="Shape" fill="#FFFFFF"></path>
                    </g>
                </g>
            </g>
        </g>
    </g>
</svg>