<svg xmlns="http://www.w3.org/2000/svg" width="50.818" height="58.528" viewBox="0 0 50.818 58.528">
  <defs>
    <style>
      .cls-1 {
        fill: #d8182d;
      }
    </style>
  </defs>
  <g id="组_131" data-name="组 131" transform="translate(-65 -483)">
    <path id="精品专题_1_" data-name="精品专题 (1)" class="cls-1" d="M170.291,64H128.082A5.079,5.079,0,0,0,123,69.082v50a3.437,3.437,0,0,0,5.232,2.933l19.361-11.836a1.551,1.551,0,0,1,1.626,0l19.367,11.836a3.439,3.439,0,0,0,5.232-2.933V67.521A3.528,3.528,0,0,0,170.291,64ZM158.383,86.718,155.5,89.54a1.151,1.151,0,0,0-.333,1.026l.679,3.978.392,2.293a1.158,1.158,0,0,1-1.679,1.221L152.5,96.98l-3.573-1.888a1.164,1.164,0,0,0-1.078,0l-3.566,1.875-2.058,1.078a1.158,1.158,0,0,1-1.679-1.221l.392-2.293.679-3.978a1.152,1.152,0,0,0-.333-1.026L138.4,86.712l-1.666-1.62a1.162,1.162,0,0,1,.64-1.979l2.3-.333,3.991-.581a1.162,1.162,0,0,0,.875-.634l1.783-3.619,1.032-2.09a1.157,1.157,0,0,1,2.077,0l1.032,2.09,1.783,3.619a1.162,1.162,0,0,0,.875.634l3.991.581,2.3.333a1.158,1.158,0,0,1,.64,1.979Zm3.468.261" transform="translate(-58 419)"/>
    <path id="路径_29" data-name="路径 29" class="cls-1" d="M-4685.98-7555.64l-1.764,17.055s-.915,1.455-5.643,1.063-11.094-1.448-15.321-1.063-2.83,2.859-5.48,0-2.7,5.229-3.953-5.544-2.413-12.831-2.027-15.194-5.925-2.278,2.722-3.933,18.654-1.653,22.069-1.653,2.223-1.793,4.556,1.653S-4685.98-7555.64-4685.98-7555.64Z" transform="translate(4794.532 8057.957)"/>
  </g>
</svg>
