<?xml version="1.0" encoding="UTF-8"?>
<svg width="72px" height="73px" viewBox="0 0 72 73" version="1.1" xmlns="http://www.w3.org/2000/svg" xmlns:xlink="http://www.w3.org/1999/xlink">
    <!-- Generator: Sketch 52.5 (67469) - http://www.bohemiancoding.com/sketch -->
    <title>我的 copy</title>
    <desc>Created with Sketch.</desc>
    <g id="Page-1" stroke="none" stroke-width="1" fill="none" fill-rule="evenodd">
        <g id="我的-copy" transform="translate(-96.000000, -1533.000000)">
            <g id="Group-8" transform="translate(48.000000, 1055.000000)">
                <g id="Group-2" transform="translate(48.000000, 478.698758)">
                    <g id="设置">
                        <circle id="椭圆形-copy-4" fill="#7CD1FF" fill-rule="nonzero" cx="36" cy="36" r="36"></circle>
                        <g stroke-width="1" fill-rule="evenodd" transform="translate(16.000000, 16.000000)" fill="#FFFFFF" id="Shape">
                            <path d="M20,12 C15.589,12 12,15.589 12,20 C12,24.411 15.589,28 20,28 C24.411,28 28,24.411 28,20 C28,15.589 24.411,12 20,12 Z M20,26 C16.6865,26 14,23.3135 14,20 C14,16.6865 16.6865,14 20,14 C23.3135,14 26,16.6865 26,20 C26,23.3135 23.3135,26 20,26 Z M38.5,15 L35.6925,15 C34.356,15 33.687,13.3845 34.632,12.4395 L36.6175,10.454 C37.2035,9.868 37.2035,8.9185 36.6175,8.3325 L31.668,3.3825 C31.375,3.0895 30.991,2.943 30.6075,2.943 C30.224,2.943 29.8395,3.0895 29.547,3.3825 L27.5615,5.368 C27.256,5.6735 26.88,5.8105 26.5115,5.8105 C25.7405,5.8105 25.0005,5.2115 25.0005,4.3075 L25.0005,1.5 C25.0005,0.6715 24.329,0 23.5005,0 L16.5,0 C15.6715,0 15,0.6715 15,1.5 L15,4.3075 C15,5.2115 14.26,5.8105 13.489,5.8105 C13.1205,5.8105 12.745,5.674 12.439,5.368 L10.4535,3.3825 C10.1605,3.0895 9.7765,2.943 9.393,2.943 C9.0095,2.943 8.625,3.0895 8.3325,3.3825 L3.383,8.3325 C2.797,8.9185 2.797,9.868 3.383,10.454 L5.3685,12.4395 C6.313,13.3845 5.644,15 4.3075,15 L1.5,15 C0.6715,15 0,15.6715 0,16.5 L0,23.5 C0,24.3285 0.6715,25 1.5,25 L4.3075,25 C5.644,25 6.313,26.6155 5.368,27.5605 L3.3825,29.546 C2.7965,30.132 2.7965,31.0815 3.3825,31.6675 L8.332,36.6175 C8.625,36.9105 9.009,37.057 9.3925,37.057 C9.776,37.057 10.1605,36.9105 10.453,36.6175 L12.4385,34.632 C12.744,34.3265 13.12,34.1895 13.4885,34.1895 C14.2595,34.1895 14.9995,34.7885 14.9995,35.6925 L14.9995,38.5 C14.9995,39.3285 15.671,40 16.4995,40 L23.4995,40 C24.328,40 24.9995,39.3285 24.9995,38.5 L24.9995,35.6925 C24.9995,34.7885 25.7395,34.1895 26.5105,34.1895 C26.879,34.1895 27.2545,34.326 27.5605,34.632 L29.546,36.6175 C29.839,36.9105 30.223,37.057 30.6065,37.057 C30.99,37.057 31.3745,36.9105 31.667,36.6175 L36.6165,31.6675 C37.2025,31.0815 37.2025,30.132 36.6165,29.546 L34.631,27.5605 C33.687,26.6155 34.356,25 35.6925,25 L38.5,25 C39.3285,25 40,24.3285 40,23.5 L40,16.5 C40,15.6715 39.3285,15 38.5,15 Z M38,23 L35.6925,23 C34.272,23 33.0025,23.848 32.459,25.1605 C31.9155,26.473 32.213,27.97 33.2175,28.9745 L34.849,30.606 L30.6065,34.8485 L28.975,33.217 C28.312,32.554 27.437,32.189 26.511,32.189 C24.575,32.189 23,33.7605 23,35.692 L23,38 L17,38 L17,35.6925 C17,33.761 15.425,32.1895 13.489,32.1895 C12.563,32.1895 11.688,32.5545 11.025,33.2175 L9.3935,34.849 L5.151,30.6065 L6.7825,28.975 C7.787,27.9705 8.085,26.473 7.541,25.1605 C6.997,23.848 5.7285,23 4.3075,23 L2,23 L2,17 L4.3075,17 C5.728,17 6.9975,16.152 7.541,14.8395 C8.0845,13.527 7.787,12.03 6.7825,11.025 L5.151,9.3935 L9.3935,5.151 L11.025,6.7825 C11.688,7.4455 12.563,7.8105 13.489,7.8105 C15.425,7.8105 17,6.239 17,4.3075 L17,2 L23,2 L23,4.3075 C23,6.239 24.575,7.8105 26.511,7.8105 C27.437,7.8105 28.312,7.4455 28.975,6.7825 L30.6065,5.151 L34.849,9.3935 L33.2175,11.025 C32.213,12.0295 31.915,13.527 32.459,14.8395 C33.0025,16.152 34.2715,17 35.6925,17 L38,17 L38,23 Z" fill-rule="nonzero"></path>
                        </g>
                    </g>
                </g>
            </g>
        </g>
    </g>
</svg>