<svg xmlns="http://www.w3.org/2000/svg" width="60" height="60" viewBox="0 0 60 60">
  <defs>
    <style>
      .cls-1 {
        fill: #fff;
      }
    </style>
  </defs>
  <g id="分享_1_的副本" data-name="分享 (1)的副本" transform="translate(0 0)">
    <path id="路径_31" data-name="路径 31" class="cls-1" d="M373.568,10,364.342.571a1.9,1.9,0,0,0-2.715,0,1.949,1.949,0,0,0,0,2.765l6.662,6.912h-7.012c-16.138,2.049-19.1,13.74-19.985,26.114a2.115,2.115,0,0,0,1.782,2.132h.15a1.915,1.915,0,0,0,2-1.849c.883-12.957,3.864-20.8,16.388-22.484h7.345l-6.662,6.912a1.949,1.949,0,0,0,0,2.765,1.849,1.849,0,0,0,2.715,0l8.56-8.844a3.481,3.481,0,0,0,0-5Z" transform="translate(-314.625)"/>
    <path id="路径_32" data-name="路径 32" class="cls-1" d="M50.679,60.094H9.316A9.338,9.338,0,0,1,0,50.775V9.418A9.318,9.318,0,0,1,9.316.1H25.57a2.32,2.32,0,0,1,0,4.64H9.316a4.679,4.679,0,0,0-4.678,4.68V50.775a4.679,4.679,0,0,0,4.678,4.68H50.659a4.679,4.679,0,0,0,4.678-4.68V34.536a2.319,2.319,0,1,1,4.638,0V50.775a9.338,9.338,0,0,1-9.3,9.319Z" transform="translate(0 -0.094)"/>
  </g>
</svg>
