<?xml version="1.0" encoding="UTF-8"?>
<svg width="60px" height="60px" viewBox="0 0 60 60" version="1.1" xmlns="http://www.w3.org/2000/svg" xmlns:xlink="http://www.w3.org/1999/xlink">
    <!-- Generator: Sketch 52.3 (67297) - http://www.bohemiancoding.com/sketch -->
    <title>分享按钮 2</title>
    <desc>Created with Sketch.</desc>
    <g id="Page-1" stroke="none" stroke-width="1" fill="none" fill-rule="evenodd">
        <g id="新品首发-" transform="translate(-1017.000000, -168.000000)" fill="#3A3A3A">
            <g id="分享按钮-2" transform="translate(1017.000000, 168.000000)">
                <g id="分享按钮-copy">
                    <path d="M58.7316834,12.0285845 L47.65993,0.687093702 C47.2313033,0.247684817 46.6441551,1.34214455e-12 46.0311431,1.34292577e-12 C45.4181311,1.34370699e-12 44.830983,0.247684817 44.4023563,0.687093702 C43.9605557,1.12719201 43.7121126,1.72581898 43.7121126,2.35024516 C43.7121126,2.97467133 43.9605557,3.5732983 44.4023563,4.01339661 L52.3964021,12.329154 L43.9826689,12.329154 C24.6170929,14.7938243 21.0597425,28.8604789 20.0005314,43.7486902 C19.9747827,45.0190052 20.8874833,46.1137217 22.1389386,46.3135503 L22.3188047,46.3135503 C22.931834,46.340652 23.5302169,46.1208338 23.9806786,45.7030548 C24.4311403,45.2852757 24.6962706,44.7042317 24.7170184,44.0893357 C25.7762295,28.4997954 29.353565,19.0619117 44.3823712,17.0380768 L53.1958067,17.0380768 L45.2017609,25.3538342 C44.7599603,25.7939325 44.5115172,26.3925595 44.5115172,27.0169856 C44.5115172,27.6414118 44.7599603,28.2400388 45.2017609,28.6801371 C45.6216508,29.135454 46.2120586,29.3943408 46.8305477,29.3943408 C47.4490368,29.3943408 48.0394446,29.135454 48.4593346,28.6801371 L58.7316834,18.0399753 C59.5424387,17.2512626 60,16.1669199 60,15.0342799 C60,13.9016399 59.5424387,12.8172972 58.7316834,12.0285845 Z" id="Path"></path>
                    <path d="M50.7,60 L9.32000001,60 C4.17726959,59.9889995 0.0110005196,55.8227304 0,50.68 L0,9.32000003 C6.30361696e-16,4.17270616 4.17270613,2.94317127e-08 9.32000001,2.9431713e-08 L25.58,2.9431713e-08 C26.408944,-0.000131713654 27.1749762,0.442028973 27.5894862,1.15989358 C28.0039962,1.87775818 28.0039962,2.76224187 27.5894862,3.48010647 C27.1749762,4.19797108 26.408944,4.64013176 25.58,4.64000002 L9.32000001,4.64000002 C6.73530737,4.64000002 4.63999999,6.7353074 4.63999999,9.32000003 L4.63999999,50.68 C4.63999999,53.2646926 6.73530737,55.36 9.32000001,55.36 L50.68,55.36 C53.2646926,55.36 55.36,53.2646926 55.36,50.68 L55.36,34.44 C55.3602036,33.1588434 56.3988434,32.1203687 57.68,32.1203687 C58.9611566,32.1203687 59.9997964,33.1588434 60,34.44 L60,50.68 C59.9890514,55.8149536 55.8349182,59.9780204 50.7,60 Z" id="Path"></path>
                </g>
            </g>
        </g>
    </g>
</svg>