<?xml version="1.0" encoding="UTF-8"?>
<svg width="77px" height="77px" viewBox="0 0 77 77" version="1.1" xmlns="http://www.w3.org/2000/svg" xmlns:xlink="http://www.w3.org/1999/xlink">
    <!-- Generator: Sketch 52.3 (67297) - http://www.bohemiancoding.com/sketch -->
    <title>Group 6</title>
    <desc>Created with Sketch.</desc>
    <defs>
        <path d="M22.040506,38.3123893 L6.4285648,24.8568375 C4.39253898,22.9664182 -0.306461434,17.9579645 0.0157730913,12.2623518 C0.0128441624,9.18884594 1.28719086,6.53229747 4.14496529,3.72617117 C7.04672678,1.23054171 10.0891297,0 13.2602454,0 C18.032522,0 21.9933812,2.71691271 23.9985735,4.41050808 C26.0038722,2.71691271 29.9645717,0 34.7368483,0 C37.9080173,0 40.9505267,1.23048941 43.7788521,3.6571312 C46.709956,6.53229747 47.9845158,9.18889819 47.9845158,12.3428374 C48.3037149,17.9579645 43.6046612,22.9664181 41.5686354,24.8568374 L41.4323607,24.9819038 L25.9570665,38.3128831 C24.8315052,39.2824825 23.1658228,39.2822724 22.040506,38.3123893 Z" id="path-1"></path>
    </defs>
    <g id="Page-1" stroke="none" stroke-width="1" fill="none" fill-rule="evenodd">
        <g id="我的钱包-copy-2" transform="translate(-120.000000, -1684.000000)">
            <g id="Group-6" transform="translate(120.000000, 1684.000000)">
                <circle id="Oval" fill="#FFFFFF" fill-rule="nonzero" cx="38.5" cy="38.5" r="38.5"></circle>
                <g id="Combined-Shape" transform="translate(15.000000, 23.000000)">
                    <mask id="mask-2" fill="white">
                        <use xlink:href="#path-1"></use>
                    </mask>
                    <path stroke="#FE4F70" stroke-width="4" d="M42.4261608,5.13195596 C39.9611923,3.03284861 37.3895469,2 34.7368483,2 C31.3453752,2 28.0744121,3.58606511 25.2890383,5.93848078 L23.9985392,7.02838482 L22.7080687,5.938447 C19.9230361,3.58619466 16.6517585,2 13.2602454,2 C10.5976659,2 8.02655962,3.04114204 5.49901732,5.19971272 C3.04316129,7.62551734 2.01340301,9.77432913 2.01577218,12.2604459 L2.01257992,12.375323 C1.79684935,16.1884394 4.29616244,20.1477698 7.73427603,23.3418727 L23.3462172,36.7974245 C23.7213228,37.1207189 24.2765502,37.1207889 24.6517374,36.7975891 L40.0800431,23.508392 L40.2078013,23.3911873 C43.694315,20.1540117 46.2007079,16.2027375 45.9877395,12.4563467 L45.9845158,12.3428374 C45.9845158,9.77498847 44.9535977,7.6252799 42.4261608,5.13195596 Z"></path>
                    <path d="M17.9690766,-6.39635213 L20.7403579,-4.79635213 L-2.05964214,34.6944063 L-4.83092344,33.0944063 L17.9690766,-6.39635213 Z M27.5690766,-6.39635213 L30.3403579,-4.79635213 L7.54035786,34.6944063 L4.76907656,33.0944063 L27.5690766,-6.39635213 Z M33.9690766,0.00364786982 L36.7403579,1.60364787 L13.9403579,41.0944063 L11.1690766,39.4944063 L33.9690766,0.00364786982 Z M41.9690766,3.20364787 L44.7403579,4.80364787 L21.9403579,44.2944063 L19.1690766,42.6944063 L41.9690766,3.20364787 Z M49.9690766,5.60364787 L52.7403579,7.20364787 L29.9403579,46.6944063 L27.1690766,45.0944063 L49.9690766,5.60364787 Z" fill="#FFFFFF" fill-rule="nonzero" opacity="0.200000003" mask="url(#mask-2)" transform="translate(23.954717, 20.149027) rotate(-342.000000) translate(-23.954717, -20.149027) "></path>
                </g>
            </g>
        </g>
    </g>
</svg>