<?xml version="1.0" encoding="UTF-8"?>
<svg width="120px" height="120px" viewBox="0 0 120 120" version="1.1" xmlns="http://www.w3.org/2000/svg" xmlns:xlink="http://www.w3.org/1999/xlink">
    <!-- Generator: Sketch 52.5 (67469) - http://www.bohemiancoding.com/sketch -->
    <title>分组 23 copy</title>
    <desc>Created with Sketch.</desc>
    <g id="Page-1" stroke="none" stroke-width="1" fill="none" fill-rule="evenodd">
        <g id="我的钱包" transform="translate(-114.000000, -1294.000000)" fill-rule="nonzero">
            <g id="分组-23-copy" transform="translate(114.000000, 1294.000000)">
                <circle id="Oval" fill="#A96BFB" opacity="0.309402926" cx="60" cy="60" r="60"></circle>
                <g id="钱币-copy" transform="translate(32.000000, 30.000000)" fill="#BA89FE">
                    <path d="M40.5313131,25 C34.3939394,25 30.7616162,26.2607204 28.7575758,27.3413379 C26.3777778,28.6020583 25,30.3430532 25,32.0240137 L25,52.9759863 C25,54.7169811 26.3777778,56.3979417 28.7575758,57.6586621 C30.7616162,58.7392796 34.3939394,60 40.5313131,60 C46.6060606,60 50.2383838,58.7392796 52.2424242,57.6586621 C54.6222222,56.3979417 56,54.7169811 56,52.9759863 L56,32.084048 C56,30.3430532 54.6848485,28.6020583 52.3050505,27.3413379 C50.3010101,26.2607204 46.6686869,25 40.5313131,25 Z M53.3070707,52.9759863 C53.3070707,54.8370497 48.4222222,57.4785592 40.5313131,57.4785592 C32.640404,57.4785592 27.7555556,54.8370497 27.7555556,52.9759863 L27.7555556,46.6723842 L28.9454545,47.2727273 C30.9494949,48.2933105 34.5818182,49.5540309 40.5313131,49.5540309 C46.4808081,49.5540309 50.1131313,48.2933105 52.1171717,47.2727273 L53.3070707,46.6723842 L53.3070707,52.9759863 Z M53.3070707,42.5300172 C53.3070707,44.3910806 48.4222222,47.0325901 40.5313131,47.0325901 L39.7171717,47.0325901 C32.2646465,46.8524871 27.7555556,44.3310463 27.7555556,42.5300172 L27.7555556,36.2264151 L28.9454545,36.8267581 C30.9494949,37.8473413 34.5818182,39.1080617 40.5313131,39.1080617 C46.4808081,39.1080617 50.1131313,37.8473413 52.1171717,36.8267581 L53.3070707,36.2264151 L53.3070707,42.5300172 Z M40.5313131,36.5265866 C32.640404,36.5265866 27.7555556,33.8850772 27.7555556,32.0240137 C27.7555556,30.1629503 32.640404,27.5214408 40.5313131,27.5214408 C48.4848485,27.5214408 53.3070707,30.1629503 53.3070707,32.0240137 C53.3070707,33.9451115 48.4222222,36.5265866 40.5313131,36.5265866 Z" id="Shape"></path>
                    <path d="M3.63136729,16.4135593 C7.55093834,19.220339 14.4101877,20.9288136 21.5,20.9288136 C28.5898123,20.9288136 35.4490617,19.220339 39.3686327,16.4135593 L40.5214477,15.620339 L40.5214477,21.8440678 L43,21.8440678 L43,10.4338983 C43,6.58983051 39.4262735,4.14915254 36.3713137,2.80677966 C32.3941019,1.03728814 26.9758713,0 21.5,0 C16.0241287,0 10.6058981,1.03728814 6.62868633,2.80677966 C3.57372654,4.14915254 0,6.58983051 0,10.4338983 L0,43.5661017 C0,47.4101695 3.57372654,49.8508475 6.62868633,51.1932203 C10.4329759,52.9016949 15.5053619,53.9389831 20.7506702,54 L20.7506702,51.3762712 C15.8512064,51.3152542 11.2975871,50.4 7.83914209,48.9355932 C4.4383378,47.4711864 2.47855228,45.5186441 2.47855228,43.5661017 L2.47855228,32.1559322 L3.63136729,32.9491525 C7.43565684,35.6338983 13.8914209,37.3423729 20.7506702,37.4644068 L20.7506702,34.840678 C15.8512064,34.779661 11.2975871,33.8644068 7.83914209,32.4 C4.4383378,30.8745763 2.47855228,28.9220339 2.47855228,27.0305085 L2.47855228,15.559322 L3.63136729,16.4135593 Z M8.05232008,5.10427607 C11.686553,3.5243811 16.532197,2.61290323 21.7239583,2.61290323 C26.9157197,2.61290323 31.7613636,3.5243811 35.3955966,5.10427607 C38.7990846,6.56264066 40.7604167,8.50712678 40.7604167,10.4516129 C40.7604167,12.3353338 38.7990846,14.27982 35.3955966,15.7989497 C31.7613636,17.3788447 26.9157197,18.2903226 21.7239583,18.2903226 C16.532197,18.2903226 11.686553,17.3788447 8.05232008,15.7989497 C4.64883207,14.3405851 2.6875,12.396099 2.6875,10.4516129 C2.6875,8.50712678 4.64883207,6.56264066 8.05232008,5.10427607 Z" id="Shape"></path>
                </g>
            </g>
        </g>
    </g>
</svg>