<?xml version="1.0" encoding="UTF-8"?>
<svg width="236px" height="219px" viewBox="0 0 236 219" version="1.1" xmlns="http://www.w3.org/2000/svg" xmlns:xlink="http://www.w3.org/1999/xlink">
    <!-- Generator: Sketch 52.5 (67469) - http://www.bohemiancoding.com/sketch -->
    <title>美金 copy</title>
    <desc>Created with Sketch.</desc>
    <g id="Page-1" stroke="none" stroke-width="1" fill="none" fill-rule="evenodd" opacity="0.0490578491">
        <g id="我的钱包" transform="translate(-734.000000, -870.000000)" fill="#F37052">
            <g id="美金-copy" transform="translate(734.000000, 870.000000)">
                <path d="M143.279271,76.8312631 L139.735932,74.5891006 C141.69215,71.5690451 142.393436,68.7777816 141.802879,66.2610687 C141.138503,63.2867715 138.813187,60.815817 134.826931,58.8024466 C132.981442,57.8872783 131.172862,57.2924189 129.327373,57.0636268 C127.518794,56.8348347 125.636395,56.8805931 123.753996,57.2924189 C121.908507,57.6584862 119.583191,58.4821377 116.814957,59.8091318 L116.519679,59.9464071 C114.046724,61.3191596 109.026994,62.46312 107.292234,61.5937101 C106.000391,60.9530923 105.225286,60.1751992 104.930008,59.3057892 C104.671639,58.4821377 104.819278,57.6127278 105.446745,56.651801 L105.557474,56.4687674 C106.960046,53.7690207 109.137723,52.258993 111.3154,51.2065494 C113.087069,50.3828978 113.529987,47.5001176 112.127415,45.8985729 L111.35231,45.029163 C110.503385,44.0682362 109.285362,43.7479273 108.214978,44.2055115 C106.037301,45.1206798 104.007263,46.3103987 102.124864,47.7289096 L98.8398939,45.8985729 C98.5815254,45.7612977 98.2862472,45.7612977 98.0278787,45.9443314 L94.4845397,48.2780106 C93.8570734,48.6898364 93.8201636,49.8337968 94.4845397,50.291381 L97.7695102,52.5335435 C95.7763821,55.4620822 95.0381864,58.2991041 95.5918331,60.9530923 C96.2192994,63.9273894 98.3969765,66.3525855 102.124864,68.274439 C104.782369,69.6471916 107.624422,70.242051 110.577204,70.1047757 C113.529987,69.9675005 120.801214,67.4050291 124.270733,65.7577261 L124.455282,65.6662093 C124.492192,65.6662093 124.529102,65.6204508 124.529102,65.6204508 L124.566011,65.5746924 C125.304207,65.2543835 126.116222,65.1171082 127.002057,65.0713498 C127.961711,65.0255914 128.921366,65.3001419 129.91793,65.8034845 C131.246682,66.4898608 132.058697,67.3135123 132.317066,68.2286806 C132.575434,69.143849 132.390885,70.1047757 131.837238,71.0657025 L131.763419,71.2487362 L131.61578,71.4317698 C129.216644,74.2687917 125.710215,76.9227799 122.203785,78.8446335 C120.579755,79.7140434 120.616665,82.5510653 122.240695,83.3747168 L124.639831,84.610194 C125.599485,85.1135366 126.632959,85.1135366 127.629523,84.7017109 C130.250118,83.5577504 132.723073,81.9104474 135.048389,79.8513186 C135.122209,79.8970771 135.159119,79.9428355 135.232938,79.9885939 L138.591728,81.9104474 C138.960826,82.1392395 139.366834,82.1392395 139.735932,81.9104474 L143.168541,79.8970771 C144.238925,79.2564592 144.275835,77.4718809 143.279271,76.8312631 Z" id="Path" opacity="0.699999988"></path>
                <path d="M233.272939,113.355151 C235.640036,112.173743 236.712627,108.720396 235.492092,105.903193 C234.456487,103.40406 231.941447,102.449846 229.833251,103.494938 L188.039195,124.260456 L188.039195,106.493897 L233.088009,84.1834605 C235.455106,83.0020524 236.527697,79.5487059 235.307163,76.7315022 C234.271558,74.2323698 231.756517,73.2781556 229.648321,74.3232473 L188.002209,94.9070102 L188.002209,77.8220326 C188.002209,77.4585225 187.965223,77.0950123 187.928237,76.7769409 L232.644179,54.5573824 C234.752374,53.5122907 235.861951,50.6042094 235.159219,47.9687607 C234.826346,46.5601588 234.086628,45.333312 232.940066,44.6062917 L162.999747,0.576123511 C162.001128,-0.0600192704 160.854565,-0.150896811 159.81896,0.21261335 C159.560059,0.25805212 159.338143,0.34892966 159.079242,0.485245971 L3.03576987,78.0492265 C2.77686863,78.1855428 2.5179674,78.3218591 2.25906616,78.5036142 C2.22208027,78.5036142 2.22208027,78.549053 2.18509438,78.549053 C0.372785743,79.8667773 -0.403917959,82.683981 0.409771634,85.1376746 C0.890588211,86.5917153 1.85222137,87.6822458 2.96179808,88.1820722 L72.7171877,132.030485 C73.5308773,132.530312 74.4185387,132.712067 75.2692142,132.575751 C75.6390731,132.530312 76.008932,132.393996 76.3787909,132.21224 L124.016618,108.538641 L124.016618,126.714149 L76.1198897,150.478626 L6.36450002,106.630213 C4.10836069,105.221611 1.26044712,106.448458 0.298813962,109.447417 C-0.551861521,112.037427 0.483743415,114.990947 2.5179674,116.308671 L73.4569055,160.884104 C74.6034682,161.838319 76.1198897,162.065512 77.4883676,161.383931 L123.979632,138.255597 L123.979632,156.022156 L75.4171577,180.150143 L6.58641536,136.846995 C4.21931836,135.347516 1.26044712,136.801556 0.409771634,140.027709 C-0.218988506,142.526841 0.77963054,145.253167 2.70289685,146.480014 L73.0870466,190.737376 C73.3829338,190.919131 73.7158068,191.055448 74.0486798,191.191764 C74.9733271,191.509835 75.9719461,191.509835 76.8965934,191.010009 L123.979632,167.609042 L123.979632,183.103663 L74.4925105,207.731476 L6.62340125,165.291665 C4.36726193,163.883063 1.51934835,165.10991 0.557715196,168.108869 C-0.292960287,170.698879 0.742644649,173.652399 2.77686863,174.970123 L72.0884276,218.364148 C72.4952724,218.636781 72.9391031,218.773097 73.3829338,218.863975 C74.2336092,219.091169 75.1212706,219.04573 76.008932,218.636781 L232.311306,140.981923 C234.678403,139.800515 235.750993,136.347169 234.530459,133.529965 C233.494854,131.030832 230.979814,130.076618 228.871618,131.12171 L188.002209,151.43284 L188.002209,135.93822 L233.272939,113.355151 Z M74.8993553,121.352374 L14.9822125,83.683634 L57.9598174,62.327412 L117.87696,99.9961524 L74.8993553,121.352374 Z M170.581854,73.8688596 C171.987318,74.59588 173.022923,75.1411452 174.021542,75.6409717 C177.128357,77.0950123 179.162581,80.7755527 179.162581,84.865042 L179.34751,99.2691321 L179.34751,155.704085 L132.81926,178.832419 L132.81926,104.449152 L132.81926,104.221958 C132.81926,98.496673 129.268614,95.2250816 127.493292,93.952796 L126.457687,93.3166532 L68.7596974,57.0565147 L110.738683,36.2001193 L170.581854,73.8688596 Z M121.39062,30.7929056 L160.780593,11.2087957 L220.697736,48.8775361 L181.307762,68.461646 L121.39062,30.7929056 Z" id="Shape" fill-rule="nonzero" opacity="0.699999988"></path>
            </g>
        </g>
    </g>
</svg>