<svg t="1566814067097" class="icon" viewBox="0 0 1025 1024" version="1.1" xmlns="http://www.w3.org/2000/svg" p-id="27019" width="200" height="200"><path d="M992.090881 443.129l-388.66-404.16C579.320881 13.934 546.998881 0.023 512.424881 0.023s-66.896 13.776-91.006 38.946L32.889881 443.129c-40.138 41.728-34.972 77.759-28.348 92.86 4.769 10.731 20.665 40.005 66.63 40.005l56.961 0 0 310.902c0 70.604 50.736 137.104 122.797 137.104l165.454 0L416.383881 694.949c0-35.236-5.298-54.974 30.733-54.974l130.745 0c36.031 0 30.733 19.605 30.733 54.974L608.594881 1024l165.321 0c72.063 0 122.797-66.499 122.797-137.104L896.712881 575.994l56.961 0c45.966 0 61.862-29.407 66.63-40.005C1026.927881 520.888 1032.094881 484.856 992.090881 443.129L992.090881 443.129zM953.676881 512.013 832.601881 512.013l0 374.884c0 35.237-22.784 72.99-58.815 72.99L672.446881 959.887 672.446881 694.949c0-70.604-22.652-118.956-94.717-118.956L446.985881 575.993c-72.063 0-94.717 48.352-94.717 118.956l0 265.069L250.929881 960.018c-36.031 0-58.816-37.754-58.816-72.99L192.113881 512.145 71.038881 512.145c-1.191 0-2.118-4.371-3.047-4.503 2.253-3.843 6.094-13.646 12.452-20.269l388.66-403.895c11.525-12.187 27.95-19.473 43.848-19.34 15.895-0.132 31.262 7.285 42.919 19.34L944.398881 487.24c6.358 6.623 10.199 16.426 12.32 20.269-0.796 0.132-1.856 4.503-3.047 4.503L953.676881 512.013z" p-id="27020" ></path></svg>