<svg t="1562842903327" class="icon" viewBox="0 0 1024 1024" version="1.1" xmlns="http://www.w3.org/2000/svg" p-id="77035" width="200" height="200"><path d="M511.95 389.195c-57.594 0-104.541 46.396-104.541 103.591s46.846 103.591 104.541 103.591c57.594 0 104.541-46.396 104.541-103.591 0-57.195-46.946-103.591-104.541-103.591v0zM511.95 556.33c-35.297 0-64.145-28.548-64.145-63.543 0-35.147 28.697-63.594 64.145-63.594 35.447 0 64.194 28.448 64.194 63.594 0 35.097-28.848 63.543-64.194 63.543v0zM213.127 700.717h47.095v68.843h-47.095v-68.843zM213.127 807.407h47.095v68.843h-47.095v-68.843zM574.994 737.812h-126.938c-13.049 0-23.547 10.399-23.547 23.348 0 0.249 0.1 0.5 0.1 0.601 0 0.249-0.1 0.5-0.1 0.65v152.236c0 12.949 10.499 23.348 23.547 23.348 12.999 0 23.548-10.4 23.548-23.348v-130.138h80.742v130.138c0 12.949 10.499 23.348 23.547 23.348 12.999 0 23.497-10.4 23.497-23.348v-152.135c0-4.9-1.5-9.399-4.149-13.148-4.149-6.899-11.649-11.549-20.249-11.549v0zM763.577 700.717h47.095v68.843h-47.095v-68.843zM763.577 807.407h47.095v68.843h-47.095v-68.843zM938.262 491.636h-226.73v-108.991l-47.046-24.198v557.099c0 12.899 10.499 23.298 23.548 23.298 12.999 0 23.498-10.399 23.498-23.298v-283.674h226.83c13.049 0 23.548-10.399 23.548-23.348v-93.692c-0.1-12.799-10.598-23.198-23.648-23.198v0zM914.714 585.327h-202.532v-47.047h202.532v47.047zM112.386 914.646c0 12.949 10.499 23.348 23.548 23.348 12.999 0 23.548-10.4 23.548-23.348v-284.825h-47.095v284.825zM864.318 914.646c0 12.949 10.499 23.348 23.548 23.348s23.548-10.4 23.548-23.348v-284.825h-47.095v284.825zM312.368 491.636h-226.83c-13.049 0-23.547 10.4-23.547 23.348v93.692c0 12.899 10.499 23.298 23.548 23.298h226.83v283.575c0 12.899 10.499 23.298 23.548 23.298s23.548-9.149 23.548-22.048v-559.349l-47.095 24.249v109.94zM311.618 585.327h-202.532v-47.047h202.532v47.047zM259.573 408.143c3.65 0 7.349-0.9 10.749-2.65l241.529-123.788 241.628 123.788c3.399 1.75 7.050 2.65 10.749 2.65 8.449 0 16.699-4.649 20.848-12.549 5.949-11.398 1.55-25.449-10.1-31.497l-238.228-122.139c-0.601-1.1-1.35-2.25-2.1-3.249 0.201-1.5 0.5-3.001 0.5-4.649v-36.497l134.288-53.796c1.5-0.601 2.75-1.25 4.050-2.1 0 0 0 0 0.1 0 1.801-1.149 3.299-2.55 4.549-4.050 0.4-0.35 0.65-0.75 0.9-1.149 1.3-1.599 2.399-3.35 3.299-5.35 0 0 0 0 0-0.15 0.1-0.5 0.249-0.85 0.35-1.35 0.3-1.001 0.65-1.9 0.9-2.9 0.15-0.75 0.15-1.401 0.249-2 0.15-0.9 0.249-1.65 0.249-2.499 0-0.8-0.1-1.55-0.249-2.25-0.1-0.8-0.1-1.55-0.249-2.3-0.1-0.85-0.5-1.85-0.75-2.75-0.15-0.5-0.249-1.001-0.5-1.5 0 0 0-0.1-0.15-0.1-0.5-1.149-1.001-2.15-1.65-3.15-0.1-0.249-0.201-0.65-0.5-0.9-1.5-2.1-3.399-4-5.549-5.649-0.4-0.249-0.65-0.5-0.9-0.75-0.35-0.249-0.85-0.5-1.401-0.75-0.85-0.5-1.75-1.001-2.75-1.5-0.15 0-0.15 0-0.15-0.1l-147.337-59.594c-9.349-3.749-19.598-1.1-26.047 5.801-4.7 4.25-7.749 10.249-7.749 17.149v170.334c0 1.75 0.249 3.5 0.65 5.099-0.65 0.9-1.25 1.801-1.75 2.799l-238.228 121.988c-11.498 5.899-16.099 19.948-10.148 31.497 4.199 7.899 12.449 12.549 20.898 12.549v0zM535.248 96.621l62.895 25.347-62.895 25.197v-50.545zM887.866 939.245h-750.533c-8.399 0-15.199-6.799-15.199-15.049v-1.5c0-8.3 6.799-15.098 15.199-15.098h750.533c8.349 0 15.199 6.799 15.199 15.098v1.5c0 8.249-6.849 15.049-15.199 15.049z" p-id="77036" fill="#979797"></path></svg>