<svg t="1562754312043" class="icon" viewBox="0 0 1024 1024" version="1.1" xmlns="http://www.w3.org/2000/svg" p-id="36614" width="200" height="200"><path d="M731.334194 247.08129c-27.747097 0-63.421935 19.819355-97.114839 53.512258L566.172903 368.64c-0.660645 0.660645-1.981935 1.32129-3.303226 1.32129L330.322581 327.68c-6.606452-1.32129-15.194839 1.32129-19.819355 5.945806l-25.104516 25.104517c-4.624516 4.624516-6.606452 11.230968-5.945807 17.176774 1.32129 5.945806 5.285161 10.570323 11.891613 13.212903l189.605161 74.652903-20.48 20.48C426.776774 517.945806 359.390968 611.096774 356.748387 615.060645l-1.32129 0.660645-68.046452-12.552258c-6.606452-1.32129-15.194839 1.32129-19.819355 5.945807L251.045161 624.970323c-4.624516 4.624516-6.606452 11.230968-5.945806 17.176774 1.32129 5.945806 5.285161 10.570323 11.891613 13.212903l74.652903 29.729032c1.32129 0.660645 3.303226 2.642581 3.963871 3.963871l29.729032 74.652903c3.303226 7.267097 9.249032 11.891613 16.516129 11.891613 4.624516 0 9.909677-1.981935 13.212903-5.945806l15.855484-15.855484c4.624516-4.624516 7.267097-13.212903 5.945807-19.819355l-12.552258-68.046451c0-0.660645 0.660645-1.32129 0.660645-1.981936 4.624516-1.981935 98.436129-69.367742 132.129032-103.72129l20.48-20.48 74.652903 188.944516c3.303226 7.267097 9.249032 12.552258 16.516129 12.552258 4.624516 0 9.909677-1.981935 13.873549-5.945806l24.443871-25.104517c4.624516-4.624516 7.267097-13.212903 5.945806-19.819354l-42.28129-232.547097c0-0.660645 0.660645-2.642581 1.32129-3.303226L720.103226 387.138065c49.548387-49.548387 66.725161-102.4 41.620645-127.504517-7.267097-7.927742-18.498065-12.552258-30.389677-12.552258zM706.890323 373.925161L638.843871 441.971613c-4.624516 4.624516-7.267097 13.212903-5.945806 19.819355l42.28129 232.547097c0 0.660645-0.660645 2.642581-1.32129 3.303225l-24.443871 24.443871L574.76129 532.48c-3.303226-7.267097-9.249032-12.552258-16.516129-12.552258-4.624516 0-9.909677 1.981935-13.212903 5.945806l-20.48 20.48c-33.032258 33.032258-128.165161 101.739355-128.825806 102.4-5.945806 4.624516-9.249032 12.552258-7.927742 19.819355l12.552258 68.046452c0 0.660645-0.660645 2.642581-1.321291 3.303226l-15.194838 15.194838-29.729033-74.652903c-2.642581-5.945806-8.588387-11.891613-14.534193-14.534193l-74.652903-29.729033 15.194838-15.194838c0.660645-0.660645 1.981935-1.32129 3.303226-1.321291L351.463226 634.219355c7.267097 1.32129 15.855484-1.981935 19.819355-7.927742 0.660645-0.660645 69.367742-95.793548 102.4-128.825807l20.48-20.48c4.624516-4.624516 6.606452-11.230968 5.945806-17.176774-1.32129-5.945806-5.285161-10.570323-11.891613-13.212903L299.272258 371.282581l24.443871-24.443871c0.660645-0.660645 1.981935-1.32129 3.303226-1.321291l232.547097 42.281291c6.606452 1.32129 15.194839-1.32129 19.819354-5.945807L647.432258 313.806452c29.729032-29.729032 61.44-47.566452 83.901936-47.566452 7.267097 0 13.212903 1.981935 17.837419 6.606452 16.516129 16.516129-1.981935 60.779355-42.28129 101.078709z" p-id="36615"></path><path d="M509.357419 3.303226C229.243871 3.303226 0.660645 231.225806 0.660645 512s227.922581 508.696774 508.696774 508.696774c280.113548 0 508.696774-227.922581 508.696775-508.696774s-228.583226-508.696774-508.696775-508.696774z m0 996.913548c-269.543226 0-488.877419-219.334194-488.877419-488.877419s219.334194-488.877419 488.877419-488.87742 488.877419 219.334194 488.87742 488.87742-219.334194 488.877419-488.87742 488.877419z" p-id="36616"></path></svg>