<?xml version="1.0" encoding="UTF-8"?>
<svg width="64px" height="64px" viewBox="0 0 64 64" version="1.1" xmlns="http://www.w3.org/2000/svg" xmlns:xlink="http://www.w3.org/1999/xlink">
    <!-- Generator: Sketch 52.3 (67297) - http://www.bohemiancoding.com/sketch -->
    <title>分组 3</title>
    <desc>Created with Sketch.</desc>
    <g id="Page-1" stroke="none" stroke-width="1" fill="none" fill-rule="evenodd">
        <g id="查看物流" transform="translate(-158.000000, -1470.000000)">
            <g id="Group" transform="translate(48.000000, 594.000000)">
                <g id="分组-11" transform="translate(110.000000, 876.000000)">
                    <g id="分组-3">
                        <path d="M32,62 C48.5685425,62 62,48.5685425 62,32 C62,15.4314575 48.5685425,2 32,2 C15.4314575,2 2,15.4314575 2,32 C2,48.5685425 15.4314575,62 32,62 Z" id="Oval-61" stroke="#979797" stroke-width="3"></path>
                        <path d="M26.218185,50.3333333 C26.1509617,50.3333333 26.0837384,50.3285271 26.0117135,50.3141084 C25.6515888,50.2372089 25.3490841,50.001704 25.2098359,49.655656 L21.9351022,41.768646 L14.3628808,38.7935946 C14.0219628,38.6590204 13.7674747,38.3610346 13.6906481,38.000568 C13.6138215,37.6401014 13.7242597,37.2700223 13.9835495,37.0008739 L16.307554,34.6746625 C16.5140255,34.4679949 16.7925219,34.3526456 17.0806217,34.3526456 L17.1574483,34.3526456 L22.8042031,34.7755931 L27.8123369,29.7627037 L15.4672631,23.726089 C15.1551551,23.5770962 14.929477,23.2743042 14.8670554,22.92345 C14.8142371,22.5725958 14.9198736,22.2169354 15.1743617,21.9670118 L17.445548,19.6936689 C17.6520195,19.4870014 17.9305159,19.371652 18.2234173,19.371652 C18.2906406,19.371652 18.3530622,19.3764583 18.4202854,19.3908769 L35.2645167,22.5918207 L42.9999946,14.8489972 C43.7538556,14.0944204 44.829428,13.6666667 45.9530169,13.6666667 C47.0766059,13.6666667 48.1473766,14.0992266 48.9060392,14.8489972 L49.1125107,15.0556648 C50.7402742,16.684974 50.7402742,19.3332023 49.1125107,20.9577052 L41.4298511,28.6476602 L44.786213,45.3636999 C44.8630396,45.7241666 44.742998,46.0942456 44.4837083,46.3537816 L42.1597037,48.679993 C41.9532322,48.8866605 41.6747358,49.0020099 41.3866361,49.0020099 C41.3242145,49.0020099 41.2713962,48.9972037 41.2089746,48.9875912 C40.8680566,48.9347228 40.5655519,48.7136366 40.407097,48.4060384 L34.2321593,36.3616463 L29.3584721,41.2399616 L29.829035,46.6181238 C29.857845,46.9401407 29.7378034,47.2621576 29.516927,47.48805 L26.9864509,50.0209289 C26.7847811,50.217984 26.5062847,50.3333333 26.218185,50.3333333 Z M23.1643278,39.8990256 C23.4380225,40.0095688 23.6637006,40.2258487 23.7741389,40.4998034 L26.602318,47.3054136 L27.6154687,46.2913007 L27.1449058,40.9131385 C27.1160958,40.5911216 27.2361374,40.2691047 27.4570138,40.0432123 L33.7519931,33.7422554 C33.9584646,33.5355879 34.236961,33.4202386 34.5250607,33.4202386 C34.577879,33.4202386 34.6403006,33.4250448 34.6979206,33.4346572 C35.0388386,33.4875257 35.3413433,33.7086119 35.5045998,34.0162101 L41.6843392,46.0557959 L42.5342334,45.2050946 L39.1778715,28.4986674 C39.1010449,28.1382007 39.2210864,27.7681216 39.4803762,27.5085857 L47.5711771,19.4101018 C48.3442447,18.6363001 48.3442447,17.37707 47.5711771,16.6032682 L47.3647056,16.3966007 C47.0093826,16.0409403 46.4956048,15.8342727 45.9626202,15.8342727 C45.4296357,15.8342727 44.9158579,16.0409403 44.5605349,16.3966007 L36.397709,24.5383405 C36.1912375,24.7450081 35.9127411,24.8603574 35.6246414,24.8603574 C35.5574181,24.8603574 35.4901948,24.8555512 35.4181699,24.8411325 L18.583542,21.644995 L17.8056727,22.4236029 L30.155548,28.4650238 C30.4676561,28.6236291 30.6933342,28.9216149 30.7557558,29.2676629 C30.8085741,29.6185171 30.7029375,29.9741775 30.4484494,30.224101 L23.999817,36.6932757 C23.8029489,36.8999432 23.5196508,37.0152925 23.2363527,37.0152925 C23.2027411,37.0152925 23.1739311,37.0152925 23.1403195,37.0104863 L17.5079696,36.5875388 L16.720497,37.3757592 L23.1643278,39.8990256 Z" id="形状" fill="#949497" fill-rule="nonzero"></path>
                    </g>
                </g>
            </g>
        </g>
    </g>
</svg>