<svg t="1565777976084" class="icon" viewBox="0 0 1024 1024" version="1.1" xmlns="http://www.w3.org/2000/svg" p-id="5191" width="200" height="200"><path d="M357.632 700.64c-100.48 0-117.802667-64.096-112.602667-90.08 5.194667-25.989333 34.645333-60.64 90.08-60.64 64.101333 0 123.002667 17.333333 192.298667 50.24-48.506667 62.368-107.413333 100.48-169.776 100.48z m500.661333-60.629333v-341.28C858.293333 225.962667 799.392 165.333333 724.906667 165.333333H298.730667C225.973333 165.333333 165.338667 224.234667 165.338667 298.725333v426.170667c0 72.762667 58.901333 133.397333 133.392 133.397333h426.170666c65.829333 0 119.536-46.773333 131.664-109.141333-34.650667-15.594667-188.832-81.424-268.522666-119.536-60.634667 72.757333-124.730667 117.802667-220.016 117.802667-95.28 0-159.381333-58.901333-152.448-131.664 5.194667-46.773333 38.112-124.730667 178.437333-110.874667 74.490667 6.933333 109.136 20.789333 169.770667 41.578667 15.594667-29.450667 29.450667-60.634667 38.112-93.546667H333.386667v-25.989333H466.773333v-48.506667H303.930667v-29.450667H466.773333V279.669333s1.733333-10.394667 13.861334-10.394666h65.829333v79.690666h173.237333v29.450667h-173.237333v48.506667h142.058667c-12.128 53.706667-32.917333 102.213333-57.173334 143.786666 39.845333 12.133333 226.944 69.301333 226.944 69.301334z" fill="#00AAEE" p-id="5192"></path></svg>