<?xml version="1.0" standalone="no"?><!DOCTYPE svg PUBLIC "-//W3C//DTD SVG 1.1//EN" "http://www.w3.org/Graphics/SVG/1.1/DTD/svg11.dtd"><svg t="1562578138702" class="icon" viewBox="0 0 1024 1024" version="1.1" xmlns="http://www.w3.org/2000/svg" p-id="26886" xmlns:xlink="http://www.w3.org/1999/xlink" width="200" height="200"><defs><style type="text/css"></style></defs><path d="M481.882353 60.235294 361.411765 60.235294 361.411765 0 662.588235 0 662.588235 60.235294 542.117647 60.235294 542.117647 90.352941 481.882353 90.352941 481.882353 60.235294 481.882353 60.235294ZM391.529412 150.588235 632.470588 150.588235 632.470588 90.352941 391.529412 90.352941 391.529412 150.588235ZM752.580879 119.926471 813.176471 120.470588C869.589715 119.926471 905.816184 155.401592 903.529412 210.823529L903.529412 843.294118C905.816184 916.152567 857.040685 965.625001 783.058824 963.764706L240.941176 963.764706C166.959315 965.625001 118.470596 916.152567 120.470588 843.294118L120.470588 210.823529C118.470596 155.401592 154.410285 120.470588 210.823529 120.470588L271.058824 120.470588 272.235279 60.235294 210.823529 60.235294C126.687744 60.235294 60.235294 127.387253 60.235294 212.408669L60.235294 846.464398C60.235294 944.166924 139.236774 1024 235.921559 1024L788.078441 1024C884.763226 1024 963.764706 944.166924 963.764706 846.464398L963.764706 212.408669C963.764706 127.387253 897.312256 60.235294 813.176471 60.235294L752.580879 60.235294 752.580879 119.926471ZM722.823529 572.235294 722.823529 512 301.176471 512 301.176471 572.235294 722.823529 572.235294ZM722.823529 391.529412 722.823529 331.294118 301.176471 331.294118 301.176471 391.529412 722.823529 391.529412ZM722.823529 752.941176 722.823529 692.705882 301.176471 692.705882 301.176471 752.941176 722.823529 752.941176Z" p-id="26887"></path></svg>