<?xml version="1.0" encoding="UTF-8"?>
<svg width="85px" height="74px" viewBox="0 0 85 74" version="1.1" xmlns="http://www.w3.org/2000/svg" xmlns:xlink="http://www.w3.org/1999/xlink">
    <!-- Generator: Sketch 52.5 (67469) - http://www.bohemiancoding.com/sketch -->
    <title>分组</title>
    <desc>Created with Sketch.</desc>
    <g id="Page-1" stroke="none" stroke-width="1" fill="none" fill-rule="evenodd">
        <g id="我的-copy" transform="translate(-880.000000, -801.000000)">
            <g id="分组" transform="translate(872.950000, 787.988709)">
                <g id="分组-5" transform="translate(7.000000, 13.000000)">
                    <g transform="translate(0.000000, 0.510891)">
                        <path d="M42.9805563,71.2134532 L48.6106392,64.7607143 L76.9,64.7607143 C80.2551299,64.7607143 82.975,62.0408441 82.975,58.6857143 L82.975,8.1 C82.975,4.74487014 80.2551299,2.025 76.9,2.025 L8.1,2.025 C4.74487014,2.025 2.025,4.74487014 2.025,8.1 L2.025,58.6857143 C2.025,62.0408441 4.74487014,64.7607143 8.1,64.7607143 L36.333241,64.7607143 L41.9633239,71.2134532 C42.2084129,71.4943542 42.6348122,71.5233855 42.9157131,71.2782964 C42.9387725,71.2581769 42.9604368,71.2365125 42.9805563,71.2134532 Z" id="Combined-Shape" stroke="#353334" stroke-width="4.05" fill="#FFFFFF"></path>
                        <rect id="Rectangle" stroke="#383838" stroke-width="4.05" fill="#FE5F68" x="14.1666667" y="28.3333333" width="56.6666667" height="8.36679046" rx="2.7"></rect>
                    </g>
                </g>
            </g>
        </g>
    </g>
</svg>