<svg t="1566557704589" class="icon" viewBox="0 0 1024 1024" version="1.1" xmlns="http://www.w3.org/2000/svg" p-id="1630" width="200" height="200"><path d="M141.1 331.2c-35 0-63.3 28.3-63.3 63.2v264.7c0 34.9 28.4 63.2 63.3 63.2 35 0 63.3-28.3 63.3-63.2V394.4c0-34.9-28.3-63.2-63.3-63.2zM228.9 753.3c0 37.3 30.3 67.5 67.6 67.5h46.1v140c0 34.9 28.4 63.2 63.3 63.2 35 0 63.3-28.3 63.3-63.2v-140h85.5v140c0 34.9 28.4 63.2 63.3 63.2 35 0 63.3-28.3 63.3-63.2v-140h46.1c37.3 0 67.6-30.2 67.6-67.5V343.1H228.9v410.2zM651.8 93.4L696 13c2.4-4.2 0.8-9.6-3.5-11.9-4.2-2.3-9.6-0.8-11.9 3.5l-44.7 81.2C598.4 69.2 556.4 59.9 512 59.9c-44.4 0-86.4 9.3-123.9 25.8L343.4 4.6c-2.3-4.3-7.7-5.8-11.9-3.5-4.3 2.3-5.9 7.7-3.5 11.9l44.2 80.4c-86.8 44.8-145.5 130-145.5 227.7h570.5c0.1-97.8-58.6-182.9-145.4-227.7zM382.2 218c-13.2 0-23.9-10.7-23.9-23.9s10.7-23.9 23.9-23.9 23.9 10.7 23.9 23.9c-0.1 13.2-10.8 23.9-23.9 23.9z m259.7 0c-13.2 0-23.9-10.7-23.9-23.9s10.7-23.9 23.9-23.9 23.9 10.7 23.9 23.9c-0.1 13.2-10.8 23.9-23.9 23.9zM882.9 331.2c-35 0-63.3 28.3-63.3 63.2v264.7c0 34.9 28.4 63.2 63.3 63.2 35 0 63.3-28.3 63.3-63.2V394.4c0-34.9-28.3-63.2-63.3-63.2z" p-id="1631" fill="#F2E595"></path></svg>