<svg t="1566557772218" class="icon" viewBox="0 0 1024 1024" version="1.1" xmlns="http://www.w3.org/2000/svg" p-id="2620" width="200" height="200"><path d="M894.952065 742.033623c-1.27992 3.83976-21.310668 73.147428-70.523592 144.438972-42.621336 61.500156-86.71458 123.51228-156.278232 124.600213-68.47572 1.215924-90.362352-40.509468-168.501469-40.509468-78.011124 0-102.521592 39.421536-167.221549 41.725392-66.87582 2.687832-118.3926-67.1958-161.077932-128.375977C83.866758 758.544591 16.606962 528.670958 106.841322 374.632585c44.47722-77.11518 124.280232-126.07212 211.186801-127.480032 65.531904-1.215924 127.864008 44.029248 167.669521 44.029248 40.893444 0 116.280732-54.71658 195.827761-46.525092 33.27792 1.407912 126.456096 13.75914 186.484344 100.089744-4.671708 3.1998-111.481032 65.659896-110.265108 192.883945 1.5999 153.526405 135.799513 203.891257 137.207424 204.403225M629.496656 162.357853c35.83776-43.389288 59.452284-103.03356 53.244673-162.293857-51.1968 1.983876-113.656896 33.725892-150.710581 76.923192-32.829948 37.629648-61.692144 98.23386-53.628648 156.790201 56.892444 3.391788 115.384788-29.566152 151.03056-71.419536" fill="#FFF" p-id="2621"></path></svg>