<?xml version="1.0" standalone="no"?><!DOCTYPE svg PUBLIC "-//W3C//DTD SVG 1.1//EN" "http://www.w3.org/Graphics/SVG/1.1/DTD/svg11.dtd"><svg t="1562577802480" class="icon" viewBox="0 0 1024 1024" version="1.1" xmlns="http://www.w3.org/2000/svg" p-id="24583" xmlns:xlink="http://www.w3.org/1999/xlink" width="200" height="200"><defs><style type="text/css"></style></defs><path d="M84.114286 376.685714H365.714286c14.628571 0 29.257143-10.971429 29.257143-29.257143 0-14.628571-10.971429-29.257143-29.257143-29.257142H84.114286c-14.628571 0-29.257143 10.971429-29.257143 29.257142 3.657143 18.285714 14.628571 29.257143 29.257143 29.257143zM658.285714 376.685714h281.6c14.628571 0 29.257143-10.971429 29.257143-29.257143 0-14.628571-10.971429-29.257143-29.257143-29.257142H658.285714c-14.628571 0-29.257143 10.971429-29.257143 29.257142s14.628571 29.257143 29.257143 29.257143z" fill="#96989C" p-id="24584"></path><path d="M877.714286 117.028571H146.285714C91.428571 117.028571 43.885714 164.571429 43.885714 219.428571v585.142858c0 54.857143 43.885714 102.4 102.4 102.4h731.428572c54.857143 0 102.4-43.885714 102.4-102.4V219.428571c0-54.857143-47.542857-102.4-102.4-102.4zM398.628571 175.542857h230.4v332.8l-102.4-58.514286c-7.314286-3.657143-18.285714-3.657143-25.6 0l-102.4 58.514286V175.542857zM921.6 804.571429c0 25.6-21.942857 43.885714-43.885714 43.885714H146.285714c-25.6 0-43.885714-21.942857-43.885714-43.885714V219.428571c0-25.6 21.942857-43.885714 43.885714-43.885714h197.485715v380.342857c0 21.942857 21.942857 32.914286 40.228571 25.6l128-73.142857 128 73.142857c18.285714 10.971429 40.228571-3.657143 40.228571-25.6V175.542857H877.714286c25.6 0 43.885714 21.942857 43.885714 43.885714v585.142858z" fill="#272636" p-id="24585"></path></svg>