<?xml version="1.0" encoding="UTF-8"?>
<svg width="72px" height="72px" viewBox="0 0 72 72" version="1.1" xmlns="http://www.w3.org/2000/svg" xmlns:xlink="http://www.w3.org/1999/xlink">
    <!-- Generator: Sketch 52.3 (67297) - http://www.bohemiancoding.com/sketch -->
    <title>订单信息 copy 9</title>
    <desc>Created with Sketch.</desc>
    <g id="Page-1" stroke="none" stroke-width="1" fill="none" fill-rule="evenodd">
        <g id="我的" transform="translate(-96.000000, -1392.000000)" fill-rule="nonzero">
            <g id="分组-10-copy" transform="translate(96.000000, 1392.000000)">
                <g id="订单信息-copy-9">
                    <g id="商家入驻">
                        <circle id="椭圆形-copy-4" fill="#C67CFF" cx="36" cy="36" r="36"></circle>
                        <path d="M31.0654736,51.053869 L21.1134876,51.053869 C20.3866484,51.0816764 19.7726201,50.5264652 19.7367962,49.8090492 L19.7367962,19.8023407 C19.7410167,19.4489848 19.8895882,19.1122921 20.1487994,18.8686585 C20.4080107,18.6250248 20.7558844,18.4951069 21.1134876,18.5083833 L47.2042776,18.5083833 C47.9311168,18.4805758 48.5451451,19.035787 48.580969,19.753203 L48.580969,30.3833089 C48.580969,31.1341258 49.1973348,31.7427831 49.9576604,31.7427831 C50.7179861,31.7427831 51.3343518,31.1341258 51.3343518,30.3833089 L51.3343518,19.753203 C51.2356491,17.6010779 49.4011911,15.9283474 47.2208643,16.0023645 L21.1134876,16.0023645 C18.9331607,15.9283474 17.0987027,17.6010779 17,19.753203 L17,49.7599116 C17.0346118,50.802677 17.4875897,51.7890823 18.2591497,52.5018375 C19.0307097,53.2145927 20.0575551,53.5952253 21.1134876,53.5598878 L31.0654736,53.5598878 C31.5534403,53.6150704 32.0302201,53.3890412 32.2917835,52.9785254 C32.5533468,52.5680095 32.5533468,52.0457472 32.2917835,51.6352314 C32.0302201,51.2247155 31.5534403,50.9986863 31.0654736,51.053869 Z M44.0362287,22.9143901 L23.468791,22.9143901 C22.9808243,22.8592075 22.5040445,23.0852367 22.2424811,23.4957525 C21.9809178,23.9062684 21.9809178,24.4285307 22.2424811,24.8390465 C22.5040445,25.2495624 22.9808243,25.4755916 23.468791,25.4204089 L44.069402,25.4204089 C44.5573687,25.4755916 45.0341485,25.2495624 45.2957119,24.8390465 C45.5572752,24.4285307 45.5572752,23.9062684 45.2957119,23.4957525 C45.0341485,23.0852367 44.5573687,22.8592075 44.069402,22.9143901 L44.0362287,22.9143901 Z M44.0362287,29.1712475 L23.468791,29.1712475 C22.9808243,29.1160648 22.5040445,29.3420941 22.2424811,29.7526099 C21.9809178,30.1631257 21.9809178,30.6853881 22.2424811,31.0959039 C22.5040445,31.5064197 22.9808243,31.7324489 23.468791,31.6772663 L44.069402,31.6772663 C44.5573687,31.7324489 45.0341485,31.5064197 45.2957119,31.0959039 C45.5572752,30.6853881 45.5572752,30.1631257 45.2957119,29.7526099 C45.0341485,29.3420941 44.5573687,29.1160648 44.069402,29.1712475 L44.0362287,29.1712475 Z M36.0414666,35.4281048 L23.4522043,35.4281048 C22.9642376,35.3729222 22.4874578,35.5989514 22.2258945,36.0094672 C21.9643311,36.419983 21.9643311,36.9422454 22.2258945,37.3527612 C22.4874578,37.763277 22.9642376,37.9893063 23.4522043,37.9341236 L36.0414666,37.9341236 C36.5294333,37.9893063 37.0062131,37.763277 37.2677765,37.3527612 C37.5293398,36.9422454 37.5293398,36.419983 37.2677765,36.0094672 C37.0062131,35.5989514 36.5294333,35.3729222 36.0414666,35.4281048 Z M52.7773898,54.7064323 L39.3587953,54.7064323 C38.7175568,54.7064323 38.1977302,55.2197578 38.1977302,55.8529768 C38.1977302,56.4861959 38.7175568,56.9995214 39.3587953,56.9995214 L52.7276299,56.9995214 C53.3993491,57.017991 53.9612327,56.4996381 53.9882148,55.8365976 C53.9524671,55.1824875 53.3903871,54.6785601 52.7276299,54.7064323 L52.7773898,54.7064323 Z M52.4290703,45.7306265 L49.8083806,45.7306265 C49.4600611,44.9935621 49.8913139,43.6177087 51.0026189,41.9961671 C51.6195828,41.0111844 51.9522396,39.8784378 51.9646443,38.7203256 C51.9217951,37.2080635 51.2649036,35.7763464 50.1418097,34.747396 C49.0187157,33.7184457 47.5237802,33.178713 45.9934527,33.2496702 C44.475922,33.1877216 42.996309,33.7275465 41.8840997,34.7489346 C40.7718904,35.7703226 40.1194336,37.1884661 40.072021,38.6875672 C40.0801625,39.8462963 40.4131465,40.9801571 41.0340463,41.9634087 C41.0255435,42.0066831 41.0255435,42.051168 41.0340463,42.0944424 C42.1287648,43.7323631 42.5600175,45.0754582 42.2282846,45.8289017 L39.5910083,45.8289017 C38.8974824,45.8113267 38.2255234,46.0677503 37.7241875,46.5412917 C37.2228517,47.0148331 36.9335868,47.6663425 36.9205587,48.3512997 L36.9205587,52.3805848 C36.9334555,52.6630532 37.0596111,52.928853 37.2712009,53.1193604 C37.4827908,53.3098679 37.7624329,53.4094329 38.0484505,53.3960957 L53.9052816,53.3960957 C54.4854421,53.4146244 54.9730941,52.9695523 55,52.396964 L55,48.3512997 C54.9869719,47.6663425 54.697707,47.0148332 54.1963712,46.5412917 C53.6950353,46.0677503 53.0230763,45.8113267 52.3295504,45.8289017 L52.4290703,45.7306265 Z M52.62811,50.9883522 L39.4914884,50.9883522 L39.4914884,48.2530245 C39.4868387,48.1981213 39.5057377,48.1438116 39.5435807,48.1033278 C39.5814237,48.0628439 39.6347359,48.0399031 39.6905282,48.0400947 L43.4225229,48.0400947 L43.5883894,47.9090611 C45.51244,46.4676908 45.3963335,43.9452928 43.2732431,40.8004849 C42.8508746,40.1546474 42.6156838,39.4069175 42.5931908,38.6384295 C42.8040773,36.9012732 44.2963405,35.5937761 46.0680926,35.5937761 C47.8398446,35.5937761 49.3321078,36.9012732 49.5429944,38.6384295 C49.5274724,39.4080481 49.2917035,40.1576159 48.862942,40.8004849 C46.7398516,43.9452928 46.6403317,46.4676908 48.5477957,47.9090611 L48.7136622,48.0400947 L52.4290703,48.0400947 C52.4848625,48.0399031 52.5381748,48.0628439 52.5760178,48.1033278 C52.6138608,48.1438116 52.6327597,48.1981213 52.62811,48.2530245 L52.62811,50.9883522 Z M32.3094719,41.7013414 L23.4522043,41.7013414 C22.9642376,41.6461587 22.4874578,41.872188 22.2258945,42.2827038 C21.9643311,42.6932196 21.9643311,43.215482 22.2258945,43.6259978 C22.4874578,44.0365136 22.9642376,44.2625428 23.4522043,44.2073602 L32.3094719,44.2073602 C32.7974385,44.2625428 33.2742183,44.0365136 33.5357817,43.6259978 C33.7973451,43.215482 33.7973451,42.6932196 33.5357817,42.2827038 C33.2742183,41.872188 32.7974385,41.6461587 32.3094719,41.7013414 Z" id="形状" fill="#FFFFFF"></path>
                    </g>
                </g>
            </g>
        </g>
    </g>
</svg>