<svg t="1563177387331" class="icon" viewBox="0 0 1024 1024" version="1.1" xmlns="http://www.w3.org/2000/svg" p-id="10346" width="200" height="200"><path d="M29.696 512C29.696 245.248 245.76 29.184 512 29.184s482.304 216.064 482.304 482.304V512A481.792 481.792 0 0 1 512 994.304C245.248 994.304 29.696 778.24 29.696 512z m514.56 0l168.448-168.448a21.922909 21.922909 0 0 0 0-31.232l-1.024-1.024a21.922909 21.922909 0 0 0-31.232 0L512 480.256l-168.448-168.96a21.922909 21.922909 0 0 0-31.232 0l-1.024 1.024a21.922909 21.922909 0 0 0 0 31.232l168.448 168.96-168.448 168.448a21.922909 21.922909 0 0 0 0 31.232l1.024 1.024a21.922909 21.922909 0 0 0 31.232 0L512 544.768l168.448 168.448a21.922909 21.922909 0 0 0 31.232 0l1.024-1.024a21.922909 21.922909 0 0 0 0-31.232L544.256 512z" fill="#D8D8D8" p-id="10347"></path></svg>