<?xml version="1.0" standalone="no"?><!DOCTYPE svg PUBLIC "-//W3C//DTD SVG 1.1//EN" "http://www.w3.org/Graphics/SVG/1.1/DTD/svg11.dtd"><svg t="1562753973695" class="icon" viewBox="0 0 1024 1024" version="1.1" xmlns="http://www.w3.org/2000/svg" p-id="23479" xmlns:xlink="http://www.w3.org/1999/xlink" width="200" height="200"><defs><style type="text/css"></style></defs><path d="M512 0a512 512 0 1 0 0 1024A512 512 0 0 0 512 0z m257.462857 390.217143L487.131429 668.452571a29.037714 29.037714 0 0 1-40.521143-0.219428L283.940571 507.904a28.013714 28.013714 0 0 1-0.146285-39.936c11.117714-10.971429 29.257143-10.898286 40.448 0.146286l142.336 140.361143 262.070857-258.413715a29.184 29.184 0 0 1 40.594286 0.219429 28.013714 28.013714 0 0 1 0.219428 39.936z" fill="#D8182D" p-id="23480"></path></svg>