<?xml version="1.0" encoding="UTF-8"?>
<svg width="64px" height="64px" viewBox="0 0 64 64" version="1.1" xmlns="http://www.w3.org/2000/svg" xmlns:xlink="http://www.w3.org/1999/xlink">
    <!-- Generator: Sketch 52.3 (67297) - http://www.bohemiancoding.com/sketch -->
    <title>分组 5</title>
    <desc>Created with Sketch.</desc>
    <defs>
        <circle id="path-1" cx="30" cy="30" r="30"></circle>
    </defs>
    <g id="Page-1" stroke="none" stroke-width="1" fill="none" fill-rule="evenodd">
        <g id="查看物流" transform="translate(-159.000000, -879.000000)">
            <g id="Group" transform="translate(48.000000, 594.000000)">
                <g id="分组-5" transform="translate(111.000000, 285.000000)">
                    <path d="M31.7791165,35.3333333 L32.3212851,35.3333333 C37.4718876,35.3333333 41.5381526,31.2708333 41.5381526,26.125 L41.5381526,22.875 L43.9779116,22.875 C44.7911647,22.875 45.3333333,22.3333333 45.3333333,21.5208333 C45.3333333,20.7083333 44.7911647,20.1666667 43.9779116,20.1666667 L40.9959839,20.1666667 C40.1827309,16.375 36.6586345,13.6666667 32.5923695,13.6666667 L31.7791165,13.6666667 C26.8995984,13.6666667 22.8333333,17.7291667 22.8333333,22.875 L22.8333333,26.125 C22.8333333,31.2708333 26.8995984,35.3333333 31.7791165,35.3333333 Z M39.0983936,26.125 C39.0983936,29.6458333 36.1164659,32.625 32.5923695,32.625 L31.7791165,32.625 C28.2550201,32.625 25.5441767,29.6458333 25.5441767,26.125 L25.5441767,22.875 L39.0983936,22.875 L39.0983936,26.125 Z M31.7791165,16.375 L32.3212851,16.375 C35.0321285,16.375 37.2008032,18 38.2851406,20.1666667 L26.0863454,20.1666667 C26.8995984,18 29.3393574,16.375 31.7791165,16.375 Z" id="形状" fill="#949497" fill-rule="nonzero"></path>
                    <path d="M46.4565217,38.3336607 C46.4565217,38.0606181 46.1811594,37.5145327 45.9057971,37.5145327 L41.5,34.7841059 C40.9492754,34.5110632 40.1231884,34.5110632 39.5724638,35.3301913 C39.2971014,35.8762766 39.2971014,36.6954047 40.1231884,37.24149 L43.9782609,39.6988741 L45.0797101,47.6171118 C45.0797101,48.1631972 44.5289855,48.7092826 43.7028986,48.7092826 L20.0217391,48.7092826 C19.1956522,48.7092826 18.6449275,48.1631972 18.6449275,47.6171118 L19.7463768,39.6988741 L23.6014493,37.24149 C24.1521739,36.9684474 24.4275362,35.8762766 24.1521739,35.3301913 C23.8768116,34.5110632 23.0507246,34.2380206 22.5,34.7841059 L18.0942029,37.5145327 C17.8188406,37.7875754 17.5434783,38.0606181 17.5434783,38.3336607 L16.1666667,47.0710265 C16.1666667,49.2553679 18.0942029,51.1666667 20.2971014,51.1666667 L43.7028986,51.1666667 C45.9057971,51.1666667 47.8333333,49.2553679 47.8333333,47.0710265 L46.4565217,38.3336607 Z" id="路径" fill="#949497"></path>
                    <g id="Imported-Layers-2" transform="translate(2.000000, 2.000000)">
                        <mask id="mask-2" fill="white">
                            <use xlink:href="#path-1"></use>
                        </mask>
                        <use id="矩形" stroke="#979797" stroke-width="3" xlink:href="#path-1"></use>
                    </g>
                </g>
            </g>
        </g>
    </g>
</svg>