<?xml version="1.0" standalone="no"?><!DOCTYPE svg PUBLIC "-//W3C//DTD SVG 1.1//EN" "http://www.w3.org/Graphics/SVG/1.1/DTD/svg11.dtd"><svg t="1562753731227" class="icon" viewBox="0 0 1024 1024" version="1.1" xmlns="http://www.w3.org/2000/svg" p-id="21994" xmlns:xlink="http://www.w3.org/1999/xlink" width="200" height="200"><defs><style type="text/css"></style></defs><path d="M512 993.882353c266.134588 0 481.882353-215.747765 481.882353-481.882353S778.134588 30.117647 512 30.117647 30.117647 245.865412 30.117647 512s215.747765 481.882353 481.882353 481.882353z m0 30.117647C229.225412 1024 0 794.774588 0 512S229.225412 0 512 0s512 229.225412 512 512-229.225412 512-512 512z" fill="#CFCFCF" p-id="21995"></path><path d="M678.912 530.296471a48.444235 48.444235 0 1 1-0.015059-96.873412 48.444235 48.444235 0 0 1 0 96.873412z m0-30.117647a18.326588 18.326588 0 1 0 0-36.653177 18.326588 18.326588 0 0 0 0 36.653177z m-333.808941 30.117647a48.444235 48.444235 0 1 1-0.015059-96.873412 48.444235 48.444235 0 0 1 0 96.873412z m0-30.117647a18.326588 18.326588 0 1 0 0-36.653177 18.326588 18.326588 0 0 0 0 36.653177z" fill="#979797" p-id="21996"></path><path d="M512 836.156235c156.702118 0 213.202824-18.221176 213.202824-83.230117 0-62.102588-55.386353-116.615529-134.580706-138.767059-24.274824-6.776471-50.793412 37.150118-78.637177 37.150117-27.979294 0-54.633412-43.911529-78.998588-37.044705-78.998588 22.226824-134.204235 76.664471-134.204235 138.691764 0 64.963765 56.515765 83.2 213.217882 83.2z" fill="#D8D8D8" p-id="21997"></path><path d="M512 641.385412c89.569882 0 164.111059-96.903529 164.111059-218.232471v-8.417882c0.060235-88.018824-3.388235-121.434353-20.419765-152.274824-21.082353-38.174118-64.256-57.524706-143.691294-57.524706s-122.624 19.365647-143.691294 57.524706c-17.031529 30.840471-20.48 64.256-20.419765 152.274824v8.432941c0 121.313882 74.541176 218.217412 164.111059 218.217412z" fill="#FFFFFF" p-id="21998"></path><path d="M393.155765 602.458353c-38.776471-42.676706-63.111529-105.833412-63.11153-175.887059v-7.785412c-0.060235-87.115294 3.403294-120.606118 22.648471-155.467294 25.524706-46.230588 75.836235-68.788706 159.322353-68.788706s133.797647 22.558118 159.322353 68.788706c19.245176 34.861176 22.708706 68.367059 22.64847 155.467294v7.770353c0 70.068706-24.335059 133.225412-63.111529 175.902118 67.584 29.711059 113.182118 84.133647 113.182118 147.471059 0 47.781647-25.976471 78.185412-73.984 93.680941-36.291765 11.715765-81.272471 15.269647-158.042353 15.269647s-121.750588-3.553882-158.042353-15.269647c-48.007529-15.495529-73.984-45.899294-73.984-93.665882-0.030118-63.352471 45.568-117.790118 113.152-147.486118z m24.335059 22.588235c-64.150588 23.973647-107.399529 71.454118-107.39953 124.882824 0 61.560471 53.504 78.817882 201.908706 78.817882s201.908706-17.257412 201.908706-78.817882c0-53.413647-43.264-100.894118-107.39953-124.882824-27.452235 21.263059-59.753412 33.551059-94.509176 33.551059s-67.056941-12.288-94.509176-33.566118z m94.524235 3.418353c82.868706 0 151.838118-89.660235 151.838117-201.908706v-7.80047c0.060235-81.438118-3.132235-112.338824-18.898823-140.890353-19.501176-35.312941-59.452235-53.232941-132.969412-53.232941s-113.438118 17.92-132.939294 53.232941c-15.751529 28.536471-18.974118 59.452235-18.898823 140.890353v7.80047c0 112.248471 68.999529 201.908706 151.868235 201.908706z m-65.144471-101.767529a15.058824 15.058824 0 0 1 30.117647 0c0 23.220706 12.950588 35.011765 35.011765 35.011764 21.428706 0 35.011765-12.634353 35.011765-35.011764a15.058824 15.058824 0 0 1 30.117647 0c0 39.514353-27.527529 65.129412-65.129412 65.129412-38.098824 0-65.129412-24.621176-65.129412-65.129412zM512 212.585412c-26.217412 0-47.465412 26.217412-47.465412 0a47.465412 47.465412 0 1 1 94.930824 0c0 26.217412-21.248 0-47.465412 0z" fill="#979797" p-id="21999"></path><path d="M515.011765 362.586353c47.947294 0 81.076706 9.562353 118.121411 29.334588-0.346353-0.180706 24.576 13.598118 30.930824 16.655059 2.936471 1.415529 5.677176 2.635294 8.312471 3.689412 18.507294 7.378824 27.858824 4.412235 27.858823-2.409412 0-40.854588-85.383529-85.142588-185.223529-85.142588-95.924706 0-185.223529 48.263529-185.22353 85.142588 0 2.529882 6.324706 5.315765 16.414118 2.063059 5.647059-1.807059 12.001882-4.502588 21.473882-8.990118l6.324706-3.011765 6.746353-3.252705c5.677176-2.710588 10.119529-4.803765 14.652235-6.851765 39.755294-17.92 75.504941-27.226353 119.627295-27.226353z" fill="#D8D8D8" p-id="22000"></path><path d="M515.011765 392.914824c-39.318588 0-71.047529 8.237176-107.218824 24.576-4.291765 1.957647-8.553412 3.930353-14.049882 6.565647l-13.206588 6.324705c-10.556235 4.999529-17.92 8.131765-25.118118 10.420706-27.105882 8.734118-55.747765-3.900235-55.747765-30.72 0-58.533647 104.96-115.275294 215.341177-115.275294 114.296471 0 215.341176 52.404706 215.341176 115.260236 0 33.761882-33.837176 44.438588-69.135059 30.388705a147.440941 147.440941 0 0 1-10.285176-4.562823c-7.228235-3.493647-33.024-17.754353-32-17.212235-32.933647-17.558588-61.349647-25.750588-103.905882-25.750589z m0-30.117648c47.947294 0 81.076706 9.562353 118.121411 29.334589-0.346353-0.180706 24.576 13.598118 30.930824 16.655059 2.936471 1.415529 5.677176 2.635294 8.312471 3.689411 18.507294 7.378824 27.858824 4.412235 27.858823-2.409411 0-40.854588-85.383529-85.142588-185.223529-85.142589-95.924706 0-185.223529 48.263529-185.22353 85.142589 0 2.529882 6.324706 5.315765 16.414118 2.063058 5.647059-1.807059 12.001882-4.502588 21.473882-8.990117l6.324706-3.011765 6.746353-3.252706c5.677176-2.710588 10.119529-4.803765 14.652235-6.851765 39.755294-17.92 75.504941-27.226353 119.627295-27.226353z" fill="#979797" p-id="22001"></path><path d="M432.489412 772.517647l17.167059-28.988235h124.385882l17.573647 29.168941L587.294118 757.157647v43.745882l30.117647-30.117647H406.588235l30.117647 30.117647V757.157647l-4.21647 15.36z m4.21647 53.157647v-24.771765h150.588236v24.771765c-16.143059 1.536-40.824471 2.484706-75.294118 2.484706s-59.136-0.948706-75.294118-2.484706z" fill="#FFFFFF" p-id="22002"></path><path d="M496.941176 770.785882V731.407059h30.117648v39.378823h90.352941v78.787765s-0.527059 8.704-105.411765 8.704-105.411765-8.704-105.411765-8.704v-78.787765h90.352941z m0 30.117647h-60.235294v24.771765c13.688471 1.310118 33.520941 2.183529 60.235294 2.409412v-27.181177z m30.117648 0v27.196236c26.714353-0.240941 46.531765-1.114353 60.235294-2.409412v-24.771765h-60.235294zM432.489412 772.517647L436.705882 757.157647v43.745882l-30.117647-30.117647h210.82353l-30.117647 30.117647V757.157647l4.321882 15.540706-17.573647-29.168941h-124.385882L432.489412 772.517647z m0-59.075765h158.569412L617.411765 757.172706v43.745882H406.588235v-43.745882l25.901177-43.745882z" fill="#979797" p-id="22003"></path></svg>