<svg xmlns="http://www.w3.org/2000/svg" xmlns:xlink="http://www.w3.org/1999/xlink" width="72" height="72" viewBox="0 0 72 72">
  <defs>
    <style>
      .cls-1 {
        fill: #fff;
      }

      .cls-2 {
        clip-path: url(#clip-path);
      }
    </style>
    <clipPath id="clip-path">
      <rect id="矩形_57" data-name="矩形 57" class="cls-1" width="72" height="72" transform="translate(981 174)"/>
    </clipPath>
  </defs>
  <g id="蒙版组_1" data-name="蒙版组 1" class="cls-2" transform="translate(-981 -174)">
    <path id="客服_2_" data-name="客服 (2)" class="cls-1" d="M81.314,51.187a27,27,0,0,0-53.843,0A11.252,11.252,0,0,0,18.4,62.212v4.505A11.257,11.257,0,0,0,29.649,77.966h6.743v-27H32.006a22.507,22.507,0,0,1,44.787-.015H72.407V77.966h4.386A20.63,20.63,0,0,1,56.652,94.094a21.263,21.263,0,0,1-4.506-.492A1.939,1.939,0,0,0,50.1,95.316c-.281,1.841,2.051,2.493,2.051,2.493A24.81,24.81,0,0,0,81.015,77.8a26.114,26.114,0,0,0,.388-4.341H76.9V55.469h3.372c3.1,0,5.624,3.357,5.624,7.49v3.014c0,4.147-2.521,7.49-5.624,7.49h1.119A24.483,24.483,0,0,1,81,77.8a11.259,11.259,0,0,0,9.384-11.1v-4.49a11.223,11.223,0,0,0-9.071-11.025h0ZM28.53,55.468H31.9V73.461H28.53c-3.1,0-5.624-3.357-5.624-7.49V62.958c-.015-4.147,2.506-7.49,5.624-7.49h0Zm-.2-2.257s-10.244,6.055-8.332,12.2,9.789,11.018,12.657,10.836S34.29,53.211,34.29,53.211H28.325Zm46.562,0V75.839S84.9,75.9,86.178,72.5s2.185-12.323.85-14.266-6.01-7.619-12.141-5.023Z" transform="translate(962.608 147.788)"/>
  </g>
</svg>
