<svg t="1562815230573" class="icon" viewBox="0 0 1024 1024" version="1.1" xmlns="http://www.w3.org/2000/svg" p-id="57858" width="1000" height="1000"><path d="M221.503546 682.666667H628.198582s14.524823-7.262411 14.524822-29.049646c0-14.524823-14.524823-29.049645-14.524822-29.049645H214.241135c-43.574468 0-72.624113-7.262411-94.411348-36.312057-7.262411-7.262411-14.524823-21.787234-14.524822-36.312057L54.468085 363.120567c-7.262411-36.312057 0-43.574468 14.524823-58.09929 14.524823-14.524823 58.099291-14.524823 58.099291-14.524823h559.205673s14.524823-7.262411 14.524823-29.049645c0-14.524823-14.524823-21.787234-14.524823-21.787235H127.092199c-7.262411 0-58.099291-7.262411-94.411348 29.049646-21.787234 21.787234-29.049645 50.836879-21.787234 79.886525C10.893617 363.120567 68.992908 580.992908 90.780142 617.304965c21.787234 36.312057 50.836879 65.361702 130.723404 65.361702m-14.524823 283.234042c29.049645 0 43.574468-21.787234 43.574468-43.574468 0-29.049645-21.787234-43.574468-43.574468-43.574468-29.049645 0-43.574468 21.787234-43.574468 43.574468s21.787234 43.574468 43.574468 43.574468m0-145.248227c50.836879 0 101.673759 43.574468 101.673759 101.673759 0 58.099291-43.574468 101.673759-101.673759 101.673759-50.836879 0-101.673759-43.574468-101.673758-101.673759 7.262411-58.099291 50.836879-101.673759 101.673758-101.673759" p-id="57859" fill="#949497"></path><path d="M388.539007 24.982695c0-14.524823-7.262411-21.787234-21.787234-21.787234h-7.262411c-14.524823 0-21.787234 7.262411-21.787234 21.787234v108.93617c0 14.524823 7.262411 21.787234 21.787234 21.787234H366.751773c14.524823 0 21.787234-7.262411 21.787234-21.787234v-108.93617z m-254.184397 36.312057c-7.262411-14.524823 0-21.787234 14.524823-29.049646h7.262411c14.524823-7.262411 21.787234 0 29.049645 14.524823l36.312057 94.411348c7.262411 14.524823 0 21.787234-14.524823 29.049645h-7.262411c-14.524823 7.262411-21.787234 0-29.049645-14.524823l-36.312057-94.411347z m472.056738 0c7.262411-14.524823 0-21.787234-14.524823-29.049646H584.624113c-14.524823-7.262411-21.787234 0-29.049645 14.524823l-43.574468 101.673759c-7.262411 14.524823 0 21.787234 14.524823 29.049645h7.262411c14.524823 7.262411 21.787234 0 29.049645-14.524822l43.574469-101.673759z m21.787234 856.964539c0-29.049645-21.787234-43.574468-43.574469-43.574468s-43.574468 21.787234-43.574468 43.574468c0 29.049645 21.787234 43.574468 43.574468 43.574468s43.574468-21.787234 43.574469-43.574468z m50.836879 0c0 58.099291-43.574468 101.673759-101.673759 101.673759s-101.673759-43.574468-101.673759-101.673759c0-58.099291 43.574468-101.673759 101.673759-101.673759s101.673759 43.574468 101.673759 101.673759z m72.624113-167.035461c14.524823-21.787234 21.787234-50.836879 21.787235-65.361702l87.148936-428.48227c0-14.524823 14.524823-29.049645 29.049645-36.312057 21.787234-14.524823 101.673759-7.262411 116.198582-7.262411 0 0 7.262411-7.262411 7.262411-21.787234 0-21.787234-7.262411-29.049645-7.262411-29.049645h-50.83688c-50.836879 0-79.886525 0-108.93617 21.787234-36.312057 21.787234-36.312057 58.099291-43.574468 87.148936l-87.148936 428.482269v7.262412c0 7.262411-7.262411 7.262411-7.262412 14.524822-7.262411 7.262411-14.524823 7.262411-21.787234 7.262412H134.35461c-14.524823 0-21.787234 14.524823-21.787234 21.787234 0 14.524823 14.524823 21.787234 21.787234 21.787234h551.943262c36.312057 7.262411 50.836879-7.262411 65.361702-21.787234z" p-id="57860" fill="#949497"></path></svg>