<svg t="1567149183465" class="icon" viewBox="0 0 1024 1024" version="1.1" xmlns="http://www.w3.org/2000/svg" p-id="30353" width="200" height="200"><path d="M513.365333 62.122667A450.013867 450.013867 0 0 0 62.122667 513.365333a450.013867 450.013867 0 0 0 451.242666 451.3792 450.013867 450.013867 0 0 0 451.3792-451.310933A450.013867 450.013867 0 0 0 513.365333 62.122667z m0 693.384533c-24.576 0-49.152-24.576-49.152-49.220267s24.576-49.288533 49.152-49.288533c24.644267 0 49.288533 20.48 49.288534 49.288533 0 24.576-24.576 49.152-49.220267 49.152z m41.096534-188.757333c0 32.836267-12.288 57.480533-41.028267 57.480533-28.672 0-41.028267-24.644267-41.028267-57.480533l-16.384-237.9776c0-32.768 24.576-57.412267 53.248-57.412267 28.740267 0 57.480533 24.576 57.480534 57.412267l-12.288 237.9776z" p-id="30354" fill="#E96258"></path></svg>