<svg t="1567148666093" class="icon" viewBox="0 0 1024 1024" version="1.1" xmlns="http://www.w3.org/2000/svg" p-id="29003" width="200" height="200"><path d="M511.997442 64.303538c-247.25636 0-447.694415 200.438055-447.694415 447.695439 0 159.947875 85.330434 307.74092 223.849254 387.715369 138.51575 79.975473 309.179688 79.975473 447.695438 0 138.513704-79.973426 223.848231-227.767494 223.848231-387.715369 0-247.257383-200.441125-447.695438-447.698508-447.695439z m255.157307 308.872697L457.777563 683.796738a23.699772 23.699772 0 0 1-16.650215 6.907317 23.416316 23.416316 0 0 1-16.641006-6.899131L256.840134 515.50687c-4.437056-4.440126-6.871501-10.356882-6.863314-16.645098 0.008186-6.284123 2.474354-12.186554 6.935969-16.619516 8.897647-8.843412 24.410969-8.81476 33.253358 0.074701l150.957107 151.525042L733.857389 339.993484c8.838296-8.896624 24.339338-8.937556 33.245171-0.074701a23.39585 23.39585 0 0 1 6.919597 16.628726 23.369244 23.369244 0 0 1-6.867408 16.628726z" p-id="29004" fill="#91C95B"></path></svg>