<?xml version="1.0" standalone="no"?><!DOCTYPE svg PUBLIC "-//W3C//DTD SVG 1.1//EN" "http://www.w3.org/Graphics/SVG/1.1/DTD/svg11.dtd"><svg t="1562580060215" class="icon" viewBox="0 0 1024 1024" version="1.1" xmlns="http://www.w3.org/2000/svg" p-id="43770" xmlns:xlink="http://www.w3.org/1999/xlink" width="200" height="200"><defs><style type="text/css"></style></defs><path d="M801.510165 671.678239C760.028771 696.944734 740.21578 730.271706 742.028917 771.715523L742.028917 796.047266 704.178495 796.047266 704.178495 769.009908C704.178495 720.346422 728.510239 678.902606 777.178422 644.645578 838.430532 605.019596 866.397945 564.46356 860.991413 522.982165 853.767046 459.907523 815.028844 425.650495 744.734532 420.243963 665.398018 418.468404 616.734532 459.02444 598.739376 541.907376L555.477725 528.388697C578.88411 427.46833 644.701945 379.687927 752.846679 385.094459 846.542679 390.500991 897.024 437.393615 904.248367 525.683083 909.654899 581.575633 875.397872 630.239119 801.510165 671.678239ZM234.862385 295.926606 657.614679 295.926606C665.398018 295.926606 671.706422 302.235009 671.706422 310.018349 671.706422 317.801688 665.398018 324.110092 657.614679 324.110092L234.862385 324.110092C227.079046 324.110092 220.770642 317.801688 220.770642 310.018349 220.770642 302.235009 227.079046 295.926606 234.862385 295.926606ZM234.862385 699.889908 497.494899 699.889908 495.559633 728.073394 234.862385 728.073394C227.079046 728.073394 220.770642 721.764991 220.770642 713.981651 220.770642 706.198312 227.079046 699.889908 234.862385 699.889908ZM234.862385 497.908257 439.220844 497.908257 437.013138 526.091743 234.862385 526.091743C227.079046 526.091743 220.770642 519.783339 220.770642 512 220.770642 504.216661 227.079046 497.908257 234.862385 497.908257ZM770.348624 187.889908C770.348624 151.570789 740.906275 122.12844 704.587156 122.12844L187.889908 122.12844C151.570789 122.12844 122.12844 151.570789 122.12844 187.889908L122.12844 836.110092C122.12844 872.429211 151.570789 901.87156 187.889908 901.87156L554.275229 901.87156 554.275229 930.055046 187.889908 930.055046C136.00411 930.055046 93.944954 887.99589 93.944954 836.110092L93.944954 187.889908C93.944954 136.00411 136.00411 93.944954 187.889908 93.944954L704.587156 93.944954C756.472954 93.944954 798.53211 136.00411 798.53211 187.889908L798.53211 286.53211 770.348624 286.53211 770.348624 187.889908ZM747.43545 931.229358 698.771963 931.229358 698.771963 877.154642 747.43545 877.154642 747.43545 931.229358Z" p-id="43771"></path></svg>