<?xml version="1.0" standalone="no"?><!DOCTYPE svg PUBLIC "-//W3C//DTD SVG 1.1//EN" "http://www.w3.org/Graphics/SVG/1.1/DTD/svg11.dtd"><svg t="1562736120572" class="icon" viewBox="0 0 1024 1024" version="1.1" xmlns="http://www.w3.org/2000/svg" p-id="6991" xmlns:xlink="http://www.w3.org/1999/xlink" width="200" height="200"><defs><style type="text/css"></style></defs><path d="M361.409 861.8c36.509 12.17 48.678-21.297 33.466-33.466-48.678-33.466-73.017-94.313-54.762-149.076 18.254-60.847 66.932-85.186 66.932-176.457 0 0 60.847 45.636 48.678 115.611 60.847-69.974 33.466-161.245 21.297-203.839 155.161 82.144 289.025 261.644 133.864 413.762-18.254 15.211 0 42.593 27.382 33.466 422.889-240.347 103.441-599.347 48.678-641.94 18.254 42.593 21.297 109.525-15.211 142.992-63.891-240.347-219.051-289.025-219.051-289.025 18.254 124.737-69.974 258.602-152.119 362.042-3.042-51.72-6.084-85.186-30.424-130.822-6.084 88.229-76.059 161.245-94.312 252.516-24.339 121.694 18.254 209.923 185.585 304.237v0z" p-id="6992" fill="#D8182D"></path></svg>