<?xml version="1.0" standalone="no"?><!DOCTYPE svg PUBLIC "-//W3C//DTD SVG 1.1//EN" "http://www.w3.org/Graphics/SVG/1.1/DTD/svg11.dtd"><svg t="1562563891910" class="icon" viewBox="0 0 1024 1024" version="1.1" xmlns="http://www.w3.org/2000/svg" p-id="8794" xmlns:xlink="http://www.w3.org/1999/xlink" width="200" height="200"><defs><style type="text/css"></style></defs><path d="M507.448889 682.666667a39.822222 39.822222 0 0 0-30.151111 11.946666 36.977778 36.977778 0 0 0-11.946667 29.582223 39.822222 39.822222 0 0 0 11.946667 30.151111 43.804444 43.804444 0 0 0 60.302222 0 42.666667 42.666667 0 0 0 0-56.888889 40.391111 40.391111 0 0 0-30.151111-14.791111z m10.808889-426.666667A150.755556 150.755556 0 0 0 398.222222 302.648889a162.133333 162.133333 0 0 0-39.822222 117.76h56.888889A128.568889 128.568889 0 0 1 436.906667 341.333333a90.453333 90.453333 0 0 1 78.506666-34.133333 91.022222 91.022222 0 0 1 68.835556 24.462222 92.16 92.16 0 0 1 2.844444 120.604445c-4.551111 5.688889-13.084444 14.222222-23.893333 25.6a284.444444 284.444444 0 0 0-71.111111 79.644444 139.377778 139.377778 0 0 0-12.515556 61.44v15.928889h56.888889v-15.928889a98.417778 98.417778 0 0 1 13.653334-51.2 133.12 133.12 0 0 1 32.995555-38.684444 732.16 732.16 0 0 0 56.888889-56.888889 130.844444 130.844444 0 0 0 25.6-79.644445 127.431111 127.431111 0 0 0-39.822222-98.986666 150.755556 150.755556 0 0 0-107.52-37.546667zM512 1024a512 512 0 1 1 512-512 512 512 0 0 1-512 512z" p-id="8795" fill="#D8182D"></path></svg>