<?xml version="1.0" encoding="UTF-8"?>
<svg width="180px" height="180px" viewBox="0 0 180 180" version="1.1" xmlns="http://www.w3.org/2000/svg" xmlns:xlink="http://www.w3.org/1999/xlink">
    <!-- Generator: Sketch 52.5 (67469) - http://www.bohemiancoding.com/sketch -->
    <title>位图</title>
    <desc>Created with Sketch.</desc>
    <defs>
        <circle id="path-1" cx="90" cy="90" r="90"></circle>
    </defs>
    <g id="页面-1" stroke="none" stroke-width="1" fill="none" fill-rule="evenodd">
        <g id="查看物流非京东" transform="translate(-196.000000, -324.000000)">
            <g id="位图" transform="translate(196.000000, 324.000000)">
                <mask id="mask-2" fill="white">
                    <use xlink:href="#path-1"></use>
                </mask>
                <use id="Mask" fill="#49096C" fill-rule="nonzero" xlink:href="#path-1"></use>
                <path d="M100,48.4995672 C100,60.9265078 89.9264755,71 77.4997836,71 C65.0735245,71 55,60.9263636 55,48.4995672 C55,36.0734922 65.0736687,26 77.4996394,26 C89.9264755,26 100,36.0733479 100,48.4995672 Z M69.9130297,96.4870216 L95.5725691,85.6532663 C97.1420397,84.9902859 99.7572027,84.7754205 101.41299,85.1728353 L102,85.3135894 C100.647038,79.9653653 96.1098253,79.0014871 85.3205394,79.0014871 L61.3371475,79.0014871 C52.5623932,79.0014871 47.8341945,78.7511459 44.9765708,84.7466952 C44.9349897,84.8325839 42.4042793,91.4721548 39.7749214,99.6758196 C38.4600991,103.782535 37.1217619,108.27733 36.0567128,112.615141 C34.9978292,116.982395 34.1752408,121.083797 34.00949,125.001931 L34.0129312,124.909723 L34.0110672,124.951662 C34.0063355,125.086814 34.0000267,125.257586 34.0000267,125.472739 C33.9954384,127.640639 34.5827353,129.677408 35.4100554,131.318342 C37.0016069,134.41723 39.1676943,136.367105 41.4005982,138.051557 C45.3433446,140.935005 49.9533956,143.01874 54.9079961,144.92524 C69.6526461,150.50499 87.5792522,153.793896 87.8214262,153.856948 C88.3390389,153.953609 88.8543575,154 89.3627937,154 C93.3066872,154 96.8169904,151.18894 97.5657366,147.163661 C98.4119832,142.619602 95.4204397,138.249619 90.8836574,137.401934 C90.8836574,137.401934 90.7417082,137.375076 90.4199567,137.312024 C88.0211587,136.849546 76.601561,134.527966 66.2250749,131.160496 C61.0605617,129.499885 56.1309099,127.518125 53.089039,125.728969 C52.0856446,125.15475 51.306788,124.591733 50.8211497,124.189291 C51.0393787,122.264695 51.5567046,119.527172 52.283083,116.612988 C53.3861286,112.114746 54.9266359,107.078622 56.3805397,102.662535 C55.0092245,110.919342 53.3303526,122.068501 53.1594401,123.199704 C53.4899952,123.42159 53.8284572,123.631422 54.1741617,123.828789 C56.9447519,125.457514 61.571292,127.365594 66.8926662,129.076187 C67.0402074,129.124015 67.1880353,129.171699 67.3360066,129.218952 C67.1665278,128.791232 67.0716083,128.339526 67.0716083,127.887533 L67.0716083,100.77485 C67.0716083,99.0692844 68.3438458,97.1491403 69.9130297,96.4870216 Z M137.991275,129.021536 C137.989833,129.021536 137.89614,129.018655 137.65614,129.005898 L137.538663,129 C137.49297,129.020576 137.447853,129.04362 137.401582,129.062138 L111.60719,139.409605 C110.02968,140.042785 107.400641,140.247306 105.73578,139.868304 L104,139.472566 C104.011532,139.517833 104.023063,139.564471 104.034595,139.609188 C105.449366,140.108489 106.893255,140.54332 108.371305,140.957576 C114.828228,142.688258 121.87614,143.638438 127.463299,144.226077 C133.035899,144.806721 137.089944,144.98518 137.210592,144.990804 C137.342379,144.997088 137.474314,145.000152 137.606267,144.999994 C142.066076,144.999994 145.782104,141.661261 145.99068,137.379068 C146.207184,132.967249 142.62521,129.227566 137.990987,129.021536 L137.991275,129.021536 Z M92.0200527,119.362395 C91.9473235,119.613476 92.0774444,119.901353 92.3291105,119.975611 C92.6126058,120.05936 92.7519622,119.920334 92.8444816,119.667089 L93,119.129963 L92.6355295,119.022404 C92.3540132,118.955305 92.1162003,119.030563 92.0200527,119.362395 Z M82.839528,114.273178 C82.7890267,114.368648 82.7379606,114.463812 82.6863324,114.558666 C82.6348083,114.652968 82.5866273,114.740123 82.5413963,114.819337 L82,115.730991 L82.9109145,116 L82.939823,114.94322 C82.9493704,114.731277 82.9620234,114.519487 82.9777778,114.307921 L83,114.004963 L82.9834808,114 C82.9390364,114.085368 82.8904621,114.176692 82.839528,114.273178 Z M72.839363,111.273007 C72.7886355,111.368708 72.7377114,111.464211 72.6861974,111.558721 C72.6346834,111.653231 72.586512,111.740197 72.5414864,111.819418 L72,112.730964 L72.9107354,113 L72.9396382,111.943115 C72.9491838,111.731151 72.9618342,111.51934 72.9775855,111.307753 L73,111.004765 L72.9832875,111 C72.939245,111.085377 72.8904837,111.17671 72.839363,111.273007 Z M102,121.495223 L103.845228,122 L104,121.504777 L102.154912,121 L102,121.495223 Z M103.129756,121 L104,121.364857 L103.870244,122 L103,121.635143 L103.129756,121 Z M92.0200527,119.362395 C91.9473235,119.613476 92.0774444,119.901353 92.3291105,119.975611 C92.6126058,120.05936 92.7519622,119.920334 92.8444816,119.667089 L93,119.129963 L92.6355295,119.022404 C92.3540132,118.955305 92.1162003,119.030563 92.0200527,119.362395 Z M72.8395596,111.273007 C72.7886355,111.368708 72.7377114,111.464211 72.6861974,111.558721 C72.6346834,111.653231 72.586512,111.740197 72.5414864,111.819418 L72,112.730964 L72.9107354,113 L72.9396382,111.943115 C72.9491838,111.731151 72.9618342,111.51934 72.9775855,111.307753 L73,111.004765 L72.9832875,111 C72.939245,111.085377 72.8904837,111.17671 72.839363,111.273007 L72.8395596,111.273007 Z M82.839528,114.273178 C82.7890267,114.368648 82.7379606,114.463812 82.6863324,114.558666 C82.6348083,114.652968 82.5866273,114.740123 82.5413963,114.819337 L82,115.730991 L82.9109145,116 L82.939823,114.94322 C82.9493704,114.731277 82.9620234,114.519487 82.9777778,114.307921 L83,114.004963 L82.9834808,114 C82.9390364,114.085368 82.8904621,114.176692 82.839528,114.273178 Z" id="形状" fill="#FFFFFF" fill-rule="nonzero" mask="url(#mask-2)"></path>
                <path d="M135.949988,98.1596141 C137.082234,97.6910511 138,98.2891237 138,99.495455 L138,123.909184 C138,125.11668 137.082234,126.474493 135.949988,126.942765 L112.050012,136.840793 C110.91821,137.308629 110,136.710556 110,135.503352 L110,111.09035 C110,109.884164 110.918358,108.525186 112.050012,108.056624 L135.949988,98.1596141 Z M133.073848,94.6783013 C134.263275,94.9572332 134.313683,95.5616802 133.186653,96.0275107 L110.210277,105.522524 C109.083536,105.988071 107.206018,106.139289 106.016591,105.859508 L73.9261875,98.3215489 C72.7367607,98.0423338 72.6862082,97.4383116 73.8135278,96.9724811 L96.7913474,87.4774678 C97.9179448,87.0117788 99.795607,86.8607025 100.985034,87.1406256 L133.073848,94.6783013 Z M103.923494,108.70103 C105.070541,108.975989 105.999858,110.156311 106,111.337343 L106,135.302491 C106,136.482955 105.070541,137.217267 103.923494,136.942308 L72.0766478,129.299102 C70.9298846,129.023292 70,127.84297 70,126.66279 L70,102.697784 C70,101.517178 70.9298846,100.782156 72.0766478,101.057967 L103.923494,108.70103 Z" id="路径-2" fill="#FF7300" fill-rule="nonzero" mask="url(#mask-2)"></path>
            </g>
        </g>
    </g>
</svg>