<?xml version="1.0" encoding="UTF-8"?>
<svg width="120px" height="120px" viewBox="0 0 120 120" version="1.1" xmlns="http://www.w3.org/2000/svg" xmlns:xlink="http://www.w3.org/1999/xlink">
    <!-- Generator: Sketch 52.3 (67297) - http://www.bohemiancoding.com/sketch -->
    <title>订单信息 copy 10</title>
    <desc>Created with Sketch.</desc>
    <g id="页面啊" stroke="none" stroke-width="1" fill="none" fill-rule="evenodd">
        <g id="消息中心" transform="translate(-108.000000, -387.000000)" fill-rule="nonzero">
            <g id="订单信息-copy-10" transform="translate(108.000000, 387.000000)">
                <g id="消息中心">
                    <circle id="椭圆形-copy-5" fill="#F3CA43" cx="60" cy="60" r="60"></circle>
                    <path d="M93.3333333,86.6666667 C93.3333333,83.9462772 86.8359696,80.7793967 86.6486403,78.158046 C84.6174946,49.7356668 81.9647369,28.3333333 59.9059823,28.3333333 C37.8472277,28.3333333 34.8591808,49.2056941 33.0790296,78.158046 C32.9393948,80.4290639 26.6666667,84.3234058 26.6666667,86.6666667 L93.3333333,86.6666667 Z" id="Path" stroke="#FFFFFF" stroke-width="3"></path>
                    <path d="M65.8969781,27.3344088 C66.3883968,26.637578 66.6666667,25.8431615 66.6666667,25 C66.6666667,22.2385763 63.6818983,20 60,20 C56.3181017,20 53.3333333,22.2385763 53.3333333,25 C53.3333333,25.8779387 53.6350317,26.7030284 54.1649126,27.4201322" id="Path" stroke="#FFFFFF" stroke-width="3"></path>
                    <path d="M48.3333333,86.6666667 C48.3333333,92.1895142 53.5566779,96.6666667 60,96.6666667 C66.4433221,96.6666667 71.6666667,92.1895142 71.6666667,86.6666667" id="Path" stroke="#FFFFFF" stroke-width="3"></path>
                </g>
            </g>
        </g>
    </g>
</svg>