<?xml version="1.0" standalone="no"?><!DOCTYPE svg PUBLIC "-//W3C//DTD SVG 1.1//EN" "http://www.w3.org/Graphics/SVG/1.1/DTD/svg11.dtd"><svg t="1562579842166" class="icon" viewBox="0 0 1069 1024" version="1.1" xmlns="http://www.w3.org/2000/svg" p-id="38615" xmlns:xlink="http://www.w3.org/1999/xlink" width="208.7890625" height="200"><defs><style type="text/css"></style></defs><path d="M499.088696 12.02087c-23.596522 11.575652-37.843478 37.398261-39.624348 72.570434l-1.78087 29.829566-25.377391 8.013913c-48.973913 15.137391-85.036522 37.843478-127.777391 80.13913-44.521739 44.076522-64.556522 75.686957-85.036522 133.565217l-12.466087 35.617392-1.335652 171.853913-1.335652 171.853913-51.2 50.754782L102.4 816.973913V868.173913h868.173913v-46.747826l-50.754783-50.754783-51.2-50.754782-1.335652-169.627826c-1.78087-159.387826-2.671304-171.408696-11.575652-202.128696-32.055652-106.406957-110.413913-189.662609-211.033043-224.389565l-30.274783-10.24v-17.808696c0-37.843478-17.363478-70.344348-44.966957-84.591304-16.473043-8.904348-51.645217-8.45913-70.344347 0.890435zM172.29913 44.521739C112.194783 100.61913 62.330435 174.970435 35.172174 248.876522 20.48 290.281739 5.787826 353.502609 3.561739 389.565217l-1.335652 22.26087h101.954783l4.897391-35.617391C119.318261 306.754783 142.469565 247.54087 182.53913 190.107826c21.370435-31.165217 69.453913-81.474783 93.495653-97.947826l10.685217-7.568696-35.172174-35.617391c-19.589565-19.589565-37.843478-35.617391-40.514783-35.617391-3.116522 0-20.48 13.801739-38.733913 31.165217zM821.426087 48.973913c-20.925217 20.925217-33.391304 36.953043-31.165217 39.17913 2.671304 1.78087 16.918261 14.246957 32.500869 27.158261 71.234783 60.549565 125.551304 162.504348 139.353044 260.897392l5.342608 37.843478h102.4l-3.116521-33.836522c-8.904348-97.947826-53.871304-204.8-118.873044-283.158261C922.490435 66.337391 866.838261 13.356522 860.16 13.356522c-1.78087 0-19.144348 16.027826-38.733913 35.617391zM434.086957 921.154783c-1.335652 2.671304 0 14.246957 3.116521 25.822608 7.568696 31.165217 42.295652 64.556522 73.906087 72.570435 26.267826 6.233043 48.083478 3.561739 72.570435-8.904348 28.93913-15.137391 52.98087-51.2 52.98087-80.13913v-13.356522h-99.728696c-58.323478 0-101.064348 1.78087-102.845217 4.006957z" p-id="38616"></path></svg>