<?xml version="1.0" standalone="no"?><!DOCTYPE svg PUBLIC "-//W3C//DTD SVG 1.1//EN" "http://www.w3.org/Graphics/SVG/1.1/DTD/svg11.dtd"><svg t="1562641095581" class="icon" viewBox="0 0 1024 1024" version="1.1" xmlns="http://www.w3.org/2000/svg" p-id="62179" xmlns:xlink="http://www.w3.org/1999/xlink" width="200" height="200"><defs><style type="text/css"></style></defs><path d="M403.2 441.6c-19.2 0-38.4 19.2-38.4 32 0 19.2 19.2 38.4 38.4 38.4s32-12.8 32-32-19.2-38.4-32-38.4z m224 0c-19.2 0-32 12.8-32 32-6.4 19.2 12.8 38.4 32 38.4s32-12.8 32-32-19.2-38.4-32-38.4z m-115.2 0c-19.2 0-32 12.8-32 32s12.8 38.4 32 38.4 32-12.8 32-32-12.8-38.4-32-38.4zM512 0C230.4 0 0 230.4 0 512s230.4 512 512 512 512-230.4 512-512S793.6 0 512 0z m224 646.4c0 25.6-19.2 44.8-44.8 44.8h-224C403.2 761.6 288 736 288 736c57.6-12.8 64-44.8 64-44.8h-19.2c-25.6 0-44.8-19.2-44.8-44.8v-313.6c0-25.6 19.2-44.8 44.8-44.8h358.4c25.6 0 44.8 19.2 44.8 44.8v313.6z" fill="#FFE100" p-id="62180"></path></svg>