<svg t="1563168954098" class="icon" viewBox="0 0 1024 1024" version="1.1" xmlns="http://www.w3.org/2000/svg" p-id="9435" width="200" height="200"><path d="M630.680769 905.096151H126.326898c-6.436583 0-11.654411-3.760643-11.654411-8.387001v-22.376592c0-4.637614 5.217828-8.396211 11.654411-8.396211h476.658144l27.695727 39.159804z m-392.004285-76.541104c0 5.02647-5.848183 9.101267-13.056338 9.101267h-97.885182c-7.225551 0-13.059408-4.074797-13.059407-9.101267V670.906855c0-5.025447 5.836927-9.101267 13.059407-9.101267h97.886206c7.207131 0 13.055314 4.07582 13.055314 9.101267v157.648192z m158.227381-4.160755c0 7.724923-5.839997 13.990614-13.039964 13.990614h-97.908719c-7.206108 0-13.044058-6.266715-13.044058-13.990614V581.888604c0-7.72697 5.839997-13.982428 13.044058-13.982428h97.908719c7.203038 0 13.039965 6.255458 13.039964 13.982428V824.394292z m167.505681 1.314946c0 10.087732-5.848183 12.674645-13.039965 12.674645h-97.907695c-7.207131 0-13.043035-2.58589-13.043035-12.674645V497.912172c0-10.088756 5.835904-12.673622 13.043035-12.673622h97.907695c7.193828 0 13.039965 2.584866 13.039965 12.673622v327.797066z m42.321813-104.793509V301.270976c0-16.054619 5.849207-15.975824 13.061454-15.975825h97.892345c7.211224 0 13.051221-0.077771 13.051221 15.975825 0 0 1.035584 315.786545 0 328.248343-105.593732 1.385554-124.003997 91.395387-124.003997 91.395387l-0.001023 0.001023z m67.799016-550.823136l-81.830563-101.413535-93.765359 101.413535h71.544309c-16.079178 74.639805-95.875413 323.383555-449.279641 359.91756 0 0 411.043882 44.7583 482.275061-359.91756h71.056193z m78.530408 472.580277c-84.639533 0-153.255147 68.61459-153.255147 153.2531s68.61459 153.255147 153.255147 153.255147c84.63851 0 153.2531-68.61459 153.2531-153.255147 0-84.63851-68.615613-153.2531-153.2531-153.2531z m51.636951 148.999225v17.77684h-36.276133v16.021873h36.276133v17.774793h-36.276133v40.061334h-33.041467v-40.061334h-36.045889v-17.774793h36.045889v-16.021873h-36.045889v-17.77684h27.727449l-37.662709-71.103266h37.662709l16.172299 40.059288c4.157685 10.016101 6.701619 18.524875 9.705016 27.289475h0.462534c3.003398-8.260111 6.007819-17.77684 9.93526-27.541208l16.404589-39.808578h36.969932l-39.509773 71.105312h27.497206l-0.001023-0.001023z" fill="" p-id="9436"></path></svg>