<?xml version="1.0" encoding="UTF-8"?>
<svg width="72px" height="72px" viewBox="0 0 72 72" version="1.1" xmlns="http://www.w3.org/2000/svg" xmlns:xlink="http://www.w3.org/1999/xlink">
    <!-- Generator: Sketch 52.5 (67469) - http://www.bohemiancoding.com/sketch -->
    <title>我的 copy</title>
    <desc>Created with Sketch.</desc>
    <g id="Page-1" stroke="none" stroke-width="1" fill="none" fill-rule="evenodd">
        <g id="我的-copy" transform="translate(-96.000000, -1119.000000)">
            <g id="Group-8" transform="translate(48.000000, 1055.000000)">
                <g id="分组-7" transform="translate(48.000000, 64.000000)">
                    <g id="资产">
                        <g id="分组">
                            <circle id="椭圆形-copy-4" fill="#FFBF44" fill-rule="nonzero" cx="36" cy="36.3012416" r="36"></circle>
                            <path d="M22.7248317,37.1015721 C21.1780122,37.1015721 19.9462856,38.3619435 19.9462856,39.9374078 C19.9462856,41.5128722 21.2066571,42.7732436 22.7248317,42.7732436 C24.2430064,42.7732436 25.5033779,41.5128722 25.5033779,39.9374078 C25.5033779,38.3619435 24.2716513,37.1015721 22.7248317,37.1015721 Z M58.931866,25.1280434 C58.9605108,24.0681856 58.6740628,21.6333771 55.551779,20.7740329 L24.0997824,14.3575965 C21.808198,14.3575965 19.9176408,16.2767984 19.9176408,18.6256725 L19.9176408,24.3259888 L18.5140453,24.3259888 C16.2224609,24.3259888 14.3605485,26.2451908 14.3605485,28.56542 L14.3605485,51.2521061 C14.3605485,53.6009801 16.2224609,55.5201821 18.5426901,55.5201821 L54.7783692,55.5201821 C57.0699536,55.5201821 58.9605108,53.6009801 58.9605108,51.2521061 L58.931866,25.1280434 Z M22.6961869,18.6256725 C22.6961869,17.8809075 23.269083,17.2793666 23.9565584,17.222077 L54.7210796,23.5239342 C54.7210796,23.5239342 54.4919212,24.3259888 53.3747737,24.297344 L22.7248317,24.297344 L22.7248317,18.6256725 L22.6961869,18.6256725 Z M56.1819647,51.2807509 C56.1819647,52.0541607 55.551779,52.7129912 54.7783692,52.7129912 L18.5426901,52.7129912 C17.7692804,52.7129912 17.1390946,52.0828054 17.1390946,51.2807509 L17.1390946,28.56542 C17.1390946,27.7920103 17.7692804,27.1331798 18.5426901,27.1331798 L53.3747737,27.1331798 C54.7497244,27.1331798 56.1819647,26.6462181 56.1819647,25.7295843 L56.1819647,51.2807509 Z" id="形状" fill="#FFFFFF" fill-rule="nonzero"></path>
                        </g>
                    </g>
                </g>
            </g>
        </g>
    </g>
</svg>