<?xml version="1.0" standalone="no"?><!DOCTYPE svg PUBLIC "-//W3C//DTD SVG 1.1//EN" "http://www.w3.org/Graphics/SVG/1.1/DTD/svg11.dtd"><svg t="1562580144285" class="icon" viewBox="0 0 1024 1024" version="1.1" xmlns="http://www.w3.org/2000/svg" p-id="45200" xmlns:xlink="http://www.w3.org/1999/xlink" width="200" height="200"><defs><style type="text/css"></style></defs><path d="M485.595429 683.885714c-32.329143 0-58.514286 26.624-58.514286 59.611429 0 32.914286 26.185143 59.611429 58.514286 59.611428 32.329143 0 58.514286-26.697143 58.514285-59.611428a59.099429 59.099429 0 0 0-58.514285-59.611429z m0-504.905143c-32.402286 0-58.587429 26.770286-58.587429 59.684572v306.102857c0 32.914286 26.185143 59.684571 58.514286 59.684571 32.402286 0 58.514286-26.770286 58.514285-59.684571V238.665143c0-32.914286-26.185143-59.684571-58.514285-59.684572z m447.561142 100.571429c-0.731429-48.493714-1.462857-101.376-1.462857-159.451429a39.789714 39.789714 0 0 0-28.013714-38.034285C769.682286 41.618286 650.166857 17.993143 491.081143 0.365714 489.033143 0.146286 486.985143 0 484.864 0.146286a1311.012571 1311.012571 0 0 0-224.548571 29.988571 2754.56 2754.56 0 0 0-193.974858 51.931429 39.643429 39.643429 0 0 0-27.648 38.034285c0 52.370286-0.585143 100.425143-1.024 145.042286-4.169143 382.829714-5.778286 526.116571 368.128 733.696 31.012571 17.115429 56.100571 24.868571 81.188572 24.868572 24.868571 0 49.810286-7.460571 80.676571-24.210286 372.516571-202.752 370.834286-322.633143 365.494857-719.945143z m-406.381714 617.618286c-17.188571 9.508571-29.549714 13.750857-39.862857 13.750857-10.532571 0-22.454857-4.169143-39.862857-14.043429-302.08-170.422857-301.056-263.972571-297.325714-611.84 0.365714-33.499429 0.731429-69.193143 0.877714-107.300571 46.006857-13.897143 95.085714-26.843429 146.066286-38.765714a1092.169143 1092.169143 0 0 1 189.074285-25.892572c128.365714 14.628571 227.474286 33.718857 334.043429 64.877714 0.219429 43.300571 0.731429 83.382857 1.316571 120.539429 4.827429 358.180571 5.851429 432.64-294.326857 598.674286z" p-id="45201"></path></svg>