<?xml version="1.0" encoding="UTF-8"?>
<svg width="72px" height="73px" viewBox="0 0 72 73" version="1.1" xmlns="http://www.w3.org/2000/svg" xmlns:xlink="http://www.w3.org/1999/xlink">
    <!-- Generator: Sketch 52.5 (67469) - http://www.bohemiancoding.com/sketch -->
    <title>订单信息 copy 5</title>
    <desc>Created with Sketch.</desc>
    <g id="Page-1" stroke="none" stroke-width="1" fill="none" fill-rule="evenodd">
        <g id="我的-copy" transform="translate(-96.000000, -1395.000000)">
            <g id="Group-8" transform="translate(48.000000, 1055.000000)">
                <g id="Group-3" transform="translate(48.000000, 339.566253)">
                    <g id="我的申诉" transform="translate(0.000000, 1.000000)">
                        <circle id="椭圆形-copy-3" fill="#FE4F70" fill-rule="nonzero" cx="36" cy="36" r="36"></circle>
                        <g id="分组-copy" stroke-width="1" fill-rule="evenodd" transform="translate(18.000000, 12.000000)">
                            <path d="M30.2727273,10.5 L6.72727273,10.5 C3.79718005,10.5 1.5,12.496302 1.5,14.8461538 L1.5,41.1538462 C1.5,43.503698 3.79718005,45.5 6.72727273,45.5 L30.2727273,45.5 C33.2028199,45.5 35.5,43.503698 35.5,41.1538462 L35.5,14.8461538 C35.5,12.496302 33.2028199,10.5 30.2727273,10.5 Z" id="路径" stroke="#FFFFFF" stroke-width="3" fill-rule="nonzero"></path>
                            <rect id="矩形" fill="#FFFFFF" fill-rule="nonzero" x="8" y="24" width="18" height="3" rx="1"></rect>
                            <rect id="矩形-copy" fill="#FFFFFF" fill-rule="nonzero" x="8" y="32" width="10" height="3" rx="1"></rect>
                            <path d="M29.9682381,7 L30,7 L30,14 L7,14 L7,7 L7.03176189,7 C7.24916999,5.30385293 8.55632103,4 10.1363636,4 C11.7164062,4 13.0235573,5.30385293 13.2409654,7 L13.3450017,7 C13.2974686,6.67479153 13.2727273,6.34071221 13.2727273,6 C13.2727273,2.6862915 15.613057,0 18.5,0 C21.386943,0 23.7272727,2.6862915 23.7272727,6 C23.7272727,6.34071221 23.7025314,6.67479153 23.6549983,7 L23.7590346,7 C23.9764427,5.30385293 25.2835938,4 26.8636364,4 C28.443679,4 29.75083,5.30385293 29.9682381,7 Z" id="合并形状" stroke="#FFFFFF" stroke-width="3" fill-opacity="0.00738790761" fill="#D8D8D8" fill-rule="nonzero"></path>
                        </g>
                        <circle id="Oval" fill="#FE4F70" fill-rule="nonzero" cx="49" cy="49" r="14"></circle>
                        <circle id="Oval" stroke="#FFFFFF" stroke-width="3" fill-rule="nonzero" cx="49.5" cy="49.5" r="10.5"></circle>
                        <rect id="Rectangle" fill="#FFFFFF" fill-rule="nonzero" x="48" y="43" width="3" height="8"></rect>
                        <circle id="Oval" fill="#FFFFFF" fill-rule="nonzero" cx="49.5" cy="54.5" r="1.5"></circle>
                    </g>
                </g>
            </g>
        </g>
    </g>
</svg>