<?xml version="1.0" encoding="UTF-8"?>
<svg width="72px" height="74px" viewBox="0 0 72 74" version="1.1" xmlns="http://www.w3.org/2000/svg" xmlns:xlink="http://www.w3.org/1999/xlink">
    <!-- Generator: Sketch 52.3 (67297) - http://www.bohemiancoding.com/sketch -->
    <title>订单信息 copy 8</title>
    <desc>Created with Sketch.</desc>
    <g id="Page-1" stroke="none" stroke-width="1" fill="none" fill-rule="evenodd">
        <g id="我的" transform="translate(-96.000000, -1258.000000)">
            <g id="分组-5-copy-2" transform="translate(96.000000, 1258.000000)">
                <g id="订单信息-copy-8">
                    <g id="节点数据" transform="translate(0.000000, 1.000000)">
                        <circle id="椭圆形-copy-3" fill="#D8182D" fill-rule="nonzero" cx="36" cy="36" r="36"></circle>
                        <path d="M52.9934093,25.18 C52.9629129,24.6854521 52.8418343,24.2007291 52.6362107,23.75 C52.5278583,23.4648027 52.3798578,23.1963253 52.1965817,22.9525 C51.4861097,21.8241404 50.2831856,21.0997363 48.9543181,21 L47.7178616,21 C46.7212283,21.286143 45.8258097,21.8486353 45.1350414,22.6225 L45.1350414,22.76 C43.8385753,24.6118702 44.1339117,27.1420825 45.8219617,28.645 L42.3324067,38.6 C41.6055539,38.5386941 40.875465,38.6715495 40.2166923,38.985 L35.0510518,33.76 C35.0510518,33.5675 35.0510518,33.4025 35.2433895,33.21 C35.8530969,30.9941285 34.6560596,28.6818967 32.4957084,27.9025 C31.6018654,27.6180346 30.6418704,27.6180346 29.7480274,27.9025 C28.7813752,28.198887 27.9405057,28.8083064 27.3575448,29.635 C26.1509196,31.3190125 26.3004545,33.6214906 27.7147434,35.135 L24.1977116,45.2 C23.8058014,45.228202 23.4185122,45.3020336 23.0436855,45.42 C21.520212,45.9017066 20.3684945,47.159186 20.0212364,48.72 C19.9929212,49.0126489 19.9929212,49.3073511 20.0212364,49.6 C20.0212364,52.0300529 21.9895223,54 24.4175261,54 C26.8455298,54 28.8138158,52.0300529 28.8138158,49.6 C28.7967757,48.3963758 28.302571,47.248853 27.4399753,46.41 L27.3025912,46.41 L30.7371926,36.4 C31.3450875,36.4322979 31.9531009,36.3386785 32.5231852,36.125 L32.6880461,36.125 L37.9086402,41.4325 C37.8227926,41.6760952 37.7494257,41.9239177 37.6888257,42.175 C37.6364018,42.4469282 37.6088112,42.7230668 37.6063952,43 C37.6063952,45.4300529 39.5746812,47.4 42.002685,47.4 C44.4306887,47.4 46.3989747,45.4300529 46.3989747,43 C46.4051333,42.4124389 46.2832371,41.830597 46.0417761,41.295 C45.8717247,40.8427412 45.6097515,40.4307215 45.2724254,40.085 L48.816934,29.8 L49.3664703,29.8 C51.5625735,29.3891922 53.1141842,27.4127484 52.9934093,25.18 Z" id="路径" fill="#FFFFFF" fill-rule="evenodd"></path>
                    </g>
                </g>
            </g>
        </g>
    </g>
</svg>