<?xml version="1.0" encoding="UTF-8"?>
<svg width="132px" height="132px" viewBox="0 0 132 132" version="1.1" xmlns="http://www.w3.org/2000/svg" xmlns:xlink="http://www.w3.org/1999/xlink">
    <!-- Generator: Sketch 52.5 (67469) - http://www.bohemiancoding.com/sketch -->
    <title>Group 3 Copy 6</title>
    <desc>Created with Sketch.</desc>
    <defs>
        <linearGradient x1="25.6507995%" y1="0%" x2="80.3874739%" y2="100%" id="linearGradient-1">
            <stop stop-color="#90B3FF" offset="0%"></stop>
            <stop stop-color="#4C81F5" offset="100%"></stop>
        </linearGradient>
    </defs>
    <g id="Page-1" stroke="none" stroke-width="1" fill="none" fill-rule="evenodd">
        <g id="我的钱包" transform="translate(-852.000000, -367.000000)">
            <g id="Group-3-Copy-6" transform="translate(852.000000, 367.000000)">
                <circle id="Oval" fill="url(#linearGradient-1)" fill-rule="nonzero" cx="66" cy="66" r="66"></circle>
                <path d="M45.578637,43 L46.211311,43 C48.6062021,43 50.7717212,44.4241764 51.7204422,46.623138 L66.3997379,80.6470588 L66.6671035,80.6470588 L81.282444,46.6313923 C82.229159,44.4280129 84.3969736,43 86.7951292,43 L87.421363,43 C89.9500744,43 92,45.0499256 92,47.578637 L92,87.0897772 C92,89.2493336 90.2493336,91 88.0897772,91 L88.0897772,91 C85.9302208,91 84.1795544,89.2493336 84.1795544,87.0897772 L84.1795544,57.9243697 L83.9121887,57.9243697 L71.1684586,87.9532931 C70.38457,89.8004234 68.5723626,91 66.5657805,91 L66.4342195,91 C64.4276374,91 62.61543,89.8004234 61.8315414,87.9532931 L49.0878113,57.9243697 L48.8204456,57.9243697 L48.8204456,87.0897772 C48.8204456,89.2493336 47.0697792,91 44.9102228,91 L44.9102228,91 C42.7506664,91 41,89.2493336 41,87.0897772 L41,47.578637 C41,45.0499256 43.0499256,43 45.578637,43 Z" id="M" fill="#FFFFFF"></path>
                <path d="M50.578637,48 L51.211311,48 C53.6062021,48 55.7717212,49.4241764 56.7204422,51.623138 L71.3997379,85.6470588 L71.6671035,85.6470588 L86.282444,51.6313923 C87.229159,49.4280129 89.3969736,48 91.7951292,48 L92.421363,48 C94.9500744,48 97,50.0499256 97,52.578637 L97,92.0897772 C97,94.2493336 95.2493336,96 93.0897772,96 L93.0897772,96 C90.9302208,96 89.1795544,94.2493336 89.1795544,92.0897772 L89.1795544,62.9243697 L88.9121887,62.9243697 L76.1684586,92.9532931 C75.38457,94.8004234 73.5723626,96 71.5657805,96 L71.4342195,96 C69.4276374,96 67.61543,94.8004234 66.8315414,92.9532931 L54.0878113,62.9243697 L53.8204456,62.9243697 L53.8204456,92.0897772 C53.8204456,94.2493336 52.0697792,96 49.9102228,96 L49.9102228,96 C47.7506664,96 46,94.2493336 46,92.0897772 L46,52.578637 C46,50.0499256 48.0499256,48 50.578637,48 Z" id="M-Copy" fill="#FFFFFF" opacity="0.100000001"></path>
            </g>
        </g>
    </g>
</svg>