<?xml version="1.0" encoding="UTF-8"?>
<svg width="155px" height="155px" viewBox="0 0 155 155" version="1.1" xmlns="http://www.w3.org/2000/svg" xmlns:xlink="http://www.w3.org/1999/xlink">
    <!-- Generator: Sketch 52.3 (67297) - http://www.bohemiancoding.com/sketch -->
    <title>Group 2</title>
    <desc>Created with Sketch.</desc>
    <g id="Page-1" stroke="none" stroke-width="1" fill="none" fill-rule="evenodd">
        <g id="订单" transform="translate(-110.000000, -184.000000)">
            <g id="Group-2" transform="translate(110.000000, 184.000000)">
                <rect id="Rectangle" fill="#D8D8D8" fill-rule="nonzero" opacity="0" x="0" y="0" width="155" height="155"></rect>
                <g id="Group" transform="translate(2.066667, 5.166667)">
                    <path d="M142.6,144.666667 C142.6,141.813195 140.980763,139.5 138.983333,139.5 C136.985903,139.5 135.366667,141.813195 135.366667,144.666667" id="Path-Copy-2" stroke="#ACACAC" stroke-width="3" stroke-linecap="round"></path>
                    <path d="M0,97.1333333 C5.31043451,97.7045241 8.75487895,101.148969 10.3333333,107.466667" id="Path-5-Copy" stroke="#ACACAC" stroke-width="3" stroke-linecap="round"></path>
                    <path d="M135.366667,41.5327911 C139.707626,40.6760582 141.821168,42.5614945 142.6,47.5333333" id="Shape-Copy" stroke="#ACACAC" stroke-width="3" stroke-linecap="round"></path>
                    <path d="M10.3333333,107.466667 C10.8999786,103.333333 12.2777564,101.266667 14.4666667,101.266667" id="Path-6-Copy-2" stroke="#ACACAC" stroke-width="3" stroke-linecap="round"></path>
                    <path d="M143.702442,48.5666667 C143.185017,40.9840283 145.573092,36.5062505 150.866667,35.1333333" id="Path-6-Copy-3" stroke="#ACACAC" stroke-width="3" stroke-linecap="round"></path>
                    <path d="M37.2,86.8 L44.4333333,98.1666667" id="Path-2-Copy-2" stroke="#ACACAC" stroke-width="3.4" stroke-linecap="round"></path>
                    <path d="M72.3333333,86.8 L78.5333333,98.1666667" id="Path-2-Copy-3" stroke="#ACACAC" stroke-width="3.4" stroke-linecap="round" transform="translate(75.433333, 92.483333) scale(-1, 1) translate(-75.433333, -92.483333) "></path>
                    <path d="M58.3833333,79.5666667 L58.3833333,98.1666667" id="Path-2-Copy-4" stroke="#ACACAC" stroke-width="3.4" stroke-linecap="round"></path>
                    <rect id="Rectangle-Copy-2" fill="#E1E1E7" x="26.8666667" y="25.8333333" width="97.1333333" height="15.5" rx="3"></rect>
                    <path d="M103.876677,10.3333333 L115.113333,10.3333333 C120.591998,10.3333333 125.033333,14.7746686 125.033333,20.2533333 C125.033333,49.3256515 125.033333,69.125931 125.033333,83.66209 M125.033333,92.1866983 C125.033333,94.4964663 125.033333,97.0120991 125.033333,99.7335966 M125.033333,107.328071 C125.033333,110.96738 125.033333,115.791185 125.033333,124.413333 C125.033333,129.891998 120.591998,134.333333 115.113333,134.333333 L35.7533333,134.333333 C30.2746686,134.333333 25.8333333,129.891998 25.8333333,124.413333 L25.8333333,20.2533333 C25.8333333,14.7746686 30.2746686,10.3333333 35.7533333,10.3333333 L47.0008748,10.3333333" id="Shape-Copy-2" stroke="#ACACAC" stroke-width="3.4" stroke-linecap="round"></path>
                    <path d="M105.916667,31 L105.916667,31 C111.338262,31 115.733333,35.3950714 115.733333,40.8166667 L115.733333,114.544911 C115.733333,116.68813 114.9685,118.761002 113.576436,120.390588 L106.079527,129.166667 L98.3538459,120.417964 C96.9015149,118.773318 96.1,116.654777 96.1,114.460666 L96.1,40.8166667 C96.1,35.3950714 100.495071,31 105.916667,31 Z" id="Rectangle-Copy-3" fill="#E1E1E7"></path>
                    <path d="M89.9,58.452846 L89.9,36.1862869 C89.9,31.0392028 94.2950714,26.8666667 99.7166667,26.8666667 C105.138262,26.8666667 109.533333,31.0392028 109.533333,36.1862869 L109.533333,82.3239431 L109.533333,87.6000628 L109.533333,93.52211 L109.533333,98.5871014 L109.533333,109.767449 C109.533333,112.332491 108.604565,114.819575 106.90271,116.81181 L99.8795268,125.033333 L92.6526815,116.849521 C90.8745436,114.835925 89.9,112.292227 89.9,109.66463 L89.9,78.9485077 L89.9,72.2818408 L89.9,65.8235267" id="Path-Copy-3" stroke="#ACACAC" stroke-width="3.4" fill="#EFEFF4" stroke-linecap="round"></path>
                    <rect id="Rectangle-Copy-4" stroke="#ACACAC" stroke-width="3.4" x="56.4666667" y="1.7" width="38.9666667" height="17.2666667" rx="6"></rect>
                </g>
            </g>
        </g>
    </g>
</svg>