<?xml version="1.0" standalone="no"?><!DOCTYPE svg PUBLIC "-//W3C//DTD SVG 1.1//EN" "http://www.w3.org/Graphics/SVG/1.1/DTD/svg11.dtd"><svg t="1562640203763" class="icon" viewBox="0 0 1024 1024" version="1.1" xmlns="http://www.w3.org/2000/svg" p-id="55393" xmlns:xlink="http://www.w3.org/1999/xlink" width="200" height="200"><defs><style type="text/css"></style></defs><path d="M512 6.4C230.4 6.4 6.4 230.4 6.4 512s230.4 505.6 505.6 505.6 505.6-230.4 505.6-505.6S793.6 6.4 512 6.4z m147.2 563.2H364.8c-6.4 0-12.8-6.4-12.8-19.2s6.4-19.2 12.8-19.2h294.4c6.4 0 12.8 6.4 12.8 19.2 0 12.8-6.4 19.2-12.8 19.2z m12.8 83.2c0 12.8-6.4 19.2-12.8 19.2H364.8c-6.4 0-12.8-6.4-12.8-19.2 0-12.8 6.4-19.2 12.8-19.2h294.4c6.4 0 12.8 6.4 12.8 19.2z m-12.8-185.6H364.8c-6.4 0-12.8-6.4-12.8-19.2s6.4-19.2 12.8-19.2h294.4c6.4 0 12.8 6.4 12.8 19.2 0 12.8-6.4 19.2-12.8 19.2z m83.2 224c0 51.2-38.4 89.6-89.6 89.6H364.8c-44.8 0-89.6-38.4-89.6-89.6V345.6C281.6 294.4 320 256 364.8 256H384c6.4 0 12.8 6.4 12.8 12.8s-6.4 12.8-12.8 12.8h-19.2c-32 0-57.6 25.6-57.6 57.6v352c0 32 25.6 57.6 57.6 57.6h288c32 0 57.6-25.6 57.6-57.6V345.6c0-32-25.6-57.6-57.6-57.6H640c-6.4 0-12.8-6.4-12.8-12.8 0-12.8 6.4-19.2 12.8-19.2h12.8c44.8 0 89.6 38.4 89.6 89.6v345.6z" fill="#D8182D" p-id="55394"></path></svg>