<?xml version="1.0" encoding="UTF-8"?>
<svg width="1029px" height="815px" viewBox="0 0 1029 815" version="1.1" xmlns="http://www.w3.org/2000/svg" xmlns:xlink="http://www.w3.org/1999/xlink">
    <!-- Generator: Sketch 52.5 (67469) - http://www.bohemiancoding.com/sketch -->
    <title>分组 10</title>
    <desc>Created with Sketch.</desc>
    <defs>
        <linearGradient x1="49.9897195%" y1="100.003707%" x2="49.9897195%" y2="0.00740009191%" id="linearGradient-1">
            <stop stop-color="#808080" stop-opacity="0.25" offset="0%"></stop>
            <stop stop-color="#808080" stop-opacity="0.12" offset="54%"></stop>
            <stop stop-color="#808080" stop-opacity="0.1" offset="100%"></stop>
        </linearGradient>
    </defs>
    <g id="Page-1" stroke="none" stroke-width="1" fill="none" fill-rule="evenodd" opacity="0.0493164062">
        <g id="缴纳保证金" transform="translate(-48.000000, -679.000000)">
            <g id="分组-10-copy" transform="translate(48.000000, 679.000000)">
                <path d="M653.985047,107.437097 C599.374986,105.538931 547.355517,87.8094599 497.679444,68.4700257 C448.003372,49.1305915 398.801912,27.6047876 345.497035,17.3288498 C311.206306,10.7200503 272.001365,9.78587416 244.365095,28.2606985 C217.786814,46.0398598 209.194356,76.7384786 204.576776,105.210976 C201.096287,126.637399 199.059409,149.19676 208.581316,169.251733 C215.186335,183.164995 226.923098,194.881949 235.040943,208.218805 C263.280367,254.63941 243.316993,311.872607 212.714397,357.190089 C198.357379,378.397875 181.696515,398.681424 170.632119,421.270598 C159.567723,443.859773 154.426091,469.837821 164.11609,492.91396 C173.726986,515.771462 196.617134,532.984154 221.465058,545.078754 C271.843161,569.625724 331.219119,576.651921 389.072363,580.637077 C517.197869,589.442184 646.00563,585.606099 774.477208,581.809766 C822.017526,580.398564 869.765486,578.967485 916.534559,571.57358 C942.509686,567.469168 969.325273,560.959749 988.181218,545.237763 C1012.11947,525.28217 1018.05212,491.482881 1002.02407,466.458886 C975.119496,424.480587 900.724041,414.055578 881.927422,369.006423 C871.574945,344.211003 882.204279,316.58324 897.243552,293.586605 C929.517179,244.254153 983.603189,200.97397 986.450862,144.585507 C988.428412,105.827134 962.403846,67.0687615 922.180466,48.7430078 C880.038861,29.5327682 821.612128,31.9477129 790.515144,63.7494547 C758.468936,96.5251248 702.20762,109.126565 653.985047,107.437097 Z" id="路径" fill="#D8182D" opacity="0.1"></path>
                <path d="M499,743 C499,743 453.521021,662.674185 384.986178,639.52545 C356.225667,629.808697 331.123248,611.538047 313.959877,586.566189 C305.838189,574.707662 298.822306,562.133162 293,549" id="路径" stroke="#535461" stroke-width="2"></path>
                <path d="M249.802359,531.940555 C257.785556,539.831212 295,548 295,548 C295,548 285.893692,510.380313 277.880141,502.479354 C269.844499,494.889789 257.325724,495.224852 249.692871,503.233783 C242.060019,511.242713 242.108645,523.992214 249.802359,531.940555 Z" id="路径" fill="#6C63FF"></path>
                <path d="M271.033411,597.766112 C281.590784,599.917845 316,586.514757 316,586.514757 C316,586.514757 289.186228,560.613516 278.63863,558.461782 C271.752264,556.91516 264.590765,559.315116 259.911819,564.737497 C255.232872,570.159879 253.766266,577.758943 256.076748,584.608509 C258.387229,591.458075 264.114427,596.4898 271.052962,597.766112 L271.033411,597.766112 Z" id="路径" fill="#6C63FF"></path>
                <path d="M344.52065,670.085633 C354.761392,666.436343 378,636.765586 378,636.765586 C378,636.765586 341.891536,628.260712 331.650794,631.910002 C321.743389,635.790596 316.620004,647.069263 320.078881,657.384516 C323.537757,667.699768 334.328666,673.323101 344.451722,670.085633 L344.52065,670.085633 Z" id="路径" fill="#6C63FF"></path>
                <path d="M414.458616,709.790891 C425.16346,707.986492 453,682.936596 453,682.936596 C453,682.936596 418.766182,668.350197 408.061337,670.154596 C397.544672,672.151769 390.523163,682.386234 392.265108,693.178987 C394.007053,703.97174 403.872186,711.35582 414.458616,709.790891 Z" id="路径" fill="#6C63FF"></path>
                <path d="M345,558.960694 C345,569.988701 325.02007,602 325.02007,602 C325.02007,602 305.010035,570.008752 305,558.980745 C305,547.945684 313.954305,539 325,539 C336.045695,539 345,547.945684 345,558.980745 L345,558.960694 Z" id="路径" fill="#6C63FF"></path>
                <path d="M425.838427,608.401575 C422.538684,618.781103 393.904134,643 393.904134,643 C393.904134,643 384.396059,607.007753 387.695803,596.628226 C389.588059,589.630496 395.223014,584.220111 402.37001,582.538828 C409.517006,580.857545 417.023713,583.176443 421.918521,588.577562 C426.813329,593.97868 428.307035,601.591181 425.808338,608.401575 L425.838427,608.401575 Z" id="路径" fill="#6C63FF"></path>
                <path d="M497.790748,666.050877 C496.322316,676.69645 472.183699,705 472.183699,705 C472.183699,705 456.594176,671.520162 458.102839,660.864822 C459.056858,653.975272 463.723519,648.103293 470.344937,645.460804 C476.966355,642.818314 484.536579,643.80677 490.203979,648.053831 C495.871378,652.300891 498.774941,659.161327 497.820922,666.050877 L497.790748,666.050877 Z" id="路径" fill="#6C63FF"></path>
                <path d="M249.802359,531.940555 C257.785556,539.831212 295,548 295,548 C295,548 285.893692,510.380313 277.880141,502.479354 C269.844499,494.889789 257.325724,495.224852 249.692871,503.233783 C242.060019,511.242713 242.108645,523.992214 249.802359,531.940555 Z" id="路径" fill="#CD5959"></path>
                <path d="M271.033411,597.766112 C281.590784,599.917845 316,586.514757 316,586.514757 C316,586.514757 289.186228,560.613516 278.63863,558.461782 C271.752264,556.91516 264.590765,559.315116 259.911819,564.737497 C255.232872,570.159879 253.766266,577.758943 256.076748,584.608509 C258.387229,591.458075 264.114427,596.4898 271.052962,597.766112 L271.033411,597.766112 Z" id="路径" fill="#CD5959"></path>
                <path d="M344.52065,670.085633 C354.761392,666.436343 378,636.765586 378,636.765586 C378,636.765586 341.891536,628.260712 331.650794,631.910002 C321.743389,635.790596 316.620004,647.069263 320.078881,657.384516 C323.537757,667.699768 334.328666,673.323101 344.451722,670.085633 L344.52065,670.085633 Z" id="路径" fill="#CD5959"></path>
                <path d="M414.458616,709.790891 C425.16346,707.986492 453,682.936596 453,682.936596 C453,682.936596 418.766182,668.350197 408.061337,670.154596 C397.544672,672.151769 390.523163,682.386234 392.265108,693.178987 C394.007053,703.97174 403.872186,711.35582 414.458616,709.790891 Z" id="路径" fill="#CD5959"></path>
                <path d="M345,558.960694 C345,569.988701 325.02007,602 325.02007,602 C325.02007,602 305.010035,570.008752 305,558.980745 C305,547.945684 313.954305,539 325,539 C336.045695,539 345,547.945684 345,558.980745 L345,558.960694 Z" id="路径" fill="#CD5959"></path>
                <path d="M425.838427,608.401575 C422.538684,618.781103 393.904134,643 393.904134,643 C393.904134,643 384.396059,607.007753 387.695803,596.628226 C389.588059,589.630496 395.223014,584.220111 402.37001,582.538828 C409.517006,580.857545 417.023713,583.176443 421.918521,588.577562 C426.813329,593.97868 428.307035,601.591181 425.808338,608.401575 L425.838427,608.401575 Z" id="路径" fill="#CD5959"></path>
                <path d="M497.790748,666.050877 C496.322316,676.69645 472.183699,705 472.183699,705 C472.183699,705 456.594176,671.520162 458.102839,660.864822 C459.056858,653.975272 463.723519,648.103293 470.344937,645.460804 C476.966355,642.818314 484.536579,643.80677 490.203979,648.053831 C495.871378,652.300891 498.774941,659.161327 497.820922,666.050877 L497.790748,666.050877 Z" id="路径" fill="#000000" opacity="0.25"></path>
                <path d="M496,741 C496,741 487.056934,648.682702 433.527712,599.57628 C411.070679,578.966644 395.469996,552.015581 389.905421,522.052341 C387.285111,507.850977 385.977912,493.439711 386,479" id="路径" stroke="#535461" stroke-width="2"></path>
                <path d="M353.49143,448.048385 C357.622184,458.129534 388.185745,480 388.185745,480 C388.185745,480 394.768821,443.417573 390.638067,433.336424 C387.962998,426.810422 381.947246,422.182189 374.856888,421.195136 C367.766529,420.208084 360.678758,423.012167 356.263469,428.551117 C351.848179,434.090066 350.776159,441.522383 353.451228,448.048385 L353.49143,448.048385 Z" id="路径" fill="#FC6F7E"></path>
                <path d="M344.690913,516.568519 C353.64049,522.922242 391,525 391,525 C391,525 376.451966,490.210104 367.50239,483.846344 C361.717819,479.584612 354.105448,478.804495 347.590367,481.805755 C341.075285,484.807015 336.671088,491.122727 336.070108,498.326049 C335.469128,505.529371 338.764864,512.499634 344.690913,516.558482 L344.690913,516.568519 Z" id="路径" fill="#FC6F7E"></path>
                <path d="M385.6586,610.964199 C396.634194,611.887478 430,594.646257 430,594.646257 C430,594.646257 399.93685,572.005864 388.99119,571.112692 C381.822154,570.344987 374.80151,573.540102 370.642504,579.463231 C366.483498,585.38636 365.837637,593.109645 368.954525,599.648294 C372.071412,606.186944 378.462789,610.516678 385.6586,610.964199 Z" id="路径" fill="#FC6F7E"></path>
                <path d="M432.577284,677.560498 C443.208136,680.349815 479,668.949999 479,668.949999 C479,668.949999 453.180792,641.360019 442.559913,638.570703 C432.011575,635.980942 421.36363,642.445358 418.640382,653.092357 C415.917135,663.739356 422.125683,674.631519 432.587256,677.560498 L432.577284,677.560498 Z" id="路径" fill="#FC6F7E"></path>
                <path d="M432.326387,511.866546 C427.855043,521.921513 396.635833,543 396.635833,543 C396.635833,543 391.322352,505.805607 395.783671,495.760624 C400.283881,485.768281 412.044728,481.275326 422.099975,485.707099 C432.155221,490.138871 436.72544,501.829618 432.326387,511.866546 Z" id="路径" fill="#FC6F7E"></path>
                <path d="M484.969749,588.327495 C477.595751,596.412396 441,607 441,607 C441,607 447.185626,570.701041 454.559625,562.625915 C459.329622,557.397354 466.635351,555.01531 473.724812,556.377078 C480.814274,557.738845 486.610411,562.637538 488.929875,569.227867 C491.249338,575.818197 489.739747,583.098933 484.969749,588.327495 Z" id="路径" fill="#FC6F7E"></path>
                <path d="M525.972465,670.552072 C520.094489,679.680239 486.002228,696 486.002228,696 C486.002228,696 485.718464,659.390018 491.555902,650.261851 C497.393674,641.125081 509.839609,638.262564 519.354675,643.868242 C528.86974,649.473919 531.850775,661.425034 526.013003,670.561804 L525.972465,670.552072 Z" id="路径" fill="#FC6F7E"></path>
                <ellipse id="椭圆形" fill="#D8182D" opacity="0.1" cx="606" cy="780.5" rx="282" ry="34.5"></ellipse>
                <path d="M969.514947,251.289579 C970.288794,249.181557 964.484944,237.483524 964.484944,236.909509 C964.484944,236.335494 958.482671,229.813494 958.482671,226.171467 C958.482671,222.52944 950.545782,214.67137 950.545782,214.67137 C950.545782,214.67137 939.900429,210.257392 938.739659,200.66738 C937.578889,191.077368 925.991031,190.889328 925.961267,190.889328 C925.961267,190.889328 926.010873,190.008512 926.030715,188.692236 C926.030715,185.723192 925.941425,180.378913 924.602075,177.46925 C922.617853,173.253208 918.014457,171.907241 918.014457,171.907241 C918.014457,171.907241 916.853687,164.42525 914.532147,162.119293 C911.892063,159.369925 910.867249,155.452965 911.823683,151.767226 C912.984453,148.135096 910.27599,138.901369 904.660641,137.585093 C899.045292,136.268817 892.656096,134.131105 892.656096,134.131105 C892.656096,134.131105 892.031066,134.249867 891.108402,134.378526 L890.334556,134.131105 C888.990069,134.380734 887.631721,134.549285 886.2669,134.635843 C885.079743,134.668686 883.918321,134.287161 882.983012,133.55709 C880.99879,131.449069 865.373039,127.421066 862.466153,127.421066 C859.559268,127.421066 851.235455,123.581103 851.235455,123.581103 C851.235455,123.581103 845.431605,119.177021 842.921563,117.257039 C840.580181,115.48551 836.264498,108.290527 835.639468,107.231568 L835.560099,107.093012 L835.510493,107.093012 C834.917362,105.730557 834.410392,104.332367 833.992563,102.90666 C833.903273,102.609756 833.833825,102.312851 833.754456,102.015947 C836.584785,99.0503037 839.006949,95.7221606 840.957183,92.119134 C841.155606,91.7430551 841.334186,91.3570794 841.522687,90.9810005 C841.950362,90.97976 842.37531,90.913003 842.782668,90.7830642 C842.954587,90.7256996 843.123465,90.6596352 843.288645,90.5851279 C845.250074,89.5542282 846.725644,87.7942805 847.395985,85.6862055 C847.53488,85.2705393 847.653934,84.8449764 847.763066,84.4194134 L847.852356,83.9938504 C847.921804,83.7068429 847.98133,83.4099385 848.040857,83.1130341 C848.100384,82.8161297 848.090463,82.7864392 848.120226,82.6181934 C848.149989,82.4499476 848.209516,82.0441783 848.2492,81.7571707 C848.288885,81.4701631 848.2492,81.4305758 848.318648,81.2722268 C848.368254,80.9060448 848.407938,80.5497595 848.457544,80.1835774 C848.616282,78.827714 848.775019,77.4718506 849.062732,76.1456777 C849.05843,76.1261166 849.05843,76.1058578 849.062732,76.0862968 C850.21358,70.8805731 853.358573,66.4863881 855.580902,61.6765369 C855.898377,60.98376 856.196011,60.2810863 856.473802,59.5784126 C856.751593,58.8757388 857.009542,58.0345097 857.237727,57.2427647 C857.307175,57.0052412 857.356781,56.7677177 857.426229,56.5301941 C857.571738,55.9495811 857.700713,55.3656691 857.813152,54.7784582 C857.862758,54.5310379 857.912363,54.2836176 857.952048,54.0263004 C858.090943,53.2345554 858.200075,52.4329135 858.259602,51.6312717 C858.65809,47.0485585 857.978654,42.436323 856.27538,38.1617091 C854.826897,34.5592691 852.664095,31.3131144 851.195771,27.7205713 C848.973442,22.2575305 848.388096,16.0819191 845.669711,10.8959891 C841.115921,2.17689673 830.381278,-2.18759784 821.56141,1.08824729 C817.354859,2.65194376 813.70389,5.69026537 809.427891,7.02633514 C803.71333,8.84734874 797.592005,7.48158854 791.669101,6.66015305 C785.746197,5.83871757 779.208185,5.76943988 774.446051,9.62919698 C768.959677,14.072866 767.501273,22.4257763 762.322453,27.2950083 C760.159651,29.3436486 757.471029,30.650028 755.189174,32.5403192 C753.586251,33.8244648 752.350922,35.5073616 751.607652,37.4194481 C751.607652,37.5580035 751.518362,37.6965589 751.478678,37.8351142 C751.438994,37.9736696 751.389388,38.1617091 751.349704,38.3299549 C751.310019,38.4982007 751.280256,38.7159306 751.250492,38.9039701 C751.220729,39.0920095 751.250492,39.171184 751.250492,39.2998426 C751.222886,39.6291616 751.222886,39.9602048 751.250492,40.2895239 C751.283235,40.6223239 751.336245,40.9528283 751.40923,41.2792052 C751.426559,41.3664364 751.449761,41.4524036 751.478678,41.5365223 C751.542949,41.8112176 751.62244,42.0821464 751.716785,42.348061 C751.716785,42.348061 751.716785,42.4470291 751.716785,42.4965132 C751.825917,42.7934176 751.94497,43.0804252 752.064024,43.3773296 L752.252525,43.8028925 C752.252525,43.9216543 752.361657,44.040416 752.411262,44.1690746 C753.165518,45.5863105 753.767438,47.0791312 754.206984,48.6226405 C754.454089,49.6071723 754.391746,50.6436898 754.028404,51.5916844 C753.509282,52.6618598 752.780645,53.617536 751.885444,54.4023793 C748.031758,58.3976388 745.054981,63.1501645 743.144944,68.3568858 C742.92668,68.9506946 742.718336,69.5445033 742.519914,70.1482089 C742.519914,70.1482089 742.519914,70.1482089 742.519914,70.197693 L742.777863,70.2669707 C743.334526,70.4267225 743.9013,70.5490576 744.474373,70.6331528 C744.80177,70.6331528 745.129167,70.7123273 745.466484,70.7321209 C746.796639,70.8084678 748.131071,70.7086306 749.434929,70.4352165 C749.772247,70.3659388 750.099643,70.2867643 750.42704,70.197693 C751.773104,69.8353059 753.084473,69.3550963 754.345879,68.7626551 C754.345879,69.1585276 754.345879,69.5445033 754.345879,69.9403759 C754.345879,70.1581058 754.345879,70.3758356 754.345879,70.5935655 C754.367106,87.8949154 764.205119,103.693024 779.743925,111.378332 C779.803452,111.803895 779.853057,112.209665 779.912584,112.625331 C779.97211,113.040997 780.001874,113.328004 780.041558,113.674393 L779.515739,113.169655 C779.515739,113.169655 776.033429,111.44761 772.73962,116.435604 C769.445811,121.423597 763.255037,123.719658 763.255037,123.719658 C763.255037,123.719658 728.02517,129.281667 726.675899,133.883685 L710.216775,134.873366 C710.216775,134.873366 704.412925,135.635421 703.8375,147.739223 C703.262076,159.843026 700.156768,160.971263 700.156768,160.971263 C700.156768,160.971263 693.380649,172.847438 693.965994,178.993359 C694.55134,185.13928 688.737568,188.197395 688.737568,188.197395 L687.963722,199.08389 C687.963722,199.08389 681.574526,198.094208 679.82841,205.60589 C678.082294,213.117571 674.996829,216.492384 674.996829,216.492384 C674.996829,216.492384 664.341555,225.320341 663.76613,232.792435 L657.188433,236.820438 C657.188433,236.820438 641.890079,233.36645 638.407769,227.230426 L637.336289,226.240745 C637.300823,226.194904 637.270856,226.145082 637.246999,226.092293 C637.24446,226.115316 637.24446,226.138547 637.246999,226.16157 C634.965144,224.013962 630.103799,219.501015 630.847882,220.54018 C631.295829,221.505361 631.407573,222.592194 631.165358,223.627986 L630.02443,222.371091 L626.978649,218.996278 C626.978649,218.996278 604.22954,192.928072 589.714954,191.097162 L588.61371,188.929759 C587.990535,187.709628 586.495065,187.222688 585.270296,187.84111 L563.374402,198.727604 C562.784855,199.01873 562.336055,199.532395 562.127473,200.15475 C561.918891,200.777105 561.967756,201.456746 562.263238,202.043037 L564.713752,206.842991 L564.664147,206.842991 C564.607463,206.870396 564.564657,206.919957 564.545869,206.979933 C564.52708,207.039908 564.533981,207.104964 564.564936,207.159689 L565.428072,208.852044 C565.48589,208.969238 565.627717,209.017872 565.745548,208.960909 L566.648369,210.732439 C566.517608,210.798669 566.464543,210.957476 566.529316,211.088724 L568.166299,214.295291 C568.196104,214.359935 568.251411,214.409383 568.319079,214.431883 C568.386747,214.454384 568.460734,214.447929 568.523459,214.414053 L569.188174,215.710536 C569.068047,215.776039 569.020142,215.923746 569.079041,216.047027 L570.745788,219.312976 C570.773257,219.374644 570.825724,219.421745 570.890087,219.442518 C570.95445,219.46329 571.024632,219.455772 571.083106,219.421841 L586.956885,250.705667 C587.580305,251.925071 589.072461,252.415349 590.300299,251.804213 L607.106662,243.421612 L607.701929,243.857072 L612.662485,250.220723 C611.81919,252.200085 611.114791,254.179448 610.519525,255.950978 C610.50624,256.007963 610.489678,256.064138 610.469919,256.119223 C610.340945,256.495302 610.221891,256.871381 610.112759,257.227667 L609.993706,257.603745 C609.874652,257.969928 609.76552,258.326213 609.666309,258.662704 L609.487729,259.2961 C609.487729,259.414862 609.40836,259.543521 609.378597,259.662283 C608.832936,261.582264 608.485697,263.066786 608.297196,263.888222 L607.017372,263.492349 L608.267432,264.026777 C608.267432,264.096055 608.267432,264.175229 608.267432,264.224713 C608.207906,264.482031 608.188063,264.630483 608.188063,264.630483 C608.565066,264.808625 608.96191,264.976871 609.378597,265.145117 C616.154716,268.114161 649.995628,282.9 651.731822,285.146576 C653.666439,287.640573 666.444831,294.924628 678.062452,288.788603 C689.680074,282.652579 692.190115,273.260504 692.190115,273.260504 C692.190115,273.260504 703.420813,257.722507 703.807737,255.44624 C704.19466,253.169973 712.905396,250.497834 712.905396,250.497834 C712.905396,250.497834 713.679243,276.229548 709.224664,285.591933 C704.770085,294.954318 696.446272,336.590211 696.446272,336.590211 C696.988232,336.483112 697.542248,336.44982 698.093177,336.491242 L697.607042,338.896168 C698.282301,338.768709 698.975532,338.768709 699.650791,338.896168 C699.035682,343.616948 695.483924,365.617563 695.483924,365.617563 C695.483924,365.617563 694.323154,375.593551 692.378616,379.037642 C690.434078,382.481733 690.255498,400.513726 690.255498,400.513726 L687.160112,413.557726 C687.160112,413.557726 687.566877,414.458336 688.330803,415.804302 L688.330803,415.853787 C688.330803,415.853787 691.654375,423.217015 697.259803,427.343986 C697.002237,429.382606 696.478594,431.378885 695.702189,433.282074 C693.717966,437.112141 694.154495,442.48611 694.154495,442.48611 C694.154495,442.48611 690.870607,457.242259 691.24761,461.468198 C691.624612,465.694137 689.045123,476.036307 689.045123,476.036307 L685.562813,509.398464 C685.562813,509.398464 683.241272,538.346642 684.402043,546.214608 C685.562813,554.082575 683.628196,564.81072 683.628196,564.81072 C683.628196,564.81072 685.949736,587.632771 685.36439,590.116871 C684.779045,592.600971 681.88208,603.34891 683.628196,609.296895 C685.374311,615.24488 684.402043,631.535034 684.402043,631.535034 C684.402043,631.535034 685.562813,653.021015 686.912084,659.919094 C688.261355,666.817172 686.52516,675.64513 686.52516,675.64513 C686.52516,675.64513 685.165968,690.411175 684.540938,690.411175 C683.915908,690.411175 678.925589,700.565305 689.184018,710.541293 C699.442448,720.51728 693.112779,718.953584 693.112779,718.953584 C693.112779,718.953584 684.977467,714.925581 685.949736,723.169626 C686.862478,731.017799 688.142302,728.969159 688.261355,728.751429 L686.277133,735.055699 C686.277133,735.055699 686.783109,735.11508 687.636325,735.243738 L686.515239,736.589705 C685.339582,738.052777 684.031059,739.404477 682.606321,740.627604 C680.284781,742.34965 680.086359,746.179717 680.086359,746.179717 C680.086359,746.179717 665.770195,761.717713 652.416379,769.575783 C645.392232,773.712651 639.320511,777.216122 636.681496,780.105992 C634.300429,782.708854 634.697273,784.816875 639.657829,786.449849 C650.114681,789.903837 668.498501,791.625882 681.653895,787.2218 C689.50348,784.610685 696.562006,780.058395 702.170753,773.989761 C702.170753,773.989761 710.504487,769.763822 718.629878,771.297828 C726.755268,772.831834 743.01597,762.291728 743.01597,762.291728 L742.718336,759.570105 L741.8552,751.741726 C741.8552,751.741726 739.870977,749.435768 740.496007,746.951668 C740.763877,745.823431 740.357112,742.913768 739.831293,740.023899 C739.692397,739.261844 739.543581,738.509686 739.394764,737.797116 L740.882931,737.520005 C740.882931,737.520005 738.958235,727.741954 742.440545,725.821972 C745.922855,723.90199 744.950587,698.783879 744.950587,698.783879 C744.950587,698.783879 740.496007,693.03383 738.174467,692.073839 C735.852927,691.113849 737.976045,679.207982 738.37289,677.69377 C738.769734,676.179558 741.8552,646.439634 741.8552,646.439634 C741.8552,646.439634 740.69443,637.047559 742.242123,633.019556 C743.789816,628.991553 740.307506,613.463453 740.307506,613.463453 C740.307506,613.463453 739.146736,611.543471 741.299617,609.237514 C743.452499,606.931557 742.619125,586.484741 742.619125,586.484741 C742.619125,586.484741 742.430624,576.132674 742.430624,573.440741 C742.430624,570.748808 744.752164,560.980653 746.875282,557.724602 C748.9984,554.46855 747.65905,544.294627 747.65905,544.294627 L747.778103,543.532572 C747.778103,543.245564 747.877314,542.869486 747.946762,542.443923 L748.125342,541.454241 C749.053997,535.83654 750.312842,530.278142 751.895365,524.807802 C754.415327,516.751796 757.322213,502.569663 757.322213,502.569663 L775.358794,455.698356 L775.567137,455.144134 C775.567137,455.144134 783.881028,470.484195 783.881028,484.686121 C783.881028,484.686121 786.023989,501.748227 785.438643,506.350245 C784.853297,510.952263 787.184759,532.616387 787.184759,532.616387 C787.184759,532.616387 789.6948,563.672587 789.6948,565.018553 C789.6948,566.36452 792.790187,590.334601 794.734724,593.986525 C796.679262,597.638449 792.750502,608.742673 791.629417,609.890704 C790.508331,611.038734 792.01634,639.234754 792.01634,639.234754 C792.01634,639.234754 789.109454,661.472893 788.53403,666.074912 C787.958605,670.67693 785.627144,688.322947 787.541919,695.230923 C789.456693,702.138898 788.702689,703.088992 788.702689,703.088992 C788.702689,703.088992 795.647467,710.185007 791.609574,710.759023 C787.571682,711.333038 781.361066,716.509071 783.861186,724.753116 C786.361306,732.997162 792.393342,745.279107 792.393342,745.279107 C792.393342,745.279107 793.593797,745.011893 795.597861,744.606123 L795.597861,746.88239 L795.835968,758.313209 C795.835968,758.313209 797.185239,769.199704 796.411392,771.743185 C795.845889,773.554302 795.072042,782.154632 794.69504,786.588404 C794.556144,788.231275 794.476776,789.329822 794.476776,789.329822 C794.476776,789.329822 794.476776,799.483952 815.955982,796.425837 C837.435189,793.367721 841.314343,784.915843 841.314343,784.915843 L841.473081,783.856884 C841.790557,781.877521 842.465192,777.809931 843.050538,775.523767 C843.834306,772.445858 836.869685,758.639804 836.869685,758.639804 C836.869685,758.639804 835.698994,749.257625 833.764377,747.139707 C832.962283,745.923659 832.431121,744.550069 832.206763,743.111704 C832.028183,742.339753 831.879366,741.538111 831.750392,740.746366 C832.256369,740.815644 832.742503,740.904715 833.179032,741.003683 C833.179032,741.003683 832.018262,734.293644 836.482762,732.175726 C840.947262,730.057808 839.76665,725.663623 839.191226,723.743641 C838.615801,721.82366 840.92742,711.095514 840.92742,711.095514 C840.293922,708.921457 840.885623,706.575585 842.475113,704.95949 C845.193498,702.267557 847.316616,683.473509 847.316616,683.473509 L847.782908,611.078321 C847.782908,611.078321 849.1421,598.212464 847.594407,593.046328 C846.046714,587.880191 844.489099,577.904204 846.602296,575.232064 C848.715493,572.559925 846.800718,560.08994 846.800718,560.08994 C846.800718,560.08994 846.800718,533.813902 849.697683,527.301799 C852.594647,520.789696 851.681905,479.549675 851.681905,479.549675 L852.445831,452.521479 C852.445831,452.521479 858.765579,446.583391 857.267491,415.428224 C864.013847,415.012557 871.623339,414.765137 872.774188,415.695437 C874.897306,417.417483 888.647967,426.24544 896.773357,420.643844 C898.519473,419.871893 906.446441,413.161853 906.446441,413.161853 L903.033579,355.671266 C905.166618,358.877834 906.456362,361.005648 906.456362,361.005648 C906.456362,352.949643 929.274919,326.87154 929.274919,326.87154 C929.274919,326.87154 950.565624,299.457368 955.208704,296.19142 C959.851785,292.925471 968.949444,275.675326 968.949444,275.675326 C970.297467,272.384552 971.851532,269.181565 973.602445,266.085314 C975.705721,262.611533 968.741101,253.407497 969.514947,251.289579 Z M919.572072,271.429593 C913.768221,272.003608 901.575175,285.235648 901.376753,288.105723 C901.277542,289.619936 899.997718,291.658679 898.807185,293.261963 C898.717895,292.104036 898.618684,290.926315 898.519473,289.728801 C897.150359,272.785457 895.682035,252.120911 896.35667,250.141548 C897.517441,246.687561 897.120596,231.159461 897.120596,231.159461 L897.338861,230.862556 C901.247778,242.897081 913.361456,257.089111 913.361456,257.089111 C913.361456,257.089111 915.494495,263.225135 918.004536,263.413175 C920.514577,263.601214 919.572072,271.429593 919.572072,271.429593 Z" id="形状" fill="url(#linearGradient-1)" fill-rule="nonzero"></path>
                <path d="M610,268.247819 C610,268.247819 617.152611,230.193841 640.179795,230 L657,265.115762 L645.783176,272.961207 C645.783176,272.961207 621.407962,273.746771 610,268.247819 Z" id="路径" fill="#65617D"></path>
                <path d="M657,265.100093 L645.783176,272.96137 C645.783176,272.96137 628.681293,273.51268 616.367937,270.449845 C614.178525,269.930752 612.045389,269.192039 610,268.244604 C610,268.244604 610,268.040415 610.130779,267.632037 C610.128061,267.584432 610.128061,267.536709 610.130779,267.489104 C611.188423,262.709621 612.645684,258.030358 614.486729,253.502156 C615.190925,251.797178 615.995719,250.030943 616.860873,248.274917 C620.23095,241.689821 624.969178,235.237448 631.447774,232.04189 C633.845517,230.845707 636.455881,230.1513 639.123502,230 L639.807577,230 L640.149615,230 L640.511772,230.775918 L646.205693,242.64951 L657,265.100093 Z" id="路径" fill="#000000" opacity="0.1"></path>
                <path d="M844.272121,418.808127 C844.272121,418.808127 867.959602,416.517006 870.081605,418.232868 C872.203609,419.948729 885.646254,428.7264 893.611169,423.192004 C901.576084,417.657608 896.266141,398.396323 896.266141,397.632616 C896.266141,396.868909 895.516037,369.603579 895.516037,369.603579 L881.27394,350.342295 L863.439241,316.620169 L827,313 L827.986978,366.55867 L827.799452,394.022365 L844.272121,418.808127 Z" id="路径" fill="#65617D"></path>
                <path d="M844.272121,418.808127 C844.272121,418.808127 867.959602,416.517006 870.081605,418.232868 C872.203609,419.948729 885.646254,428.7264 893.611169,423.192004 C901.576084,417.657608 896.266141,398.396323 896.266141,397.632616 C896.266141,396.868909 895.516037,369.603579 895.516037,369.603579 L881.27394,350.342295 L863.439241,316.620169 L827,313 L827.986978,366.55867 L827.799452,394.022365 L844.272121,418.808127 Z" id="路径" fill="#000000" opacity="0.1"></path>
                <path d="M633,227.254404 C633,227.254404 631.152458,250.621505 617.010538,251 C617.010538,251 613.005918,248.5099 607.618059,244.366373 C595.197932,234.794428 575.484367,216.397567 580.930263,199.285599 C588.746044,174.773052 626.683534,219.973351 626.683534,219.973351 L629.585432,223.339967 L633,227.254404 Z" id="路径" fill="#FBBEBE"></path>
                <path d="M635,227.82103 C635,227.82103 633.124045,250.630537 618.764642,251 C618.764642,251 614.698436,248.569319 609.227719,244.524667 L608,242.969031 C610.432999,244.226749 613.115277,244.940343 615.857403,245.059417 C619.461986,245.137198 623.51837,243.814908 626.121135,238.661865 C627.614039,235.725831 628.926006,232.703017 630.049836,229.610011 C630.738441,227.797718 631.225848,225.91665 631.503456,224 L635,227.82103 Z" id="路径" fill="#000000" opacity="0.1"></path>
                <path d="M627.338601,271 L623.997912,266.715788 L612.726895,252.283157 L607,244.909856 C609.513405,246.226334 612.287115,246.973325 615.123256,247.097539 C618.849799,247.178564 623.04343,245.801134 625.744412,240.42308 C627.28862,237.364981 628.644998,234.216066 629.80604,230.993762 C631.664235,225.737246 631.623619,223.033027 630.973758,222.121492 C630.323898,221.209958 635.116619,225.656221 637.421592,227.833775 L637.502825,227.914801 C638.162839,228.52249 638.58931,228.927617 638.58931,228.927617 L638.985319,229.717613 L644.641136,241.000385 L644.70206,241.476409 C645.219918,245.061778 647.128883,267.779245 627.338601,271 Z" id="路径" fill="#E7EFFD"></path>
                <path d="M743,762.510279 C743,762.510279 727.004143,772.660433 719.011167,771.144625 C711.018191,769.628818 702.81722,773.734929 702.81722,773.734929 C697.306858,779.566382 690.35789,783.946905 682.621832,786.465794 C669.676578,790.706218 651.59086,789.046504 641.309932,785.717484 C636.436891,784.153708 636.050613,782.11984 638.388088,779.625473 C640.992986,776.833701 646.965433,773.466305 653.878813,769.484912 C667.012253,761.925062 681.106435,746.978048 681.106435,746.978048 C681.106435,746.978048 681.294621,743.29406 683.582574,741.634347 C684.984341,740.474098 686.270939,739.189334 687.425541,737.796859 C689.465879,735.455992 691.387363,733 691.387363,733 L738.434,734.477433 C738.434,734.477433 739.236269,737.768078 739.860256,741.12588 C740.385197,743.879277 740.791284,746.680643 740.523861,747.764733 C739.949397,750.153569 741.860976,752.369718 741.860976,752.369718 L742.702863,759.900787 L743,762.510279 Z" id="路径" fill="#65617D"></path>
                <path d="M840.942201,773.787617 C840.364144,776.051633 839.66439,780.117018 839.350008,782.026666 C839.238453,782.67634 839.187746,783.070082 839.187746,783.070082 C839.187746,783.070082 835.283322,791.397723 813.641661,794.429535 C792,797.461348 792,787.42093 792,787.42093 C792,787.42093 792.081131,786.338139 792.22311,784.713954 C792.59834,780.284358 793.379225,771.809064 793.947141,770.007695 C794.728026,767.546808 793.369084,756.758281 793.369084,756.758281 L793.135832,745.477576 L792.973571,737.602738 L828.8537,734 C829.081915,736.605353 829.467954,739.195405 830.009815,741.756715 C830.234171,743.164106 830.77048,744.507485 831.581726,745.694134 C833.528867,747.790809 834.705265,757.053587 834.705265,757.053587 C834.705265,757.053587 841.702803,770.755805 840.942201,773.787617 Z" id="路径" fill="#65617D"></path>
                <path d="M735.61877,733.477466 C735.61877,733.477466 736.395712,736.746956 737,740.083169 C732.079368,740.979181 710.564792,744.687144 705.18375,742.09443 C699.102501,739.158562 686,737.509519 686,737.509519 L686.220613,736.76602 C688.196539,734.440202 690.057363,732 690.057363,732 L735.61877,733.477466 Z" id="路径" fill="#000000" opacity="0.1"></path>
                <path d="M830,742.471698 C821.128149,741.037736 801.787514,744.509434 794.157722,746 L794,738.45283 L828.876232,735 C829.096521,737.509597 829.471766,740.004522 830,742.471698 Z" id="路径" fill="#000000" opacity="0.1"></path>
                <path d="M848.992974,452.883541 L848.229448,479.854718 C848.229448,479.854718 849.221041,520.983029 846.325591,527.489539 C843.430141,533.99605 843.459888,560.20117 843.459888,560.20117 C843.459888,560.20117 845.373662,572.637162 843.271486,575.303438 C841.16931,577.969715 842.696362,587.938405 844.263078,593.101829 C845.829794,598.265252 844.441565,611.089247 844.441565,611.089247 L844.06476,683.397074 C844.06476,683.397074 841.9725,702.1406 839.2952,704.826774 C837.729452,706.444048 837.150121,708.780451 837.778063,710.945282 C837.778063,710.945282 835.487485,721.650183 836.062608,723.5703 C836.637732,725.490417 837.778063,729.877835 833.395225,731.97703 C829.012386,734.076225 830.142801,740.781712 830.142801,740.781712 C819.661669,738.294514 789.923811,745 789.923811,745 C789.923811,745 783.974256,732.753036 781.525022,724.525384 C779.075789,716.297732 785.154251,711.134309 789.150368,710.597074 C793.146486,710.059839 786.294582,702.936503 786.294582,702.936503 C786.294582,702.936503 787.058108,701.941624 785.154251,695.096854 C783.250393,688.252085 785.531056,670.602926 786.145843,666.016533 C786.760631,661.430139 789.576753,639.234382 789.576753,639.234382 C789.576753,639.234382 788.059617,611.119093 789.199948,609.965033 C790.340279,608.810973 794.15791,597.718069 792.254053,594.046964 C790.350195,590.37586 787.296091,566.498756 787.296091,565.195465 C787.296091,563.892173 784.817109,532.861887 784.817109,532.861887 C784.817109,532.861887 782.536447,511.24316 783.101654,506.656767 C783.666862,502.070373 781.574602,485.047988 781.574602,485.047988 C781.574602,470.880907 773.384048,455.579663 773.384048,455.579663 L773.175814,456.126847 L755.456056,502.886174 C755.456056,502.886174 752.60027,517.033358 750.111373,525.071982 C748.549782,530.529228 747.308165,536.07357 746.392901,541.676518 L746.22433,542.671397 C746.154919,543.099195 746.095423,543.467301 746.05576,543.745867 L745.936768,544.521873 C745.936768,544.521873 747.265502,554.659693 745.173242,557.912948 C743.080982,561.166203 740.70116,570.91602 740.70116,573.632041 C740.70116,576.348061 740.879647,586.655011 740.879647,586.655011 C740.879647,586.655011 741.653089,607.119678 739.550913,609.417849 C737.448737,611.71602 738.55932,613.626189 738.55932,613.626189 C738.55932,613.626189 742.000146,629.116459 740.473094,633.135772 C738.946041,637.155084 740.096289,646.516898 740.096289,646.516898 C740.096289,646.516898 737.071932,676.104609 736.73479,677.65662 C736.397649,679.208632 734.255809,691.047696 736.536472,692.00278 C738.817134,692.957864 743.209889,698.698317 743.209889,698.698317 C743.209889,698.698317 744.201482,723.759327 740.740824,725.669495 C737.280166,727.579663 739.203856,737.339429 739.203856,737.339429 C739.203856,737.339429 711.568173,742.701829 705.271561,739.637601 C698.974949,736.573372 685.439712,734.852231 685.439712,734.852231 L687.333653,728.564594 C687.224578,728.783467 685.965256,730.82297 685.062906,722.99327 C684.071314,714.765618 692.123045,718.784931 692.123045,718.784931 C692.123045,718.784931 698.409741,720.317045 688.295498,710.368252 C678.181255,700.419459 683.149133,690.281639 683.724257,690.281639 C684.29938,690.281639 685.628114,675.557425 685.628114,675.557425 C685.628114,675.557425 687.343569,666.752743 686.004919,659.868178 C684.666269,652.983614 683.535854,631.553914 683.535854,631.553914 C683.535854,631.553914 684.527446,615.297586 682.772328,609.368105 C681.017209,603.438625 683.912659,592.723775 684.487783,590.226628 C685.062906,587.729481 682.772328,564.976591 682.772328,564.976591 C682.772328,564.976591 684.686101,554.27169 683.535854,546.432041 C682.385607,538.592392 684.686101,509.701097 684.686101,509.701097 L688.117011,476.412436 C688.117011,476.412436 690.586076,466.085589 690.209271,461.877249 C689.832466,457.66891 693.065058,442.974543 693.065058,442.974543 C693.065058,442.974543 692.688253,437.612143 694.59211,433.791807 C696.495968,429.97147 697.26941,417.346452 697.26941,417.346452 L715.574207,375.253109 L724.498539,338.144111 L845.57198,337 C845.57198,337 846.018197,340.21346 846.742059,346.06335 C847.465922,351.913241 848.51701,360.578639 849.716837,371.263643 C850.767925,380.973665 851.918172,392.394879 853.048588,405.089539 C856.61832,445.610973 848.992974,452.883541 848.992974,452.883541 Z" id="路径" fill="#3F3D56"></path>
                <path d="M850,373.303907 C844.021206,373.351901 824.101761,373.515078 801.844074,373.860632 L801.577692,373.860632 L794.217659,373.975816 L793.990741,373.975816 C767.599202,374.38856 741.592437,369.36844 731.154213,370.32831 C708.955722,372.353636 739.116072,350.391811 739.116072,350.391811 C739.116072,350.391811 763.139772,356.630966 789.679301,355.363938 L796.0626,355.047181 C816.238562,353.933732 836.513184,352.090781 847.089531,349 C847.829481,354.701627 848.855544,363.033299 850,373.303907 Z" id="路径" fill="#000000" opacity="0.1"></path>
                <path d="M850,371.304175 C844.021206,371.304175 824.101761,371.515265 801.844074,371.851091 L801.577692,371.851091 L794.217659,371.975826 L793.990741,371.975826 C767.599202,372.388412 741.592437,367.370218 731.154213,368.320125 C708.955722,370.344673 739.116072,348.400872 739.116072,348.400872 C739.116072,348.400872 763.139772,354.628038 789.679301,353.37109 L796.0626,353.04486 C816.238562,351.941433 836.513184,350.089595 847.089531,347 C847.829481,352.699439 848.855544,360.999128 850,371.304175 Z" id="路径" fill="#E3A79F"></path>
                <path d="M786.444853,129.873391 L751.762037,146.301987 L725,356 C725,356 740.831755,348.749169 749.879872,353.328118 C758.927989,357.907068 786.817365,353.715492 786.817365,353.715492 C786.817365,353.715492 807.17808,352.563305 810.197387,354.857746 C813.216694,357.152187 848.644533,345.312473 848.644533,345.312473 C848.644533,345.312473 855.055659,330.790946 850.154187,328.506437 C845.252715,326.221929 851.66384,303.674823 851.66384,303.674823 L848.644533,152.410564 L842.615723,132.932646 L826.401653,123 L809.795466,136.369341 L801.953111,137.511595 L786.444853,129.873391 Z" id="路径" fill="#000000" opacity="0.1"></path>
                <path d="M786.444853,127.882443 L751.762037,144.308938 L725,354 C725,354 740.831755,346.740165 749.879872,351.32846 C758.927989,355.916755 786.817365,351.705852 786.817365,351.705852 C786.817365,351.705852 807.17808,350.563744 810.197387,352.84796 C813.216694,355.132177 848.644533,343.303909 848.644533,343.303909 C848.644533,343.303909 855.055659,328.794169 850.154187,326.500021 C845.252715,324.205874 851.66384,301.671583 851.66384,301.671583 L848.644533,150.406803 L842.615723,130.931375 L826.401653,121 L809.795466,134.377563 L801.953111,135.50974 L786.444853,127.882443 Z" id="路径" fill="#E7EFFD"></path>
                <path d="M785.341268,140.09095 C785.341268,140.09095 795.476136,152.12677 795.287164,154.611456 C795.098192,157.096142 794.720248,163.019634 794.720248,163.019634 L787.061908,178.504199 C787.061908,178.504199 782.854794,197.805241 782.854794,201.820494 C782.854794,205.835747 776.161206,240.581599 776.161206,240.581599 L768.134868,294.091802 L758,364.229524 L768.32384,382 L780.567238,371.683583 L796.818832,246.693927 L800.260112,222.04584 C800.260112,222.04584 803.890364,177.709099 803.890364,173.127338 C803.890364,168.545576 801.79178,156.499817 801.79178,156.499817 C801.79178,156.499817 804.278254,145.030506 814.602094,142.356983 C824.925933,139.683461 813.83626,141.780536 813.83626,141.780536 L807.868722,137 L802.706802,139.107014 C802.706802,139.107014 788.404604,134.743905 785.341268,140.09095 Z" id="路径" fill="#000000" opacity="0.1"></path>
                <path d="M783.314845,139.081011 C783.314845,139.081011 793.454673,151.116831 793.265608,153.601517 C793.076544,156.086203 792.688464,162.009695 792.688464,162.009695 L785.036327,177.49426 C785.036327,177.49426 780.876908,196.775425 780.876908,200.780739 C780.876908,204.786053 774.180044,239.541844 774.180044,239.541844 L766.090074,293.131557 L756,363.219585 L766.338843,381 L778.528528,370.653767 L794.807977,245.693927 L798.250941,221.04584 C798.250941,221.04584 801.882969,176.709099 801.882969,172.117399 C801.882969,167.525699 799.783358,155.489879 799.783358,155.489879 C799.783358,155.489879 802.271049,144.030506 812.599941,141.347045 C822.928833,138.663584 811.833732,140.780536 811.833732,140.780536 L805.863275,136 L800.778435,138.087136 C800.778435,138.087136 786.37968,133.70415 783.314845,139.081011 Z" id="路径" fill="#3F3D56"></path>
                <path d="M777.426325,118.286961 C777.426325,118.286961 774.05579,116.571379 770.870343,121.529709 C767.684895,126.48804 761.693916,128.768872 761.693916,128.768872 C761.693916,128.768872 727.598912,134.302369 726.29356,138.873949 L710.376064,139.865616 C710.376064,139.865616 704.755259,140.619282 704.190256,152.638275 C703.625253,164.657268 700.595669,165.767934 700.595669,165.767934 C700.595669,165.767934 694.039686,177.588594 694.594948,183.687341 C695.150209,189.786087 689.539146,192.840419 689.539146,192.840419 L712.918577,254.809633 C712.918577,254.809633 713.668667,280.364869 709.353214,289.706364 C705.037761,299.047858 696.99134,340.430085 696.99134,340.430085 C696.99134,340.430085 700.371616,339.666502 700.176787,341.947334 C699.981959,344.228166 696.056162,369.218152 696.056162,369.218152 C696.056162,369.218152 694.935898,379.134813 693.065543,382.565977 C691.195189,385.997142 691.00036,403.926465 691.00036,403.926465 L688,416.887541 C688,416.887541 695.120985,433.101282 705.982679,430.770867 C716.844373,428.440451 736.638959,385.253393 736.638959,385.253393 L749.18592,338.536002 L758.92735,292.393779 L761.732882,261.126547 L766.233422,191.908253 L772.789404,146.142862 C772.789404,146.142862 780.056511,121.529709 777.426325,118.286961 Z" id="路径" fill="#000000" opacity="0.1"></path>
                <path d="M777.43145,116.286961 C777.43145,116.286961 774.057783,114.571379 770.869374,119.529709 C767.680965,124.48804 761.684417,126.778788 761.684417,126.778788 C761.684417,126.778788 727.557719,132.302369 726.251154,136.883866 L710.30911,137.875532 C710.30911,137.875532 704.68308,138.639115 704.127303,150.648192 C703.571525,162.657268 700.558625,163.807601 700.558625,163.807601 C700.558625,163.807601 693.996548,175.628261 694.562077,181.727007 C695.127605,187.825754 689.501575,190.880085 689.501575,190.880085 L712.902739,252.8493 C712.902739,252.8493 713.653527,278.404536 709.343812,287.74603 C705.034098,297.087525 696.970446,338.469751 696.970446,338.469751 C696.970446,338.469751 700.344114,337.706168 700.158855,339.996917 C699.973596,342.287666 696.0344,367.257818 696.0344,367.257818 C696.0344,367.257818 694.913094,377.174479 693.03125,380.605644 C691.149407,384.036809 690.973898,401.966132 690.973898,401.966132 L688,414.887541 C688,414.887541 695.127605,431.101282 705.999396,428.770867 C716.871187,426.440451 736.557416,383.203809 736.557416,383.203809 L749.125792,336.486419 L758.876277,290.334279 L761.694167,259.067047 L766.189141,189.848753 L772.751218,144.083362 C772.751218,144.083362 780.054331,119.529709 777.43145,116.286961 Z" id="路径" fill="#65617D"></path>
                <path d="M657,263.317164 L645.57964,270.962432 C645.57964,270.962432 628.167433,271.498593 615.630644,268.519918 L609.280309,265.779536 L608,265.243374 L609.311037,265.640531 C615.896948,267.536955 621.048913,267.497239 625.074206,266.186622 C641.236831,260.914366 639.413671,235.039603 638.829849,229.181541 C638.768395,228.595735 638.727425,228.188649 638.696697,228.069502 C638.694075,228.046405 638.694075,228.023098 638.696697,228 L638.78888,228.148934 C639.007638,228.500485 639.257833,228.832726 639.53658,229.141826 C639.761915,229.390049 639.997492,229.648201 640.253554,229.886495 L645.958612,240.94731 L646.020067,241.413969 L657,263.317164 Z" id="路径" fill="#000000" opacity="0.1"></path>
                <path d="M694.286319,188 L688.974612,189.512202 L688.214386,200.313644 C688.214386,200.313644 681.944993,199.331695 680.236953,206.735593 C678.528914,214.139491 675.497884,217.537035 675.497884,217.537035 C675.497884,217.537035 665.052186,226.227286 664.479549,233.582087 L658.03244,237.509884 C658.03244,237.509884 643.025388,234.033783 639.619182,228.034073 C639.619182,228.034073 646.45134,276.748578 610,264.847353 C610,264.847353 650.815233,282.600996 652.71086,285.055869 C654.606488,287.510743 667.145275,294.678973 678.528914,288.639984 C689.912553,282.600996 692.390691,273.311756 692.390691,273.311756 C692.390691,273.311756 703.399154,258.012986 703.784203,255.744683 C704.169252,253.47638 712.669958,250.834936 712.669958,250.834936 L729,211.556964 L694.286319,188 Z" id="路径" fill="#65617D"></path>
                <path d="M826.848638,137.109368 L832.359412,112 C832.359412,112 834.832829,120.181815 837.306247,122.081342 L845.488312,128.353737 C845.488312,128.353737 853.670377,132.162684 856.519754,132.162684 C859.369131,132.162684 874.783469,136.120031 876.683053,138.247105 C878.582638,140.374179 886.200764,138.820921 886.200764,138.820921 C886.200764,138.820921 892.473351,140.908421 897.994019,142.244026 C903.514686,143.579631 906.176084,152.711209 905.028418,156.322288 C904.094245,159.976984 905.103085,163.855296 907.699709,166.591604 C909.975253,168.876972 911.122919,176.296998 911.122919,176.296998 C913.920071,177.207953 916.242831,179.189174 917.583485,181.807604 C919.492963,185.992499 918.919131,195.124078 918.919131,195.124078 L890.573766,235.073498 C890.573766,235.073498 890.949725,250.487365 889.811953,253.870897 C888.674181,257.254428 893.769421,315.506579 893.769421,315.506579 L899.705623,415.568103 C899.705623,415.568103 891.909411,422.226339 890.197807,422.988129 C888.486202,423.749918 886.764703,387.599551 886.764703,386.27384 C886.764703,384.948129 842.826915,320.453263 842.826915,320.453263 C842.826915,320.453263 836.890713,310.935843 836.890713,308.848342 C836.890713,306.760842 831.370045,287.538028 831.370045,287.538028 L823,250.447791 L826.848638,137.109368 Z" id="路径" fill="#000000" opacity="0.1"></path>
                <path d="M920.991495,193.006483 C920.991495,194.312241 920.922215,195.182747 920.922215,195.182747 L892.586959,235.097407 C892.586959,235.097407 892.982841,250.499421 891.834783,253.892415 C891.171681,255.870837 892.626547,276.347503 893.972546,293.154196 C894.962251,305.291814 895.833192,315.520255 895.833192,315.520255 L898.337146,357.957404 L901.721937,415.569048 C901.721937,415.569048 893.923061,422.226438 892.210871,422.98813 C890.498681,423.749823 888.786492,387.604055 888.786492,386.268621 C888.786492,384.933186 844.823793,320.46631 844.823793,320.46631 C844.823793,320.46631 838.885562,310.950101 838.885562,308.862866 C838.885562,306.775631 833.372905,287.555263 833.372905,287.555263 L825,250.459853 L828.800467,137.106173 L832.036803,112 C832.036803,112 836.797284,120.180774 839.271547,122.070167 C841.74581,123.95956 847.446511,128.351657 847.446511,128.351657 C847.446511,128.351657 855.631372,132.160119 858.491619,132.160119 C861.351867,132.160119 876.761575,136.116962 878.661809,138.243766 C880.562042,140.370569 888.182772,138.817508 888.182772,138.817508 C888.182772,138.817508 894.457502,140.904743 899.970159,142.240178 C905.482816,143.575613 908.15502,152.70603 907.016859,156.306757 C906.076146,159.962367 907.081773,163.844617 909.679166,166.584659 C911.965384,168.869736 913.103545,176.278926 913.103545,176.278926 C915.906738,177.196039 918.233428,179.18376 919.576216,181.808615 C920.912318,184.766356 921.04098,190.03885 920.991495,193.006483 Z" id="路径" fill="#65617D"></path>
                <path d="M690,700 C691.010328,700 731.766956,701.419521 730.989004,707.447876 C730.211051,713.476231 690,700 690,700 Z" id="路径" fill="#000000" opacity="0.1"></path>
                <path d="M700,710 C700,710 725.589211,714.294059 718.878061,718.218945 C712.16691,722.143831 700,710 700,710 Z" id="路径" fill="#000000" opacity="0.1"></path>
                <path d="M797,694 C797,694 843.205891,698.150215 836.295543,703.529324 C829.385196,708.908433 812.997506,709.749256 812.206872,709.997191 C811.416238,710.245125 797,694 797,694 Z" id="路径" fill="#000000" opacity="0.1"></path>
                <path d="M792,716 C792,716 816.247335,719.805353 816.984454,724.096496 C817.721573,728.387639 792,716 792,716 Z" id="路径" fill="#000000" opacity="0.1"></path>
                <path d="M808,600 C808,600 830.662815,605.38 832,609 L808,600 Z" id="路径" fill="#000000" opacity="0.1"></path>
                <path d="M718.746848,618 C718.746848,618 708.292222,621.168 718.413563,627.504 C728.534904,633.84 718.746848,618 718.746848,618 Z" id="路径" fill="#000000" opacity="0.1"></path>
                <path d="M772,434 C773.380548,434 794.814839,428.021551 802.280026,430.682479 C809.745213,433.343407 819,433.334768 819,433.334768 L772,434 Z" id="路径" fill="#000000" opacity="0.1"></path>
                <path d="M774,455.476171 L773.791697,457.368255 L756.066128,504.172442 C756.066128,504.172442 753.209405,518.333198 750.719691,526.379535 C749.157588,531.842016 747.915564,537.391677 747,543 L762.741734,445 L774,455.476171 Z" id="路径" fill="#000000" opacity="0.1"></path>
                <path d="M801,373.868221 L794.195688,374 L793.985904,374 L790,354.35479 C791.961028,354.243284 793.922056,354.131779 795.901327,354 L801,373.868221 Z" id="路径" fill="#3F3D56"></path>
                <path d="M892,349.791728 L887.299408,353.80253 L871.598058,367.199016 C871.598058,367.199016 829.135718,390.693765 817.438212,368.379861 C807.124387,348.722859 855.268653,334.685052 866.858212,331.620962 C868.438161,331.203594 869.331175,331 869.331175,331 L892,349.791728 Z" id="路径" fill="#FBBEBE"></path>
                <path d="M707,161 C707,161 715.792953,165.052535 717.788517,170.740859 C719.784081,176.429183 707,161 707,161 Z" id="路径" fill="#000000" opacity="0.1"></path>
                <path d="M682,219 C682,219 668.973237,234.28425 674.264367,240.163591 C679.555498,246.042933 682,219 682,219 Z" id="路径" fill="#000000" opacity="0.1"></path>
                <path d="M899,171 C899,171 888.350671,172.134529 888,182 L899,171 Z" id="路径" fill="#000000" opacity="0.1"></path>
                <path d="M796,325 C797.121454,323.823245 823.00266,283.680563 829,287.22106 L796,325 Z" id="路径" fill="#000000" opacity="0.1"></path>
                <path d="M891,349.130357 L886.453683,353 C882.448368,346.125 866,332.30625 866,332.30625 L866.711845,331.599107 C868.239939,331.196429 869.103645,331 869.103645,331 L891,349.130357 Z" id="路径" fill="#000000" opacity="0.1"></path>
                <path d="M895,340.588541 C895,340.588541 893.326174,344.895117 891.59396,348.638216 C889.861745,352.381315 887.983557,355.742055 887.886242,352.995103 C887.701342,347.571634 866,329.379368 866,329.379368 L868.919463,326.421112 L872.335235,323 L895,340.588541 Z" id="路径" fill="#E7EFFD"></path>
                <path d="M896.463852,313.43398 L899,356 C892.985419,346.782323 876.575638,323.157686 866,323.921691 L891.642163,294.74065 C892.707526,293.562585 893.688928,292.312694 894.579283,291 C895.561665,303.174477 896.463852,313.43398 896.463852,313.43398 Z" id="路径" fill="#000000" opacity="0.1"></path>
                <path d="M895,342.150706 C895,342.150706 893.394324,346.350078 891.732636,350 C885.477969,340.983124 876.870799,330.327708 870,328.33595 L873.276699,325 L895,342.150706 Z" id="路径" fill="#000000" opacity="0.1"></path>
                <path d="M915.538024,188 L922.435971,193.321887 C922.435971,193.321887 933.929228,193.519727 935.085531,203.025924 C936.241835,212.532121 946.778151,216.874702 946.778151,216.874702 C946.778151,216.874702 954.633039,224.669585 954.633039,228.280159 C954.633039,231.890733 960.613918,238.369983 960.613918,238.933826 C960.613918,239.497669 966.365531,251.110858 965.597985,253.198067 C964.830438,255.285276 971.728386,264.425469 969.585238,267.848096 C967.850619,270.917772 966.312484,274.092785 964.97996,277.354292 C964.97996,277.354292 956.008641,294.477317 951.37346,297.711995 C946.738278,300.946674 925.695551,328.139738 925.695551,328.139738 C925.695551,328.139738 903.077858,354.007277 903.077858,362 C903.077858,362 881.028349,325.478795 868,326.388857 L893.488515,297.28664 C893.488515,297.28664 897.904397,292.538488 898.093792,289.679704 C898.283186,286.820921 910.354595,273.70415 916.106207,273.130415 C916.106207,273.130415 917.10302,265.335532 914.571115,265.147584 C912.039209,264.959636 909.975806,258.866174 909.975806,258.866174 C909.975806,258.866174 893.109726,239.082206 892.920331,226.529278 C892.730937,213.97635 915.538024,188 915.538024,188 Z" id="路径" fill="#65617D"></path>
                <path d="M925,206 C925,206 907.832434,219.196692 911.518786,223.447975 C915.205139,227.699259 925,206 925,206 Z" id="路径" fill="#000000" opacity="0.1"></path>
                <path d="M926,257 C926,257 955.936498,248 959,257 L926,257 Z" id="路径" fill="#000000" opacity="0.1"></path>
                <path d="M743,763.635363 C743,763.635363 727.004143,773.737588 719.011167,772.228939 C711.018191,770.720289 702.81722,774.807011 702.81722,774.807011 C697.306858,780.610928 690.35789,784.970766 682.621832,787.477761 C669.676578,791.698161 651.59086,790.046285 641.309932,786.732984 C636.436891,785.176592 636.050613,783.152328 638.388088,780.669739 C649.570331,782.818133 674.559524,787.086276 681.294621,783.98304 C690.050248,779.94406 702.619129,771.130871 702.619129,771.130871 C702.619129,771.130871 719.011167,768.925186 721.289215,768.925186 C722.913562,768.925186 735.561679,763.89317 742.702863,761 L743,763.635363 Z" id="路径" fill="#000000" opacity="0.1"></path>
                <path d="M839,783 C838.88927,783.701087 838.838938,784.125988 838.838938,784.125988 C838.838938,784.125988 834.963375,793.112651 813.481688,796.38439 C792,799.65613 792,788.821148 792,788.821148 C792,788.821148 792.080531,787.652669 792.221461,785.899951 C799.016278,788.608697 813.854144,791.657364 839,783 Z" id="路径" fill="#000000" opacity="0.1"></path>
                <path d="M718,204 C718,204 718,248.361622 713.3125,252.743142 C708.625,257.124662 718,204 718,204 Z" id="路径" fill="#000000" opacity="0.1"></path>
                <path d="M888,217 L893.700548,233 C893.700548,233 895.97258,217.296107 888,217 Z" id="路径" fill="#000000" opacity="0.1"></path>
                <path d="M596.713119,200.977926 L596.713119,200.977926 C596.725827,200.977917 596.736135,200.988212 596.736144,201.000919 C596.736144,201.00093 596.736144,201.00094 596.736144,201.000951 L596.731213,208.115025 C596.731204,208.127755 596.720887,208.138073 596.708157,208.138081 L596.708157,208.138081 C596.695449,208.13809 596.685141,208.127796 596.685132,208.115089 C596.685132,208.115078 596.685132,208.115067 596.685132,208.115057 L596.690063,201.000983 C596.690072,200.988253 596.700389,200.977935 596.713119,200.977926 Z" id="矩形" fill="#3A3768" transform="translate(596.710638, 204.558004) rotate(-26.730000) translate(-596.710638, -204.558004) "></path>
                <path d="M577.155281,192.775514 L601.702568,192.758482 C602.939686,192.757624 603.943263,193.75981 603.944122,194.996928 C603.944122,194.997963 603.944122,194.998999 603.944122,195.000034 L603.906287,249.586352 C603.905431,250.822256 602.903747,251.823941 601.667842,251.824799 L577.120555,251.84183 C575.883438,251.842689 574.87986,250.840503 574.879001,249.603385 C574.879001,249.602349 574.879001,249.601314 574.879001,249.600278 L574.916836,195.013961 C574.917692,193.778056 575.919377,192.776371 577.155281,192.775514 Z" id="矩形" fill="#3A3768" transform="translate(589.411562, 222.300156) rotate(-26.730000) translate(-589.411562, -222.300156) "></path>
                <path d="M582.122852,193.359988 C581.864626,193.472191 581.667251,193.685453 581.579537,193.947033 C581.491823,194.208614 581.52196,194.494089 581.662495,194.732861 L581.762573,194.917858 C581.902512,195.157873 581.931204,195.444385 581.841514,195.706166 C581.751824,195.967947 581.552177,196.180409 581.292208,196.290731 L570.193593,201.73354 C569.948174,201.870268 569.65475,201.899589 569.385888,201.81425 C569.117025,201.728912 568.897826,201.536883 568.782498,201.285652 L568.68242,201.090918 C568.567093,200.839687 568.347894,200.647658 568.079031,200.56232 C567.810168,200.476981 567.516745,200.506302 567.271325,200.64303 L565.109647,201.694593 C564.631233,201.926278 564.267915,202.334476 564.100614,202.82827 C563.933313,203.322065 563.975924,203.860445 564.218956,204.323499 L587.82728,249.92041 C588.065415,250.385865 588.484978,250.739342 588.99252,250.902112 C589.500062,251.064881 590.053432,251.023424 590.529377,250.786975 L609.894407,241.293704 C610.370191,241.061984 610.731566,240.655494 610.898693,240.164038 C611.06582,239.672583 611.024945,239.136611 610.785098,238.674535 L587.206798,193.067887 C586.966853,192.606695 586.548285,192.25724 586.043318,192.096522 C585.538352,191.935803 584.988425,191.977008 584.514709,192.211059 L582.122852,193.359988 Z" id="路径" fill="#F46877"></path>
                <path d="M574.420087,198.203429 L578.460689,198.200625 C578.463813,198.200623 578.466348,198.203154 578.46635,198.206279 C578.46635,198.206281 578.46635,198.206284 578.46635,198.206287 L578.46635,198.206287 C578.466348,198.209417 578.463811,198.211954 578.460681,198.211956 L574.420079,198.214759 C574.416955,198.214762 574.41442,198.21223 574.414418,198.209106 C574.414418,198.209103 574.414418,198.209101 574.414418,198.209098 L574.414418,198.209098 C574.41442,198.205968 574.416957,198.203431 574.420087,198.203429 Z" id="矩形" fill="#E6E8EC" transform="translate(576.440384, 198.207692) rotate(-26.730000) translate(-576.440384, -198.207692) "></path>
                <circle id="椭圆形" fill="#E6E8EC" cx="579" cy="196" r="1"></circle>
                <path d="M97.8084495,23.1267066 C97.8084495,23.1267066 193.337527,17.2539651 182.077408,85.4719711 C182.077408,85.4719711 184.309764,97.498063 173.590524,103 C173.590524,103 173.423343,97.9891284 163.756359,99.6627595 C160.325855,100.2429 156.840427,100.411077 153.371481,100.163847 C148.685127,99.8452572 144.229769,97.972807 140.685408,94.8322793 C140.685408,94.8322793 113.877475,83.5578182 103.423758,38.800713 C103.423758,38.800713 95.7039382,29.0395351 96.0087973,26.5340993 L112.126994,33.5493195 C112.126994,33.5493195 106.619861,45.4050417 110.956728,55.2564153 C110.956728,55.2564153 111.477939,33.9802545 114.575701,34.4813416 C115.205087,34.5915808 122.954409,38.5902564 122.954409,38.5902564 C122.954409,38.5902564 113.474274,59.2350474 120.623712,74.237597 C120.623712,74.237597 117.909483,48.8024127 125.914493,40.0834961 L137.263119,46.838151 C137.263119,46.838151 126.180015,68.1543988 133.693317,85.5621668 C133.693317,85.5621668 131.726484,58.8742646 139.593816,48.4817169 L149.880353,56.6494376 C149.880353,56.6494376 139.475806,77.6950984 145.818842,92.0963434 C145.818842,92.0963434 146.644912,61.0289394 152.102874,58.6838515 C152.102874,58.6838515 161.101135,66.7713983 162.477918,70.0885953 C162.477918,70.0885953 155.348148,85.3416885 159.773522,93.39917 C159.773522,93.39917 162.477918,72.7042703 164.690605,72.6040528 C164.690605,72.6040528 173.659363,86.3238193 174.593609,95.7141927 C174.593609,95.7141927 174.200242,81.7338609 166.863955,71.2912045 C166.863955,71.2912045 175.527855,72.8044877 180.631786,78.5369248 C180.631786,78.5369248 179.235335,68.8358774 164.690605,67.994051 C164.690605,67.994051 157.285479,57.5914815 155.298977,56.9701334 C155.298977,56.9701334 169.765034,55.737459 178.537109,59.6960476 C178.537109,59.6960476 170.81729,50.546196 152.653587,54.685176 L142.504729,46.2468682 C142.504729,46.2468682 161.543672,43.5810845 169.617522,46.5174552 C169.617522,46.5174552 160.324236,38.4299085 139.760997,44.3226935 L128.687727,37.5981038 C128.687727,37.5981038 144.923933,34.0303632 154.600752,35.3231681 C154.600752,35.3231681 144.392889,29.7109919 125.452287,35.79419 L117.584955,32.1763407 C117.584955,32.1763407 129.484295,29.7911658 132.965589,29.4203613 C136.446883,29.0495568 136.633732,28.0574042 136.633732,28.0574042 C129.099204,26.7810339 121.364944,27.658715 114.29051,30.5929053 C114.29051,30.5929053 97.5232587,24.1990331 97.8084495,23.1267066 Z" id="路径" fill="#D8182D" opacity="0.1"></path>
                <path d="M150.834507,206.057139 C150.834507,206.057139 194.74934,203.41208 189.576415,234.114729 C189.576415,234.114729 190.57698,239.534605 185.674208,242 C185.674208,242 185.594163,239.724251 181.171662,240.492815 C179.595842,240.760856 177.993324,240.837938 176.398963,240.722387 C174.244965,240.578636 172.196842,239.737545 170.565664,238.326861 C170.565664,238.326861 158.218682,233.23637 153.415966,213.103976 C153.415966,213.103976 149.863958,208.722161 150.004037,207.594268 L157.41823,210.748376 C157.41823,210.748376 154.886798,216.07842 156.877924,220.510142 C156.877924,220.510142 157.11806,210.938022 158.538863,211.167593 C158.829027,211.2175 162.391042,213.014144 162.391042,213.014144 C162.391042,213.014144 158.03858,222.306786 161.320436,229.054182 C161.320436,229.054182 160.079735,217.615549 163.751811,213.682895 L168.974765,216.727208 C168.974765,216.727208 163.841862,226.319291 167.30382,234.204561 C167.30382,234.204561 166.413316,222.226935 170.035364,217.515735 L174.768041,221.188874 C174.768041,221.188874 169.985336,230.651199 172.896983,237.159043 C172.896983,237.159043 173.277198,223.185145 175.788618,222.11714 C175.788618,222.11714 179.920955,225.750353 180.561317,227.247557 C180.561317,227.247557 177.279461,234.114729 179.310609,237.737961 C179.310609,237.737961 180.561317,228.425357 181.581894,228.385431 C181.581894,228.385431 185.704225,234.553909 186.134468,238.786004 C186.134468,238.786004 185.954366,232.487768 182.58246,227.806513 C184.957191,228.259601 187.147857,229.393899 188.886024,231.070416 C188.886024,231.070416 188.245662,226.708564 181.561882,226.329272 C181.561882,226.329272 178.159959,221.648016 177.249444,221.338594 C177.249444,221.338594 183.893201,220.779639 187.925481,222.566301 C187.925481,222.566301 184.383478,218.453983 176.028754,220.320496 L171.356111,216.5176 C171.356111,216.5176 180.111062,215.329819 183.823161,216.647357 C183.823161,216.647357 179.550745,213.004163 170.105404,215.649222 L165.02253,212.654815 C165.02253,212.654815 172.486751,211.057798 176.929263,211.65668 C176.929263,211.65668 172.236609,209.131397 163.531687,211.866288 L159.899633,210.239327 C159.899633,210.239327 165.362722,209.161341 166.973633,208.991658 C168.584544,208.821975 168.654584,208.382795 168.654584,208.382795 C165.193057,207.806008 161.638957,208.199949 158.388778,209.52067 C158.388778,209.52067 150.674416,206.536244 150.834507,206.057139 Z" id="路径" fill="#D8182D" opacity="0.1"></path>
                <path d="M0.834506502,43.0565743 C0.834506502,43.0565743 44.7493398,40.4221866 39.5764146,71.1068157 C39.5764146,71.1068157 40.5769804,76.5352509 35.6742079,79 C35.6742079,79 35.5941626,76.724847 31.1716618,77.4932101 C29.5953078,77.7562602 27.9933808,77.8332941 26.3989629,77.7227211 C24.2439432,77.5754824 22.1959086,76.7311453 20.5656642,75.3178445 C20.5656642,75.3178445 8.21868216,70.2386652 3.41596628,50.1115443 C3.41596628,50.1115443 -0.136042331,45.7208982 0.00403688187,44.5933004 L7.41822951,47.7465826 C7.41822951,47.7465826 4.88679802,53.0852092 6.87792398,57.5157702 C6.87792398,57.5157702 7.11805977,47.9461575 8.53886322,48.1756685 C8.8290273,48.1756685 12.3910416,50.0217356 12.3910416,50.0217356 C12.3910416,50.0217356 8.03858031,59.3119437 11.3204362,66.0575727 C11.3204362,66.0575727 10.0797346,54.6119566 13.7518111,50.6903113 L18.9747646,53.6839336 C18.9747646,53.6839336 13.8818846,63.2834826 17.3338367,71.1068157 C17.3338367,71.1068157 16.4433331,59.1323263 20.0653813,54.4323392 L24.7980576,58.104516 C24.7980576,58.104516 20.015353,67.5643626 22.9269995,74.0705019 C22.9269995,74.0705019 23.3072145,60.1002642 25.8186347,59.0425176 C25.8186347,59.0425176 29.9509715,62.6747794 30.5913336,64.1715906 C30.5913336,64.1715906 27.3094778,71.0369645 29.3406264,74.6592476 C29.3406264,74.6592476 30.5913336,65.3490821 31.6119107,65.2991884 C31.6119107,65.2991884 35.7342419,71.4760292 36.1644852,75.6970367 C36.1644852,75.6970367 35.9843833,69.4104297 32.6124765,64.7204214 C34.9889489,65.168376 37.1809838,66.3030857 38.9160411,67.9834697 C38.9160411,67.9834697 38.275679,63.6127811 31.5918994,63.2335889 C31.5918994,63.2335889 28.1899757,58.5535593 27.2794608,58.2442183 C27.2794608,58.2442183 33.9232178,57.6854088 37.955498,59.4716035 C37.955498,59.4716035 34.413495,55.3503834 26.0587705,57.2263867 L21.4261508,53.4644013 C21.4261508,53.4644013 30.1811016,52.2669524 33.8932008,53.594125 C33.8932008,53.594125 29.6207848,49.9518844 20.1754436,52.5962508 L15.0925693,49.6026285 C15.0925693,49.6026285 22.5567902,47.9960512 26.9993024,48.6047544 C26.9993024,48.6047544 22.3066487,46.0801329 13.6017262,48.8143079 L9.96967232,47.1877731 C9.96967232,47.1877731 15.4427673,46.1200478 17.0436726,45.9504092 C18.6445779,45.7807706 18.7246231,45.341706 18.7246231,45.341706 C15.2556856,44.7385573 11.6868368,45.11176 8.41879532,46.4194101 C8.41879532,46.4194101 0.704432947,43.5455326 0.834506502,43.0565743 Z" id="路径" fill="#D8182D" opacity="0.1"></path>
                <ellipse id="椭圆形" fill="#FC6F7E" cx="983" cy="731" rx="46" ry="8"></ellipse>
                <path d="M1002.46168,718.157308 C1004.44421,716.413647 1006.27805,714.38723 1006.85299,711.861277 C1007.42792,709.335325 1006.29788,706.366388 1003.78998,705.452144 C1000.97479,704.434223 997.971255,706.290987 995.691345,708.157175 C993.411436,710.023364 990.794497,712.172309 987.810789,711.776451 C990.933032,709.086846 992.340623,705.035943 991.51812,701.107129 C991.402256,700.311977 991.059417,699.562223 990.526855,698.939334 C988.970569,697.346476 986.135552,697.996814 984.262061,699.278641 C978.314472,703.256074 976.659059,710.937608 976.629321,717.855702 C976.02465,715.358025 976.530195,712.756671 976.520282,710.202443 C976.510369,707.648215 975.766921,704.811231 973.546487,703.435152 C972.131102,702.714951 970.541659,702.360694 968.937106,702.407806 C966.26069,702.313554 963.286896,702.568034 961.462968,704.424798 C959.192972,706.733971 959.777818,710.607726 961.760348,713.152529 C963.742878,715.697332 966.716672,717.29019 969.492214,719.043276 C971.708961,720.29806 973.599602,722.011966 975.023472,724.05748 C975.192814,724.357465 975.329014,724.673325 975.429891,725 L992.19218,725 C995.921031,723.164864 999.374848,720.863545 1002.46168,718.157308 Z" id="路径" fill="#FC6F7E"></path>
                <path d="M72.3441074,780.460386 C74.0376472,779.132529 75.2730198,777.34109 75.8870019,775.322762 C76.3349541,773.283399 75.4390498,770.832243 73.4130842,770.087091 C71.1427811,769.253698 68.7197671,770.76361 66.8872354,772.293132 C65.0547038,773.822654 62.9371117,775.567877 60.5344591,775.23452 C63.0511846,773.040334 64.1874764,769.735059 63.5275941,766.528012 C63.4220508,765.874366 63.1334242,765.260812 62.6927741,764.753374 C61.4303634,763.459163 59.1498796,764.018027 57.6024084,765.037708 C52.807284,768.28304 51.4939696,774.558001 51.443066,780.205466 C50.9645716,778.166103 51.3718009,776.048304 51.3514394,773.959919 C51.3310779,771.871533 50.7507762,769.547837 48.9182446,768.430109 C47.7781488,767.839194 46.4963789,767.548345 45.2022777,767.586911 C43.0541433,767.508474 40.6514908,767.724176 39.1752847,769.234088 C37.3529338,771.126381 37.8212474,774.293276 39.4094415,776.362052 C40.9976356,778.430828 43.4206497,779.744648 45.6502298,781.176124 C47.4381342,782.201388 48.9624569,783.602366 50.1093902,785.274458 C50.2415746,785.507154 50.3539315,785.749798 50.4453543,786 L63.9551848,786 C66.9995914,784.528684 69.821818,782.665031 72.3441074,780.460386 Z" id="路径" fill="#FC6F7E"></path>
                <path d="M163.346564,733.452556 C165.039225,732.124628 166.272564,730.333659 166.883296,728.31676 C167.34195,726.278124 166.434834,723.837641 164.406565,723.092754 C162.143872,722.249856 159.718102,723.769033 157.873294,725.29801 C156.028486,726.826988 153.92887,728.57159 151.523485,728.238351 C154.041078,726.039794 155.174674,722.732321 154.509832,719.52514 C154.404395,718.874601 154.115305,718.264368 153.674063,717.760936 C152.420408,716.457384 150.137331,717.016049 148.628869,718.035367 C143.828291,721.289345 142.513484,727.552272 142.462522,733.197727 C141.973291,731.15909 142.380983,729.042045 142.370791,726.954402 C142.360599,724.86676 141.759253,722.553692 139.934829,721.426561 C138.79385,720.835726 137.509672,720.548148 136.214636,720.593464 C134.053866,720.515055 131.648481,720.720879 130.180789,722.240055 C128.346173,724.121874 128.825212,727.287641 130.415212,729.365482 C132.005212,731.443323 134.430982,732.737073 136.663098,734.17784 C138.450454,735.201815 139.976024,736.598498 141.127329,738.264915 C141.262193,738.498436 141.371496,738.744784 141.453483,739 L154.978678,739 C158.01641,737.523886 160.83146,735.657664 163.346564,733.452556 Z" id="路径" fill="#FC6F7E"></path>
                <path d="M558.999983,224.021567 L558.999983,333.968485 C559.005073,336.89584 557.889101,339.704821 555.898645,341.774776 C553.908189,343.844732 551.207091,345.005276 548.392165,344.999982 L537,345 L537,213 L548.392165,213.000018 C551.205431,212.994731 553.905075,214.153911 555.895254,216.221712 C557.885434,218.289514 559.002529,221.095935 558.999983,224.021567 Z" id="路径" fill="#C7CCE1"></path>
                <path d="M548,213.208902 L548,344.791098 C547.283463,344.93101 546.554841,345.000974 545.824561,344.99999 L544,345 L544,213 L545.824561,213.00001 C546.554841,212.999026 547.283463,213.06899 548,213.208902 Z" id="路径" fill="#000000" opacity="0.2"></path>
                <rect id="矩形" fill="#DCDFED" x="463" y="384" width="43" height="341"></rect>
                <rect id="矩形" fill="#C7CCE1" x="449" y="761" width="67" height="9"></rect>
                <rect id="矩形" fill="#000000" opacity="0.1" x="449" y="762" width="67" height="6"></rect>
                <rect id="矩形" fill="#000000" opacity="0.1" x="463" y="719" width="43" height="8"></rect>
                <path d="M434.536946,721 L532.463054,721 C543.21412,721 553.524851,725.656925 561.127003,733.946304 C568.729155,742.235684 573,753.478495 573,765.201448 L573,772 L394,772 L394,765.201448 C394,753.478495 398.270845,742.235684 405.872997,733.946304 C413.475149,725.656925 423.78588,721 434.536946,721 Z" id="路径" fill="#DCDFED"></path>
                <rect id="矩形" fill="#000000" opacity="0.1" x="463" y="431" width="43" height="41"></rect>
                <rect id="矩形" fill="#000000" opacity="0.1" x="463" y="427" width="43" height="41"></rect>
                <rect id="矩形" fill="#DCDFED" x="459" y="429" width="51" height="41"></rect>
                <path d="M527,358.968752 L527,376.011365 C527,384.841644 519.894403,392 511.129206,392 L454.870794,392 C446.105597,392 439,384.841644 439,376.011365 L439,358.968752 C439.002617,354.730939 440.676184,350.667743 443.652535,347.673022 C446.628887,344.6783 450.664215,342.997365 454.870794,343.000003 L511.129206,343.000003 C515.335785,342.997365 519.371113,344.6783 522.347465,347.673022 C525.323816,350.667743 526.997383,354.730939 527,358.968752 Z" id="路径" fill="#C7CCE1"></path>
                <path d="M527,359.108436 L527,360.863708 C516.531416,374.813805 500.25983,383 483,383 C465.74017,383 449.468584,374.813805 439,360.863708 L439,359.108436 C439.002616,354.833566 440.67562,350.73484 443.65097,347.713932 C446.626321,344.693023 450.660292,342.997389 454.865456,343.00005 L511.104945,343.00005 C515.315233,342.989396 519.356813,344.681499 522.338569,347.703274 C525.320326,350.725049 526.997393,354.828344 527,359.108436 Z" id="路径" fill="#000000" opacity="0.1"></path>
                <path d="M431.523135,199 L534.476865,199 C536.974924,199 539,201.026591 539,203.526518 L539,332.427364 C539,359.25329 517.269545,381 490.463671,381 L475.536329,381 C448.730455,381 427,359.25329 427,332.427364 L427,203.526518 C427,201.026591 429.025076,199 431.523135,199 Z" id="路径" fill="#C7CCE1"></path>
                <path d="M451.996383,134.009871 L516.003617,134.009871 C525.39046,134.009871 533,141.637849 533,151.047436 L533,199.860159 C533,203.2511 530.257744,206 526.875,206 L441.125,206 C439.500549,206 437.942631,205.353126 436.793971,204.201682 C435.645311,203.050239 435,201.488546 435,199.860159 L435,151.037565 C435,141.627978 442.60954,134 451.996383,134 L451.996383,134.009871 Z" id="路径" fill="#C7CCE1"></path>
                <rect id="矩形" fill="#000000" opacity="0.2" x="447" y="184" width="78" height="6"></rect>
                <rect id="矩形" fill="#000000" opacity="0.1" x="439" y="215" width="88" height="65"></rect>
                <rect id="矩形" fill="#F46877" x="439" y="215" width="88" height="65"></rect>
                <g id="分组" opacity="0.1" transform="translate(441.000000, 290.000000)" fill="#000000">
                    <rect id="矩形" x="0.0791011236" y="0.932407407" width="19.8346067" height="7.02740741" rx="0.79"></rect>
                    <rect id="矩形" x="22.5240449" y="0.932407407" width="19.8346067" height="7.02740741" rx="0.79"></rect>
                    <rect id="矩形" x="44.9689888" y="0.932407407" width="19.8346067" height="7.02740741" rx="0.79"></rect>
                    <rect id="矩形" x="67.4238202" y="0.932407407" width="19.8346067" height="7.02740741" rx="0.79"></rect>
                    <rect id="矩形" x="0.0791011236" y="14.6927778" width="19.8346067" height="7.02740741" rx="0.79"></rect>
                    <rect id="矩形" x="22.5240449" y="14.6927778" width="19.8346067" height="7.02740741" rx="0.79"></rect>
                    <rect id="矩形" x="44.9689888" y="14.6927778" width="19.8346067" height="7.02740741" rx="0.79"></rect>
                    <rect id="矩形" x="0.0791011236" y="28.1096296" width="19.8346067" height="7.02740741" rx="0.79"></rect>
                    <rect id="矩形" x="22.5240449" y="28.1096296" width="19.8346067" height="7.02740741" rx="0.79"></rect>
                    <rect id="矩形" x="44.9689888" y="28.1096296" width="19.8346067" height="7.02740741" rx="0.79"></rect>
                    <rect id="矩形" x="0.0791011236" y="42.9103704" width="19.8346067" height="7.02740741" rx="0.79"></rect>
                    <rect id="矩形" x="22.5240449" y="42.9103704" width="19.8346067" height="7.02740741" rx="0.79"></rect>
                    <rect id="矩形" x="44.9689888" y="42.9103704" width="19.8346067" height="7.02740741" rx="0.79"></rect>
                    <rect id="矩形" x="67.4238202" y="14.6927778" width="19.8346067" height="7.02740741" rx="0.79"></rect>
                    <rect id="矩形" x="68.64" y="27.3538889" width="17.5802247" height="25.0474074" rx="1.97"></rect>
                </g>
                <rect id="矩形" fill="#F2F3F3" x="441" y="288" width="20" height="8" rx="0.79"></rect>
                <rect id="矩形" fill="#F2F3F3" x="465" y="288" width="20" height="8" rx="0.79"></rect>
                <rect id="矩形" fill="#F2F3F3" x="486" y="288" width="20" height="8" rx="0.79"></rect>
                <rect id="矩形" fill="#D44F6A" x="510" y="288" width="20" height="8" rx="0.79"></rect>
                <rect id="矩形" fill="#F2F3F3" x="441" y="302" width="20" height="8" rx="0.79"></rect>
                <rect id="矩形" fill="#F2F3F3" x="465" y="302" width="20" height="8" rx="0.79"></rect>
                <rect id="矩形" fill="#F2F3F3" x="486" y="302" width="20" height="8" rx="0.79"></rect>
                <rect id="矩形" fill="#F2F3F3" x="441" y="316" width="20" height="8" rx="0.79"></rect>
                <rect id="矩形" fill="#F2F3F3" x="465" y="316" width="20" height="8" rx="0.79"></rect>
                <rect id="矩形" fill="#F2F3F3" x="486" y="316" width="20" height="8" rx="0.79"></rect>
                <rect id="矩形" fill="#F2F3F3" x="441" y="331" width="20" height="8" rx="0.79"></rect>
                <rect id="矩形" fill="#F2F3F3" x="465" y="331" width="20" height="8" rx="0.79"></rect>
                <rect id="矩形" fill="#F2F3F3" x="486" y="331" width="20" height="8" rx="0.79"></rect>
                <rect id="矩形" fill="#FECB42" x="510" y="302" width="20" height="8" rx="0.79"></rect>
                <rect id="矩形" fill="#97D25E" x="510" y="316" width="18" height="25" rx="1.97"></rect>
                <rect id="矩形" fill="#C7CCE1" x="485" y="271" width="9" height="2"></rect>
                <rect id="矩形" fill="#C7CCE1" x="499" y="271" width="9" height="2"></rect>
                <rect id="矩形" fill="#C7CCE1" x="512" y="271" width="9" height="2"></rect>
                <path d="M839,119.009594 L810.525619,149 C810.525619,149 774,134.572237 777.840591,129.637981 C779.33082,127.72349 779.090783,121.743172 778.230651,115.052321 C776.880443,104.552226 774,92.4435623 774,92.4435623 C774,92.4435623 837.839822,82.2000477 832.448992,92.8185657 C830.448684,96.7067591 830.828743,101.236406 832.048931,105.420655 C833.608383,110.290415 835.955706,114.879296 839,119.009594 Z" id="路径" fill="#FBBEBE"></path>
                <path d="M831.692084,92.7018498 C829.786126,96.4958629 828.928445,96.8617829 830.100609,100.94468 C822.143236,109.611208 811.994011,118.999945 799.452809,118.999945 C792.71298,119.010685 786.063343,117.43474 780.031101,114.397057 C778.744579,104.151295 776,92.3359297 776,92.3359297 C776,92.3359297 836.82864,82.3405349 831.692084,92.7018498 Z" id="路径" fill="#000000" opacity="0.1"></path>
                <path d="M842.995063,72.8233807 C843.235036,89.2389191 834.711897,104.512417 820.691731,112.791036 C806.671565,121.069655 789.328435,121.069655 775.308269,112.791036 C761.288103,104.512417 752.764964,89.2389191 753.004937,72.8233807 C753.004937,72.6046591 753.004937,72.3859375 753.004937,72.1672159 C753.184126,47.0415235 773.472161,26.8200133 798.319532,27.0012082 C823.166904,27.1824031 843.164418,47.6976882 842.985231,72.8233807 L842.995063,72.8233807 Z" id="路径" fill="#FBBEBE"></path>
                <path d="M777.433667,119 C777.433667,119 775.945,120.121454 775.577667,127.620567 C775.210333,135.119681 770,152 770,152 C770,152 789.333333,138.493794 799,139.995567 L777.433667,119 Z" id="路径" fill="#000000" opacity="0.1"></path>
                <path d="M777.433667,117 C777.433667,117 775.945,118.121123 775.577667,125.62777 C775.210333,133.134417 770,150 770,150 C770,150 789.333333,136.507533 799,138.008863 L777.433667,117 Z" id="路径" fill="#E7EFFD"></path>
                <path d="M833.462622,112 L801,139.362816 C801,139.362816 828.31636,154.946479 831.877573,158.750987 C835.438787,162.555496 839,121.506331 839,121.506331 L833.462622,112 Z" id="路径" fill="#000000" opacity="0.1"></path>
                <path d="M833.392093,112 L801,139.36031 C801,139.36031 828.298673,154.94392 831.869212,158.75083 C835.439751,162.55774 839,121.482666 839,121.482666 L833.392093,112 Z" id="路径" fill="#E7EFFD"></path>
                <path d="M842.998805,72.4844038 C843.007971,79.9151714 841.180118,87.2323695 837.678727,93.7815475 L837.344378,93.7223888 C834.49258,93.1209417 833.007679,89.7784733 830.824578,87.7079177 C828.080604,85.0859481 823.975987,84.507086 820.617109,86.2683885 C817.241056,88.2971609 815.299128,92.0652995 815.601878,96 C814.166146,89.9263701 814.6185,83.4682085 813.212269,77.3847188 C811.806037,71.3012292 807.567676,65.148721 801.775576,65.0402633 C799.277795,65.0402633 796.35716,65.9670834 794.557578,64.0542844 C793.466027,62.9204087 793.23985,61.0963478 792.423646,59.7652763 C788.283622,53.0409004 775.706211,56.4425275 770.53364,59.8835938 C765.557744,63.1964828 759.401794,68.836282 753,71.7942186 C753.179225,46.876018 773.471434,26.8214997 798.323917,27.0011983 C823.176401,27.1808968 843.17803,47.5267641 842.998805,72.4449647 L842.998805,72.4844038 Z" id="路径" fill="#000000" opacity="0.1"></path>
                <path d="M792.233052,59.8430604 C793.065304,61.2110012 793.283275,63.002118 794.383037,64.1240263 C796.196158,65.9938735 799.138764,65.0392673 801.655336,65.1081564 C807.49101,65.2065694 811.761256,71.3573825 813.178067,77.4294652 C814.594877,83.5015478 814.168843,89.9377586 815.585653,96 C815.281763,92.0730637 817.243106,88.3139412 820.648521,86.2964773 C824.028112,84.5406675 828.157754,85.114227 830.922873,87.7234659 C833.122397,89.7999804 834.61847,93.1263401 837.491721,93.7266595 C840.364973,94.3269788 843.139147,91.5910972 844.169555,88.5796591 C845.199962,85.568221 845.160331,82.2713852 845.814244,79.1516928 C847.112161,73.2469123 850.986097,68.4148335 853.136082,62.805292 C855.687877,55.9742113 855.617336,48.4488773 852.937927,41.6661776 C851.511209,38.113468 849.381039,34.9150452 847.984044,31.3623355 C845.784521,25.9693026 845.20987,19.8873787 842.544682,14.7502196 C838.056464,6.14892256 827.494787,1.83843276 818.815585,5.07622076 C814.674139,6.62130501 811.07762,9.61306049 806.876728,10.9810013 C801.23921,12.7721181 795.225197,11.4238599 789.389523,10.6168732 C783.55385,9.80988651 777.12371,9.7311561 772.437338,13.5692635 C767.047514,17.9486424 765.571257,26.1858112 760.54802,30.9982074 C758.417851,33.0156741 755.772477,34.3048845 753.523415,36.1747317 C751.274352,38.0445789 749.342338,40.8198257 749.560309,43.8607877 C749.897173,47.7973081 753.761201,51.3401764 752.334483,54.9716164 C751.818404,56.0207373 751.101617,56.9600145 750.224129,57.737022 C745.975082,62.1532236 742.817325,67.4897781 741,73.3256427 C751.19509,76.4847003 762.23234,65.324665 770.208091,60.0497277 C775.370036,56.5363833 788.061883,53.1804997 792.233052,59.8430604 Z" id="路径" fill="#7C5C5C"></path>
                <g id="分组" opacity="0.1" transform="translate(741.000000, 40.000000)" fill="#000000">
                    <path d="M12.5,11.1901754 C13.91,7.64350877 10.22,4.1754386 9.74,0.383157895 C9.24898377,1.45497598 9.03596858,2.62963355 9.12,3.80210526 C9.37,6.66105263 11.52,9.34315789 12.12,11.9859649 C12.2729698,11.7336109 12.4002516,11.4670594 12.5,11.1901754 Z" id="路径"></path>
                    <path d="M76.32,51.8736842 C74.94,45.9101754 75.32,39.602807 73.94,33.6491228 C72.56,27.6954386 68.21,21.4470175 62.32,21.3487719 C59.78,21.3487719 56.81,22.2624561 54.97,20.3663158 C53.87,19.2463158 53.64,17.4189474 52.81,16.0926316 C48.6,9.3922807 35.81,12.7915789 30.54,16.2203509 C22.67,21.3585965 11.87,32.0968421 1.79,29.6603509 C1.3,30.8098246 0.85,31.9691228 0.48,33.1578947 C10.77,36.3115789 21.91,25.1705263 29.96,19.9045614 C35.21,16.4757895 48.02,13.0273684 52.23,19.7768421 C53.07,21.1424561 53.29,22.9305263 54.4,24.0505263 C56.23,25.917193 59.2,24.9642105 61.74,25.0329825 C67.63,25.1312281 71.94,31.2715789 73.37,37.3333333 C74.8,43.3950877 74.37,49.8203509 75.8,55.8722807 C75.700799,54.5186998 75.8775856,53.1592801 76.32,51.8736842 Z" id="路径"></path>
                    <path d="M105.23,44.7803509 C104.23,47.7866667 101.44,50.5375439 98.48,49.9185965 C95.52,49.2996491 94.07,45.9887719 91.86,43.925614 C89.067338,41.316289 84.893575,40.7434777 81.48,42.5010526 C78.2145874,44.4177337 76.2626363,47.922248 76.38,51.6575439 C77.1484628,49.3454318 78.7625796,47.3955642 80.91,46.1852632 C84.3210528,44.4324399 88.4891388,45.0050238 91.28,47.6098246 C93.5,49.682807 95.01,53.0035088 97.91,53.602807 C100.81,54.2021053 103.61,51.4708772 104.65,48.4645614 C105.200557,46.6994901 105.555941,44.8812781 105.71,43.0414035 C105.585281,43.6299006 105.424997,44.2105778 105.23,44.7803509 Z" id="路径"></path>
                    <path d="M114.27,19.0498246 C112.11,24.6498246 108.19,29.4835088 106.89,35.3782456 C106.63,36.5670175 106.48,37.7852632 106.33,39.0035088 C107.65,33.1087719 111.54,28.314386 113.7,22.7340351 C114.66018,20.2075552 115.259215,17.562495 115.48,14.874386 C115.184518,16.2942093 114.780029,17.6900124 114.27,19.0498246 Z" id="路径"></path>
                </g>
                <ellipse id="椭圆形" fill="#FC6F7E" cx="58" cy="788" rx="36" ry="7"></ellipse>
                <ellipse id="椭圆形" fill="#FC6F7E" cx="150" cy="743" rx="36" ry="7"></ellipse>
            </g>
        </g>
    </g>
</svg>