<?xml version="1.0" encoding="UTF-8"?>
<svg width="96px" height="88px" viewBox="0 0 96 88" version="1.1" xmlns="http://www.w3.org/2000/svg" xmlns:xlink="http://www.w3.org/1999/xlink">
    <!-- Generator: Sketch 52.5 (67469) - http://www.bohemiancoding.com/sketch -->
    <title>美金 copy</title>
    <desc>Created with Sketch.</desc>
    <g id="Page-1" stroke="none" stroke-width="1" fill="none" fill-rule="evenodd">
        <g id="缴纳保证金" transform="translate(-515.000000, -388.000000)">
            <g id="美金-copy" transform="translate(515.000000, 384.000000)">
                <rect id="矩形" fill="#D8D8D8" fill-rule="nonzero" opacity="0" x="0" y="0" width="96" height="96"></rect>
                <path d="M58.6972937,33.8122002 L57.2090913,32.93721 C58.030703,31.7586517 58.3252431,30.6693782 58.0772093,29.6872463 C57.7981714,28.526545 56.8215386,27.5622701 55.1473109,26.7765645 C54.3722055,26.4194257 53.6126022,26.1872854 52.8374968,26.0980007 C52.0778935,26.008716 51.287286,26.0265729 50.4966784,26.1872854 C49.721573,26.330141 48.7449402,26.6515659 47.5822821,27.1694173 L47.4582652,27.2229881 C46.419624,27.7586964 44.3113373,28.20512 43.5827382,27.8658381 C43.0401644,27.6158409 42.7146201,27.3122728 42.5906033,26.9729909 C42.4820885,26.6515659 42.544097,26.312284 42.8076328,25.9372882 L42.8541391,25.8658604 C43.4432192,24.8123008 44.3578436,24.2230216 45.272468,23.8123119 C46.0165692,23.490887 46.2025945,22.3658995 45.6135144,21.7409065 L45.2879701,21.4016246 C44.9314216,21.0266288 44.419852,20.9016302 43.9702909,21.0801996 C43.0556665,21.4373385 42.2030506,21.901619 41.4124431,22.4551842 L40.0327554,21.7409065 C39.9242407,21.6873357 39.8002238,21.6873357 39.6917091,21.7587635 L38.2035067,22.6694676 C37.9399708,22.8301801 37.9244687,23.2766036 38.2035067,23.4551731 L39.5831943,24.3301633 C38.7460805,25.4730077 38.4360383,26.5801382 38.6685699,27.6158409 C38.9321058,28.7765422 39.8467301,29.7229602 41.4124431,30.4729518 C42.5285949,31.0086601 43.7222572,31.2408004 44.9624258,31.1872296 C46.2025945,31.1336587 49.2565098,30.1336699 50.713708,29.4908199 L50.7912185,29.455106 C50.8067206,29.455106 50.8222227,29.4372491 50.8222227,29.4372491 L50.8377248,29.4193922 C51.147767,29.2943936 51.4888134,29.2408227 51.860864,29.2229658 C52.2639188,29.2051088 52.6669736,29.3122505 53.0855305,29.5086769 C53.6436064,29.776531 53.9846528,30.097956 54.0931675,30.4550949 C54.2016823,30.8122337 54.1241718,31.1872296 53.8916401,31.5622254 L53.8606359,31.6336531 L53.7986275,31.7050809 C52.7909904,32.8122114 51.3182902,33.8479141 49.8455899,34.5979057 C49.1634971,34.9371877 49.1789992,36.0443182 49.861092,36.3657431 L50.868729,36.8478806 C51.2717839,37.044307 51.7058429,37.044307 52.1243998,36.8835945 C53.2250495,36.4371709 54.2636907,35.7943209 55.2403235,34.9907585 C55.2713278,35.0086154 55.2868299,35.0264724 55.3178341,35.0443293 L56.7285259,35.7943209 C56.883547,35.8836057 57.0540702,35.8836057 57.2090913,35.7943209 L58.6507873,35.0086154 C59.1003485,34.7586182 59.1158506,34.0621974 58.6972937,33.8122002 Z" id="Path" fill="#F37052" opacity="0.699999988"></path>
                <path d="M94.890687,49.5491017 C95.8535739,49.0743807 96.289882,47.6867346 95.7933934,46.5547075 C95.3721304,45.5504899 94.3490631,45.1670614 93.4914919,45.5870069 L76.4905198,53.931142 L76.4905198,46.792068 L94.8154614,37.8271439 C95.7783483,37.3524229 96.2146565,35.9647768 95.7181679,34.8327497 C95.2969049,33.8285322 94.2738375,33.4451036 93.4162664,33.8650492 L76.4754747,42.1361502 L76.4754747,35.2709538 C76.4754747,35.1248857 76.4604296,34.9788177 76.4453845,34.8510082 L94.6349201,25.9226011 C95.4924913,25.5026556 95.9438445,24.3341115 95.6579875,23.2751185 C95.5225815,22.7091049 95.2216793,22.2161254 94.755281,21.9239894 L66.3049817,4.23150168 C65.8987638,3.97588267 65.4323654,3.93936567 65.0111024,4.08543367 C64.9057866,4.10369218 64.815516,4.14020918 64.7102002,4.19498468 L1.23488944,35.3622463 C1.12957368,35.4170218 1.02425792,35.4717973 0.918942168,35.5448313 C0.90389706,35.5448313 0.90389706,35.5630898 0.888851952,35.5630898 C0.151641658,36.0925863 -0.16430561,37.2246134 0.166686766,38.2105725 C0.362273171,38.7948445 0.75344598,39.2330485 1.20479922,39.433892 L29.579873,57.0533457 C29.9108654,57.2541892 30.2719479,57.3272232 30.6179854,57.2724477 C30.7684365,57.2541892 30.9188876,57.1994137 31.0693387,57.1263797 L50.4474378,47.6137006 L50.4474378,54.9171011 L30.9640229,64.4662972 L2.58894916,46.8468435 C1.67119757,46.28083 0.512724251,46.7738095 0.121551442,47.9788706 C-0.224486043,49.0196052 0.196776982,50.2064078 1.02425792,50.7359043 L29.8807751,68.647494 C30.3471735,69.0309225 30.9640229,69.122215 31.5206919,68.8483375 L50.4323927,59.5547604 L50.4323927,66.6938344 L30.6781659,76.3890985 L2.67921981,58.9887468 C1.71633289,58.3862163 0.512724251,58.9704883 0.166686766,60.2668419 C-0.0890800703,61.2710595 0.317137847,62.3665696 1.09948346,62.8595491 L29.7303241,80.6433293 C29.8506849,80.7163633 29.9860909,80.7711388 30.1214969,80.8259143 C30.4976246,80.9537238 30.9038425,80.9537238 31.2799702,80.7528803 L50.4323927,71.3497522 L50.4323927,77.5759011 L30.3020382,87.4720087 L2.69426492,70.4185686 C1.77651333,69.8525551 0.618040007,70.3455346 0.226867198,71.5505957 C-0.119170286,72.5913302 0.302092739,73.7781328 1.12957368,74.3076294 L29.3241061,91.744498 C29.4896023,91.854049 29.6701436,91.9088245 29.8506849,91.9453415 C30.1967224,92.036634 30.557805,92.0183755 30.9188876,91.854049 L94.4995141,60.6502705 C95.4624011,60.1755494 95.8987092,58.7879033 95.4022206,57.6558763 C94.9809576,56.6516587 93.9578903,56.2682302 93.1003191,56.6881757 L76.4754747,64.8497257 L76.4754747,58.6235768 L94.890687,49.5491017 Z M30.4675343,52.7625979 L6.09445933,37.6263004 L23.5768749,29.0448048 L47.9499499,44.1811024 L30.4675343,52.7625979 Z M69.3892288,33.6824642 C69.9609429,33.9746002 70.382206,34.1937022 70.7884239,34.3945457 C72.052213,34.9788177 72.8796939,36.4577563 72.8796939,38.1010214 L72.9549194,43.8889663 L72.9549194,66.5660248 L54.0281735,75.859602 L54.0281735,45.9704355 L54.0281735,45.879143 C54.0281735,43.5785718 52.5838432,42.2639597 51.861678,41.7527217 L51.440415,41.4971027 L27.9700464,26.9268187 L45.046244,18.5461666 L69.3892288,33.6824642 Z M49.3792351,16.373405 L65.4022752,8.50399097 L89.7753502,23.6402885 L73.7523102,31.5097025 L49.3792351,16.373405 Z" id="Shape" fill="#F37052" fill-rule="nonzero" opacity="0.699999988"></path>
            </g>
        </g>
    </g>
</svg>