<?xml version="1.0" standalone="no"?><!DOCTYPE svg PUBLIC "-//W3C//DTD SVG 1.1//EN" "http://www.w3.org/Graphics/SVG/1.1/DTD/svg11.dtd"><svg t="1562577870324" class="icon" viewBox="0 0 1147 1024" version="1.1" xmlns="http://www.w3.org/2000/svg" p-id="25374" xmlns:xlink="http://www.w3.org/1999/xlink" width="224.0234375" height="200"><defs><style type="text/css"></style></defs><path d="M1117.622118 869.849462l-93.591398 0c-16.516129 0-27.526882-11.010753-27.526882-27.526882s11.010753-27.526882 27.526882-27.526882l66.064516 0L1090.095236 55.053763 512.03072 55.053763l0 154.150538c0 16.516129-11.010753 27.526882-27.526882 27.526882L242.267279 236.731183C242.267279 236.731183 55.084483 275.268817 55.084483 467.956989l0 346.83871 93.591398 0c16.516129 0 27.526882 11.010753 27.526882 27.526882S165.19201 869.849462 148.675881 869.849462L27.557602 869.849462c-16.516129 0-27.526882-11.010753-27.526882-27.526882L0.03072 467.956989c0-236.731183 236.731183-280.774194 236.731183-280.774194l214.709677 0L451.47158 27.526882C456.976957 11.010753 467.987709 0 484.503838 0l633.11828 0c16.516129 0 27.526882 11.010753 27.526882 27.526882l0 814.795699C1145.149 858.83871 1128.632871 869.849462 1117.622118 869.849462zM368.890935 1024c-88.086022 0-159.655914-71.569892-159.655914-159.655914 0-88.086022 71.569892-159.655914 159.655914-159.655914s159.655914 71.569892 159.655914 159.655914C528.546849 952.430108 456.976957 1024 368.890935 1024zM368.890935 759.741935c-55.053763 0-104.602151 44.043011-104.602151 104.602151 0 55.053763 44.043011 104.602151 104.602151 104.602151s104.602151-44.043011 104.602151-104.602151C473.493086 809.290323 429.450075 759.741935 368.890935 759.741935zM798.31029 1024c-88.086022 0-159.655914-71.569892-159.655914-159.655914 0-88.086022 71.569892-159.655914 159.655914-159.655914 88.086022 0 159.655914 71.569892 159.655914 159.655914C952.460828 952.430108 880.890935 1024 798.31029 1024zM798.31029 759.741935c-55.053763 0-104.602151 44.043011-104.602151 104.602151 0 55.053763 44.043011 104.602151 104.602151 104.602151 55.053763 0 104.602151-44.043011 104.602151-104.602151C897.407064 809.290323 853.364053 759.741935 798.31029 759.741935zM666.181258 869.849462 501.019967 869.849462c-16.516129 0-27.526882-11.010753-27.526882-27.526882s11.010753-27.526882 27.526882-27.526882l170.666667 0c16.516129 0 27.526882 11.010753 27.526882 27.526882S682.697387 869.849462 666.181258 869.849462zM478.998462 605.591398 126.654376 605.591398c-16.516129 0-27.526882-11.010753-27.526882-27.526882S115.643623 550.537634 126.654376 550.537634l324.817204 0L451.47158 341.333333c0-16.516129 11.010753-27.526882 27.526882-27.526882s27.526882 11.010753 27.526882 27.526882l0 242.236559C506.525344 594.580645 495.514591 605.591398 478.998462 605.591398z" p-id="25375"></path></svg>