<?xml version="1.0" standalone="no"?><!DOCTYPE svg PUBLIC "-//W3C//DTD SVG 1.1//EN" "http://www.w3.org/Graphics/SVG/1.1/DTD/svg11.dtd"><svg t="1562577461436" class="icon" viewBox="0 0 1024 1024" version="1.1" xmlns="http://www.w3.org/2000/svg" p-id="17472" xmlns:xlink="http://www.w3.org/1999/xlink" width="200" height="200"><defs><style type="text/css"></style></defs><path d="M772.16256 47.95904h14.76096c80.14336 8.4224 43.45344 133.67296 51.6608 214.03136 83.2-8.1664 137.58976 12.48256 149.4528 75.648v562.75968c-9.6256 40.80128-34.8416 66.0224-75.648 75.64288h-800.768c-40.8064-9.6256-66.0224-34.84672-75.648-75.64288V337.6384c8.0128-33.00864 27.41248-58.92608 57.19552-70.11328 18.7904-7.06048 45.50656-2.10432 68.27008-5.53472 21.98528-3.31264 50.10944-16.73216 75.648-25.8304 175.20128-62.42816 361.50784-128.45056 535.07584-188.20096zM344.09472 261.9904h435.44064V108.84608h-3.6864c-142.85824 52.10624-289.52576 100.4032-431.75424 153.14432z m577.52064 70.11328c-11.68384-14.11072-53.27872-11.06944-88.56576-11.06944H226.01216c-35.01568 0-71.90016-4.736-101.48352 0-36.23936 5.80096-29.52192 39.15264-29.52192 83.03104v365.33248c0 40.61696-7.66976 121.48224 9.22624 138.37312 13.06624 13.06112 65.18784 9.22624 99.6352 9.22624h618.10688c35.73248 0 82.92864 3.39456 95.94368-7.3728 22.45632-18.59072 5.92384-70.5792 11.06944-112.54784h-131.00032c-45.19424 0-95.45728 8.37632-129.15712-3.69152-52.34176-18.74432-38.74816-106.624-38.74816-175.28832 0-42.36288-8.704-111.39072 5.53472-143.91296 19.93728-45.5424 100.23424-33.20832 164.21376-33.21344h129.15712c-5.47328-33.65376 10.41408-87.38304-7.3728-108.86656z m-230.64576 405.92384h238.01856V500.00896h-238.01856v238.01856z" fill="" p-id="17473"></path><path d="M801.67936 560.896c101.0176-12.92288 76.28288 149.8112-14.76096 114.39616-51.71712-20.1216-49.50016-106.18368 14.76096-114.39616z" fill="" p-id="17474"></path></svg>