<?xml version="1.0" encoding="UTF-8"?>
<svg width="94px" height="74px" viewBox="0 0 94 74" version="1.1" xmlns="http://www.w3.org/2000/svg" xmlns:xlink="http://www.w3.org/1999/xlink">
    <!-- Generator: Sketch 52.5 (67469) - http://www.bohemiancoding.com/sketch -->
    <title>个人中心_已发货</title>
    <desc>Created with Sketch.</desc>
    <g id="Page-1" stroke="none" stroke-width="1" fill="none" fill-rule="evenodd">
        <g id="我的-copy" transform="translate(-637.000000, -803.000000)">
            <g id="个人中心_已发货" transform="translate(633.450000, 788.427995)">
                <g id="个人中心/已发货">
                    <g id="已发货">
                        <g transform="translate(0.500000, 0.300000)">
                            <g id="分组-2" transform="translate(4.000000, 15.000000)">
                                <rect id="Rectangle" fill="#FFFFFD" x="1.31450406e-13" y="-7.10542736e-15" width="49.7048276" height="64.8078261" rx="9.21724138"></rect>
                                <rect id="Rectangle" fill="#FE6068" x="1.31450406e-13" y="3.08608696" width="49.7048276" height="11.1573913" rx="5.57869565"></rect>
                                <path d="M47.6798276,62.7828261 L47.6798276,5.4 C47.6798276,3.53603897 46.1687886,2.025 44.3048276,2.025 L5.4,2.025 C3.53603897,2.025 2.025,3.53603897 2.025,5.4 L2.025,59.4078261 C2.025,61.2717871 3.53603897,62.7828261 5.4,62.7828261 L47.6798276,62.7828261 Z" id="Rectangle" stroke="#353334" stroke-width="4.05"></path>
                                <rect id="Rectangle" fill="#353334" x="1.31450406e-13" y="12.3443478" width="49.7048276" height="4.095"></rect>
                                <ellipse id="Oval" stroke="#353334" stroke-width="4.05" fill="#FFFFFF" cx="23.2991379" cy="63.2647826" rx="7.76637931" ry="7.71521739"></ellipse>
                                <path d="M47.775,12.9675 L73.8947919,12.9675 C74.8971238,12.9675 75.8169685,13.5227607 76.2839127,14.4096837 L90.1836959,40.8112036 C90.3878767,41.1990286 90.4945751,41.63073 90.4945751,42.0690199 L90.4945751,60.0603249 C90.4945751,61.5514937 89.2857439,62.7603249 87.7945751,62.7603249 L47.775,62.7603249 L47.775,12.9675 Z" id="Path-22" stroke="#353334" stroke-width="4.05" fill="#FFFFFD"></path>
                                <rect id="Rectangle" fill="#383838" x="61.7544828" y="27.7747826" width="3.822" height="12.3443478" rx="1.61301724"></rect>
                                <path d="M68.03756,32.3629835 L68.6335255,32.3629835 C69.5243703,32.3629835 70.2465427,33.0851559 70.2465427,33.9760007 L70.2465427,43.1761732 C70.2465427,44.067018 69.5243703,44.7891904 68.6335255,44.7891904 L68.03756,44.7891904 C67.1467151,44.7891904 66.4245427,44.067018 66.4245427,43.1761732 L66.4245427,33.9760007 C66.4245427,33.0851559 67.1467151,32.3629835 68.03756,32.3629835 Z" id="Rectangle" fill="#383838" transform="translate(68.335543, 38.576087) rotate(-270.000000) translate(-68.335543, -38.576087) "></path>
                                <ellipse id="Oval" stroke="#353334" stroke-width="4.05" fill="#FFFFFF" cx="69.8974138" cy="63.2647826" rx="7.76637931" ry="7.71521739"></ellipse>
                            </g>
                        </g>
                    </g>
                </g>
            </g>
        </g>
    </g>
</svg>