<?xml version="1.0" encoding="UTF-8"?>
<svg width="155px" height="155px" viewBox="0 0 155 155" version="1.1" xmlns="http://www.w3.org/2000/svg" xmlns:xlink="http://www.w3.org/1999/xlink">
    <!-- Generator: Sketch 52.5 (67469) - http://www.bohemiancoding.com/sketch -->
    <title>Group 2</title>
    <desc>Created with Sketch.</desc>
    <g id="Page-1" stroke="none" stroke-width="1" fill="none" fill-rule="evenodd">
        <g id="消费矿池" transform="translate(-110.000000, -184.000000)">
            <g id="分组-4" transform="translate(110.000000, 184.000000)">
                <g id="智能手机" transform="translate(75.500000, 75.500000) scale(-1, 1) translate(-75.500000, -75.500000) translate(10.000000, 3.000000)">
                    <g id="分组">
                        <path d="M33.1840492,30.4961832 L87.6493506,30.4961832 C92.0676286,30.4961832 95.6493506,34.0779052 95.6493506,38.4961832 L95.6493506,133.840721 C95.6493506,138.258999 92.0676286,141.840721 87.6493506,141.840721 L33,141.840721 C28.581722,141.840721 25,138.258999 25,133.840721 L25,93.2235636 L27.3460302,90.5282811 L26.1805333,82.3935374 L25.8380681,67.3384477 L25.1861182,38.6781159 C25.0856396,34.2609805 28.5849813,30.5987308 33.0021166,30.4982522 C33.062751,30.4968729 33.1233991,30.4961832 33.1840492,30.4961832 Z" id="矩形" fill="#E1E1E7"></path>
                        <path d="M7.92176664,95 C20.5615666,106.38756 27.3775679,112.469552 28.3697706,113.245977 C29.8580747,114.410613 28.5887104,120 25.8393131,120 C23.0899158,120 15.539412,113.79437 13.793732,112.517292 C12.6299453,111.665906 9.03203468,107.735604 3,100.726386 L7.92176664,95 Z" id="路径-2" fill="#E1E1E7" transform="translate(16.000000, 107.500000) scale(-1, 1) translate(-16.000000, -107.500000) "></path>
                        <path d="M104.999782,106 L104.999762,113.218778 L104.999762,136.263296 C104.999762,141.080683 101.181042,145 96.4870942,145 L33.5126674,145 C28.8187199,145 25,141.080683 25,136.263296 L25,114.620705 C25,113.260777 25.0764513,112.158523 26.4041937,112.158523 C27.7319362,112.158523 28.8083875,113.260777 28.8083875,114.620705 L28.8083875,120.940665 L101.191374,120.940665 L101.191374,113.218778 L101.191399,106 L104.999782,106 Z M101.191464,87 L104.999836,87 L101.191464,87 Z M104.999855,80 L101.191488,80 L101.191613,43.6375324 L83.6967549,43.6375324 C81.06535,43.6375324 80.7353813,44.0586019 80.078305,44.8973216 C78.4594558,46.9633464 76.5449699,48.6737581 69.4837832,48.6737581 L60.5162168,48.6737581 C53.4550301,48.6737581 51.5405442,46.9633464 49.921695,44.8973216 C49.2648571,44.0586019 48.9348884,43.6375324 46.3032451,43.6375324 L28.8083875,43.6375324 L28.8083875,61.2805734 C28.8083875,62.6405009 27.7319362,63.7427553 26.4041937,63.7427553 C25.0764513,63.7427553 25,62.6405009 25,61.2805734 L25,28.7298649 C25,23.9161417 28.8187199,20 33.5126674,20 L96.4870942,20 C101.18128,20 105,23.9161417 105,28.7298649 L104.999855,80 Z M53.3469839,29.4537815 L75.614055,29.4537815 C76.9245472,29.4537815 77.987013,30.3942728 77.987013,31.5546218 C77.987013,32.7149709 76.9245472,33.6554622 75.614055,33.6554622 L53.3469839,33.6554622 C52.0364918,33.6554622 50.974026,32.7149709 50.974026,31.5546218 C50.974026,30.3942728 52.0364918,29.4537815 53.3469839,29.4537815 Z M64.4862812,128.193277 C66.7782099,128.193277 68.6363636,130.074677 68.6363636,132.394958 C68.6363636,134.715656 66.7782099,136.596639 64.4862812,136.596639 C62.1943525,136.596639 60.3246753,134.715656 60.3246753,132.394958 C60.3246753,130.07426 62.1708941,128.193277 64.4628228,128.193277 L64.4862812,128.193277 Z M97.4870942,141.07588 C99.5298483,141.07588 101.191613,139.365469 101.191374,137.263296 L101.191374,124.865029 L28.8081491,124.865029 L28.8081491,137.263296 C28.8081491,139.365469 30.4701517,141.07588 32.5126674,141.07588 L97.4870942,141.07588 Z M83.2029271,40 L101.191851,39.7134129 L101.191851,27.7298649 C101.191851,25.6313561 99.5300867,23.9243638 97.4873326,23.9243638 L32.5129058,23.9243638 C30.4703901,23.9243638 28.8083875,25.6313561 28.8083875,27.7298649 L28.8083875,39.7131686 L46.3032451,39.7131686 C50.8701166,39.7131686 52.3423395,41.1182805 53.6722277,42.8157474 C54.4172798,43.7663289 55.1873657,44.7493943 60.5162168,44.7493943 L69.4837832,44.7493943 C74.8126343,44.7493943 75.5827202,43.7665731 76.3277723,42.8157474 C77.6574221,41.1182805 78.6360557,40 83.2029271,40 Z M85.400974,52.0289484 C86.0808507,51.3415096 87.1840306,51.3402883 87.8651168,52.0265057 C88.546203,52.7127231 88.5472397,53.8264088 87.8675357,54.5138476 L74.7288961,67.8028763 C74.3885258,68.1471191 73.9420706,68.3193277 73.4956153,68.3193277 C73.0501967,68.3193277 72.6049508,68.1479915 72.2647533,67.805319 C71.5836671,67.1191015 71.5826305,66.0054158 72.2623344,65.3179771 L85.400974,52.0289484 Z M82.6733525,74.0886429 C81.9669522,73.3767969 81.965877,72.2215177 82.671023,71.5084047 L91.5241434,62.552502 C92.2294685,61.8392081 93.3734714,61.8381221 94.0798717,62.5499681 C94.786272,63.2618142 94.7873472,64.4170934 94.0823805,65.1302064 L85.2289017,74.08629 C84.8760599,74.4432085 84.4130111,74.6218487 83.9499623,74.6218487 C83.4879887,74.6218487 83.0261943,74.4441135 82.6733525,74.0886429 Z M37.06216,71.2701706 C43.0211235,66.3015159 52.109231,66.9366883 57.3197031,72.686716 C58.0927679,73.5395321 58.754916,74.4783307 59.2876986,75.4767367 C59.6344134,76.1257951 59.3688278,76.9185241 58.6947406,77.2473317 C58.0202882,77.5764439 57.1930099,77.3169251 56.8473219,76.6679385 C56.4160659,75.8604783 55.8800031,75.1008102 55.2538424,74.4097666 C51.0389461,69.7588301 43.6889108,69.2451956 38.8684558,73.2639888 C36.7547942,75.0262753 35.3828557,77.4649117 35.0055882,80.1302134 C34.9074497,80.8204489 34.2692754,81.309539 33.5552899,81.2596123 C33.5241429,81.2574343 33.4923802,81.254223 33.461371,81.2500743 C32.7104422,81.1480544 32.1844005,80.4811753 32.2859982,79.7611457 C32.7524782,76.4643961 34.4485036,73.4490234 37.06216,71.2701706 Z M37.1898492,87.5031988 C41.2377209,92.7268529 48.3827386,93.2261069 53.1181829,88.6170164 C53.6782566,88.0714986 54.5217209,88.1304794 55.0000899,88.7486121 C55.4794311,89.3671871 55.4134791,90.3103439 54.85274,90.8558151 C51.925828,93.7051912 48.2537395,94.9752495 44.6875656,94.7258784 C41.1217243,94.4765304 37.6621303,92.7077763 35.1602594,89.4787827 C34.6809182,88.8602077 34.7468702,87.9170509 35.3076093,87.3715797 C35.867657,86.8264345 36.7111214,86.8854153 37.1898492,87.5031988 Z M2.71037736,110.911757 L27.1189908,89.6476717 C23.7233723,81.5928125 25.6725821,71.9133927 32.6082691,65.8715423 C41.2348828,58.3559619 54.3533006,59.2739791 61.850042,67.9163263 C69.3474188,76.559406 68.4281406,89.7056974 59.8008435,97.2212301 C55.4875486,100.978849 50.0513462,102.628674 44.7560601,102.258391 C41.5376851,102.033341 38.3735232,101.057555 35.5430838,99.3598683 L11.134836,120.623635 C9.84023859,121.751773 8.18470576,122.306926 6.47370553,122.187281 C4.76236365,122.067612 3.20022869,121.287114 2.07521273,119.990124 C-0.246915723,117.312658 0.0378747445,113.239965 2.71037736,110.911757 Z M57.7614385,94.8684257 C65.0941028,88.4811989 65.8753863,77.3083244 59.5030132,69.962748 C56.3164644,66.2899345 51.9359032,64.2584393 47.4352929,63.9437259 C42.9343204,63.6289873 38.3136864,65.0306929 34.6469666,68.2246439 C27.3143023,74.6118707 26.5330188,85.7847452 32.905392,93.1303216 C39.2788518,100.475974 50.4280244,101.255965 57.7614385,94.8684257 Z M32.1749728,96.8377164 C31.6128222,96.3191297 31.0718567,95.7676184 30.5590706,95.1764461 C30.0462844,94.5852738 29.576634,93.9713133 29.1424418,93.341253 L27.4844665,94.7856336 L30.5169976,98.282097 L32.1749728,96.8377164 Z M4.51112058,118.078637 C4.91586092,118.545617 6.03752919,118.737097 6.65353027,118.780171 C7.26953135,118.823246 8.5460665,118.48472 9.01220068,118.078637 L29,100.433333 L25,95.4416804 L4.51112058,114.192565 C3.5488734,115.030848 3.67490426,117.114594 4.51112058,118.078637 Z M120.264487,5.29035874 C120.813725,5.73512291 120.898418,6.54092089 120.453654,7.0901589 L110.256741,19.6822978 C109.811977,20.2315358 109.006179,20.3162286 108.456941,19.8714644 C107.907703,19.4267002 107.82301,18.6209023 108.267774,18.0716642 L118.464687,5.47952536 C118.909451,4.93028735 119.715249,4.84559457 120.264487,5.29035874 Z M130.713787,22.5706457 C130.713837,22.5707592 130.713888,22.5708727 130.713938,22.5709862 C131.001189,23.2164156 130.710829,23.9725024 130.065399,24.2597534 L119.156509,29.1148001 C118.510837,29.4021593 117.754457,29.1118122 117.466909,28.4662235 C117.466859,28.46611 117.466808,28.4659965 117.466758,28.465883 C117.179507,27.8204537 117.469868,27.0643668 118.115297,26.7771158 L129.024187,21.9220691 C129.66986,21.6347099 130.42624,21.925057 130.713787,22.5706457 Z M99.4075442,0.435516101 C100.114275,0.435619042 100.687168,1.00851175 100.687271,1.71524246 L100.68901,13.6557348 C100.689113,14.3621993 100.116494,14.9349855 99.4100291,14.9350884 C99.4099049,14.9350884 99.4097807,14.9350884 99.4096564,14.9350884 C98.7029257,14.9349854 98.130033,14.3620927 98.1299301,13.655362 L98.1281906,1.71486971 C98.1280877,1.00840514 98.700707,0.435619016 99.4071715,0.435516101 C99.4072958,0.435516083 99.40742,0.435516083 99.4075442,0.435516101 Z" id="合并形状" fill="#ACACAC"></path>
                        <rect id="矩形" fill="#ACACAC" x="101" y="78" width="4" height="5" rx="2"></rect>
                        <rect id="矩形" fill="#ACACAC" x="101" y="87" width="4" height="8" rx="2"></rect>
                        <rect id="矩形" fill="#ACACAC" x="101" y="103" width="4" height="7" rx="2"></rect>
                    </g>
                </g>
                <path d="M135.4,147.166667 C135.4,141.459724 132.624165,136.833333 129.2,136.833333 C125.775835,136.833333 123,141.459724 123,147.166667" id="Path-Copy-2" stroke="#ACACAC" stroke-width="3" stroke-linecap="round"></path>
                <path d="M142.233333,147 C142.233333,144.146529 140.614097,141.833333 138.616667,141.833333 C136.619237,141.833333 135,144.146529 135,147" id="Path-Copy-3" stroke="#ACACAC" stroke-width="3" stroke-linecap="round"></path>
            </g>
        </g>
    </g>
</svg>