<?xml version="1.0" encoding="UTF-8"?>
<svg width="36px" height="36px" viewBox="0 0 36 36" version="1.1" xmlns="http://www.w3.org/2000/svg" xmlns:xlink="http://www.w3.org/1999/xlink">
    <!-- Generator: Sketch 52.3 (67297) - http://www.bohemiancoding.com/sketch -->
    <title>Group</title>
    <desc>Created with Sketch.</desc>
    <g id="Page-1" stroke="none" stroke-width="1" fill="none" fill-rule="evenodd">
        <g id="登录-copy" transform="translate(-150.000000, -1370.000000)">
            <g id="Group" transform="translate(150.000000, 1370.000000)">
                <circle id="Oval" fill="#D8182D" fill-rule="nonzero" cx="18" cy="18" r="18"></circle>
                <path d="M17.991,6 C20.103,6 21.786,6.561 23.073,7.749 C24.294,8.871 24.921,10.422 24.921,12.402 C24.921,13.887 24.492,15.174 23.667,16.263 C23.337,16.659 22.446,17.517 20.994,18.804 C20.268,19.431 19.773,20.025 19.443,20.619 C19.014,21.345 18.816,22.137 18.816,23.028 L18.816,23.787 L16.176,23.787 L16.176,23.028 C16.176,21.939 16.374,20.982 16.77,20.157 C17.232,19.167 18.321,17.913 20.103,16.329 C20.631,15.801 21.027,15.405 21.225,15.141 C21.885,14.316 22.215,13.458 22.215,12.534 C22.215,11.214 21.819,10.191 21.093,9.465 C20.334,8.673 19.245,8.31 17.859,8.31 C16.209,8.31 14.988,8.838 14.196,9.927 C13.47,10.851 13.107,12.105 13.107,13.722 L10.5,13.722 C10.5,11.412 11.127,9.564 12.447,8.178 C13.767,6.726 15.615,6 17.991,6 Z M17.496,26.097 C18.057,26.097 18.552,26.262 18.948,26.658 C19.311,27.021 19.509,27.483 19.509,28.044 C19.509,28.638 19.311,29.1 18.915,29.463 C18.519,29.826 18.057,30.024 17.496,30.024 C16.935,30.024 16.473,29.826 16.077,29.463 C15.681,29.067 15.516,28.605 15.516,28.044 C15.516,27.483 15.681,27.021 16.077,26.658 C16.473,26.262 16.935,26.097 17.496,26.097 Z" id="？" fill="#FFFFFF"></path>
            </g>
        </g>
    </g>
</svg>