<?xml version="1.0" encoding="UTF-8"?>
<svg width="155px" height="155px" viewBox="0 0 155 155" version="1.1" xmlns="http://www.w3.org/2000/svg" xmlns:xlink="http://www.w3.org/1999/xlink">
    <!-- Generator: Sketch 52.3 (67297) - http://www.bohemiancoding.com/sketch -->
    <title>Group 3</title>
    <desc>Created with Sketch.</desc>
    <g id="Page-1" stroke="none" stroke-width="1" fill="none" fill-rule="evenodd">
        <g id="售后" transform="translate(-110.000000, -184.000000)">
            <g id="Group-3" transform="translate(110.000000, 184.000000)">
                <rect id="Rectangle" fill="#D8D8D8" fill-rule="nonzero" opacity="0" x="0" y="0" width="155" height="155"></rect>
                <g id="Group" transform="translate(12.400000, 5.166667)">
                    <rect id="Rectangle-Copy-3" fill="#E1E1E7" x="17.5666667" y="23.7666667" width="54.7666667" height="22.7333333" rx="4"></rect>
                    <rect id="Rectangle-Copy-4" fill="#E1E1E7" x="17.5666667" y="55.8" width="75.4333333" height="14.4666667" rx="3"></rect>
                    <rect id="Rectangle-Copy-5" fill="#E1E1E7" x="17.5666667" y="80.6" width="75.4333333" height="14.4666667" rx="3"></rect>
                    <path d="M77.329619,144.666667 L40.5066667,144.666667 C18.1354524,144.666667 0,126.62144 0,104.361526 L0,9.35655058 C0,4.58656886 3.88616837,0.71973466 8.68,0.71973466 L24.6967797,0.71973466 M34.2096667,0.71973466 L40.9572691,0.71973466 M51.1595515,0.71973466 L89.6933333,0.71973466 C112.064548,0.71973466 130.2,18.7649609 130.2,41.0248756 L130.2,136.029851 C130.2,140.799832 126.313832,144.666667 121.52,144.666667 L86.9947227,144.659396" id="Shape-Copy" stroke="#ACACAC" stroke-width="3.4" stroke-linecap="round"></path>
                    <g id="Group-Copy" transform="translate(21.700000, 109.533333)" stroke="#ACACAC" stroke-linecap="round" stroke-width="3">
                        <path d="M-4.92939023e-14,7.26576913 C5.27116535,6.2665317 7.83760868,8.46558169 8.78333333,14.2644105" id="Shape"></path>
                        <path d="M8.86126751,14.4995166 C8.27776866,6.31505573 10.9707937,1.48188355 16.9403425,-1.15463195e-14" id="Path-6-Copy"></path>
                    </g>
                    <path d="M101.783333,21.7 L101.783333,21.7 C107.775623,21.7 112.633333,26.5577105 112.633333,32.55 L112.633333,119.077048 C112.633333,121.149501 111.918091,123.158452 110.6084,124.764618 L101.963337,135.366667 L93.0519178,124.794667 C91.6837294,123.171526 90.9333333,121.116998 90.9333333,118.99414 L90.9333333,32.55 C90.9333333,26.5577105 95.7910438,21.7 101.783333,21.7 Z" id="Rectangle-Copy-6" fill="#E1E1E7"></path>
                    <path d="M83.7,54.1401375 L83.7,28.3578059 C83.7,22.3980243 88.5577105,17.5666667 94.55,17.5666667 C100.54229,17.5666667 105.4,22.3980243 105.4,28.3578059 L105.4,81.7803552 L105.4,87.8895464 L105.4,94.7466537 L105.4,100.611381 L105.4,113.557046 C105.4,116.527094 104.373466,119.406876 102.492469,121.713675 L94.7300033,131.233333 L86.7424375,121.75734 C84.7771271,119.425808 83.7,116.480474 83.7,113.437992 L83.7,77.8719563 L83.7,70.1526578 L83.7,62.6746099" id="Path-Copy" stroke="#ACACAC" stroke-width="3.4" fill="#EFEFF4" stroke-linecap="round"></path>
                </g>
            </g>
        </g>
    </g>
</svg>