<?xml version="1.0" encoding="UTF-8"?>
<svg width="155px" height="155px" viewBox="0 0 155 155" version="1.1" xmlns="http://www.w3.org/2000/svg" xmlns:xlink="http://www.w3.org/1999/xlink">
    <!-- Generator: Sketch 52.3 (67297) - http://www.bohemiancoding.com/sketch -->
    <title>Group 2</title>
    <desc>Created with Sketch.</desc>
    <g id="Page-1" stroke="none" stroke-width="1" fill="none" fill-rule="evenodd">
        <g id="搜索空白" transform="translate(-110.000000, -184.000000)">
            <g id="Group-2" transform="translate(110.000000, 184.000000)">
                <rect id="Rectangle" fill="#D8D8D8" fill-rule="nonzero" opacity="0" x="0" y="0" width="155" height="155"></rect>
                <g id="Group" transform="translate(3.100000, 2.066667)">
                    <path d="M15.5,119.866667 C15.5,114.730418 12.7241654,110.566667 9.3,110.566667 C5.87583455,110.566667 3.1,114.730418 3.1,119.866667" id="Path-Copy-2" stroke="#ACACAC" stroke-width="3" stroke-linecap="round"></path>
                    <path d="M22.7333333,120.9 C22.7333333,118.046529 21.1140965,115.733333 19.1166667,115.733333 C17.1192368,115.733333 15.5,118.046529 15.5,120.9" id="Path-Copy-3" stroke="#ACACAC" stroke-width="3" stroke-linecap="round"></path>
                    <path d="M135.366667,85.7666667 C135.366667,82.9131955 133.74743,80.6 131.75,80.6 C129.75257,80.6 128.133333,82.9131955 128.133333,85.7666667" id="Path-Copy-4" stroke="#ACACAC" stroke-width="3" stroke-linecap="round"></path>
                    <path d="M57.35,0 L57.35,16.5333333" id="Path-2-Copy-4" stroke="#ACACAC" stroke-width="3.4" stroke-linecap="round"></path>
                    <g id="Group-Copy" transform="translate(74.666083, 77.671183) rotate(-45.000000) translate(-74.666083, -77.671183) translate(32.816083, 14.121183)">
                        <path d="M50.0677434,82.1695408 C52.2248815,106.849942 52.0135677,120.476095 49.4338017,123.047999 C40.1445266,124.535859 36.8637566,119.822877 36.8637566,112.308856 C36.8637566,111.74471 36.8989523,111.181111 36.9691399,110.621321 L39.3622722,91.9561608 C40.0597524,86.5161858 44.5871757,82.3773515 50.0677434,82.1695408 Z" id="Path" fill="#E1E1E7"></path>
                        <path d="M50.0478164,83.2535051 L33.556182,83.2535051 L29.7656209,111.770299 C29.7042294,112.259935 29.6734447,112.752899 29.6734447,113.24634 C29.6734447,119.820314 35.021106,125.15168 41.6203704,125.15168 C42.1159635,125.15168 42.6110756,125.120949 43.1028368,125.059666 C49.6505681,124.243694 54.2929611,118.293092 53.474059,111.76166 C53.1149336,108.773546 53.1149336,108.773546 52.9028988,107.009304 C52.6898205,105.236379 52.6898205,105.236379 52.4975982,103.636988 C52.163328,100.855683 52.163328,100.855683 51.9032987,98.6921013 C51.5425852,95.6907734 51.5425852,95.6907734 51.0726456,91.780627 C50.6792645,88.507488 50.6461666,88.2320953 50.0478164,83.2535051 Z" id="Path" stroke="#ACACAC" stroke-width="3.4"></path>
                        <path d="M5.91865832,20.1539512 C2.16088189,26.3891386 0,33.6897578 0,41.4935401 C0,61.9761654 14.8864791,78.9924626 34.4615358,82.3756062 M45.2194907,82.8340955 C66.520693,81.0151213 83.2407407,63.2009687 83.2407407,41.4935401 C83.2407407,37.3619551 82.6350455,33.3714067 81.507351,29.6053357 M52.201619,1.35284187 C48.8229784,0.470049316 45.2767351,-2.94285824e-13 41.6203704,0 C29.615567,0 18.7978521,5.06704191 11.2016556,13.1728953" id="Shape" stroke="#ACACAC" stroke-width="3.4" stroke-linecap="round"></path>
                        <path d="M43.3479328,23.7105943 L57.781746,23.7105943 C63.3045935,23.7105943 67.781746,28.1877468 67.781746,33.7105943 L67.781746,50.4620155 C67.781746,55.984863 63.3045935,60.4620155 57.781746,60.4620155 L40.4722222,60.4620155 C31.9118086,60.4620155 24.9722222,53.5224291 24.9722222,44.9620155 L24.9722222,42.0863049 C24.9722222,31.9376802 33.1993081,23.7105943 43.3479328,23.7105943 Z" id="Rectangle" fill="#E1E1E7"></path>
                        <ellipse id="Oval" stroke="#ACACAC" stroke-width="3.4" cx="41.6203704" cy="41.4935401" rx="26.1613757" ry="26.0816537"></ellipse>
                    </g>
                    <path d="M37.2,5.16666667 L44.4333333,15.5" id="Path-2-Copy-2" stroke="#ACACAC" stroke-width="3.4" stroke-linecap="round"></path>
                    <path d="M71.3,5.16666667 L77.5,15.5" id="Path-2-Copy-3" stroke="#ACACAC" stroke-width="3.4" stroke-linecap="round" transform="translate(74.400000, 10.333333) scale(-1, 1) translate(-74.400000, -10.333333) "></path>
                </g>
            </g>
        </g>
    </g>
</svg>