<?xml version="1.0" encoding="UTF-8"?>
<svg width="72px" height="74px" viewBox="0 0 72 74" version="1.1" xmlns="http://www.w3.org/2000/svg" xmlns:xlink="http://www.w3.org/1999/xlink">
    <!-- Generator: Sketch 52.3 (67297) - http://www.bohemiancoding.com/sketch -->
    <title>订单信息 copy 8</title>
    <desc>Created with Sketch.</desc>
    <g id="Page-1" stroke="none" stroke-width="1" fill="none" fill-rule="evenodd">
        <g id="我的" transform="translate(-96.000000, -1520.000000)">
            <g id="分组-5-copy-3" transform="translate(96.000000, 1520.000000)">
                <g id="订单信息-copy-8">
                    <g id="节点数据-copy" transform="translate(0.000000, 1.000000)">
                        <circle id="椭圆形-copy-3" fill="#FF9351" fill-rule="nonzero" cx="36" cy="36" r="36"></circle>
                        <path d="M52.270718,26.012118 L45.9044597,19.4005444 C45.6579994,19.144389 45.3203892,19 44.9679073,19 C44.6154254,19 44.2778152,19.144389 44.0313548,19.4005444 C43.7773195,19.6571017 43.6344648,20.006074 43.6344648,20.3700861 C43.6344648,20.7340982 43.7773195,21.0830705 44.0313548,21.3396278 L48.6279312,26.1873364 L43.7900346,26.1873364 C32.6548284,27.6241271 30.6093519,35.8243473 30.0003056,44.5034978 C29.9855,45.2440337 30.5103029,45.8822037 31.2298897,45.9986947 L31.3333127,45.9986947 C31.6858046,46.0144937 32.0298747,45.8863497 32.2888902,45.6428035 C32.5479057,45.3992573 32.7003556,45.0605351 32.7122856,44.7020787 C33.321332,35.6140853 35.3782999,30.1122281 44.0198634,28.9324243 L49.0875888,28.9324243 L44.4910125,33.7801329 C44.2369772,34.0366902 44.0941224,34.3856625 44.0941224,34.7496746 C44.0941224,35.1136867 44.2369772,35.462659 44.4910125,35.7192163 C44.7324492,35.9846454 45.0719337,36.1355646 45.4275649,36.1355646 C45.7831962,36.1355646 46.1226807,35.9846454 46.3641174,35.7192163 L52.270718,29.5164856 C52.7369023,29.0567019 53,28.4245795 53,27.7643018 C53,27.1040241 52.7369023,26.4719017 52.270718,26.012118 Z" id="Path-Copy" fill="#FFFFFF" fill-rule="evenodd"></path>
                        <path d="M47.575,54 L23.4366667,54 C20.4367406,53.993583 18.006417,51.5632594 18,48.5633333 L18,24.4366667 C18,21.4340786 20.4340786,19 23.4366667,19 L32.9216667,19 C33.4052173,18.9999232 33.8520694,19.2578502 34.093867,19.6766046 C34.3356645,20.0953589 34.3356645,20.6113078 34.093867,21.0300621 C33.8520694,21.4488165 33.4052173,21.7067435 32.9216667,21.7066667 L23.4366667,21.7066667 C21.9289293,21.7066667 20.7066667,22.9289293 20.7066667,24.4366667 L20.7066667,48.5633333 C20.7066667,50.0710707 21.9289293,51.2933333 23.4366667,51.2933333 L47.5633333,51.2933333 C49.0710707,51.2933333 50.2933333,50.0710707 50.2933333,48.5633333 L50.2933333,39.09 C50.2934521,38.3426586 50.8993253,37.7368817 51.6466667,37.7368817 C52.394008,37.7368817 52.9998812,38.3426586 53,39.09 L53,48.5633333 C52.9936133,51.5587229 50.570369,53.9871786 47.575,54 Z" id="Path-Copy-2" fill="#FFFFFF" fill-rule="evenodd"></path>
                    </g>
                </g>
            </g>
        </g>
    </g>
</svg>