<svg t="1562754884826" class="icon" viewBox="0 0 1024 1024" version="1.1" xmlns="http://www.w3.org/2000/svg" p-id="40032" width="200" height="200"><path d="M510.432 955.328c-58.464 0-116.96-11.648-172.512-34.944a443.2 443.2 0 0 1-240.384-242.496 443.2 443.2 0 0 1 1.504-341.44 443.136 443.136 0 0 1 242.528-240.384 443.136 443.136 0 0 1 341.408 1.504 442.912 442.912 0 0 1 240.384 242.528 446.848 446.848 0 0 1 30.976 214.56 17.472 17.472 0 1 1-34.784-3.584 411.712 411.712 0 0 0-28.544-197.76 408.48 408.48 0 0 0-221.536-223.52 408.448 408.448 0 0 0-314.688-1.376C253.152 169.984 173.76 248.672 131.296 349.952s-42.944 213.024-1.376 314.688a408.416 408.416 0 0 0 221.536 223.488 408.224 408.224 0 0 0 314.656 1.376 17.6 17.6 0 0 1 22.816 9.568 17.568 17.568 0 0 1-9.568 22.816 445.568 445.568 0 0 1-168.928 33.44z" p-id="40033"></path><path d="M826.88 820.448l-0.672-0.032a17.44 17.44 0 0 1-16.8-18.08l4.448-115.584c0.32-9.664 8.384-18.016 18.112-16.768a17.408 17.408 0 0 1 16.768 18.08l-4.416 115.584a17.536 17.536 0 0 1-17.44 16.8z" p-id="40034"></path><path d="M942.432 824.832l-0.672-0.032-115.552-4.416a17.44 17.44 0 0 1-16.8-18.08c0.384-9.696 8-17.952 18.112-16.8l115.552 4.416a17.44 17.44 0 0 1-0.64 34.912zM788.608 437.344c-23.936-21.952-57.664-33.44-94.304-33.44h-112.64V384c0-15.616-8.448-31.328-23.904-42.784a94.24 94.24 0 0 0-56.352-17.76h-201.28c-21.12 0-40.8 6.272-56.288 17.76-15.488 11.456-23.936 26.112-23.936 42.784v262.208c0 6.304 7.04 11.488 15.488 11.488h57.696l1.44 3.2c8.416 22.88 37.984 39.616 70.368 39.616 32.352 0 60.512-16.736 70.368-39.616l1.376-3.2h175.968l1.472 3.2c8.384 22.88 37.952 39.616 70.336 39.616s61.92-16.736 70.4-39.616l1.344-3.2h52.096c9.92 0 16.928-5.184 16.928-11.488v-122.272c0.032-35.424-12.64-64.672-36.576-86.592zM366.304 675.52c-22.56 0-40.832-13.696-40.832-30.368 0-16.736 18.304-30.24 40.832-30.24 22.528 0 40.8 13.504 40.8 30.24-1.376 17.76-18.272 30.368-40.8 30.368z m181.568-41.792H438.08l-1.408-3.2c-8.416-23.008-37.984-39.68-70.368-39.68-32.384 0-61.952 15.68-70.4 39.68l-1.344 3.2H252.256V384c0-19.84 21.152-36.544 47.904-36.544h199.904c12.672 0 25.344 4.192 33.76 10.464 9.92 6.272 14.08 15.648 14.08 25.056v250.752z m136.576 41.792c-22.528 0-40.8-13.696-40.8-30.368 0-16.736 18.272-30.24 40.8-30.24s40.8 13.504 40.8 30.24c-1.408 16.704-19.712 30.368-40.8 30.368z m108.32-42.848H756.16l-1.344-3.2c-8.512-22.944-38.016-39.68-70.4-39.68s-61.984 16.736-70.336 39.68l-1.472 3.2h-30.976V534.4h94.272v-22.944h-94.272v-83.52h112.64c29.568 0 53.504 9.408 71.776 26.08 16.928 16.736 26.72 40.768 26.72 68.992v109.664z" p-id="40035"></path></svg>