<?xml version="1.0" encoding="UTF-8"?>
<svg width="64px" height="64px" viewBox="0 0 64 64" version="1.1" xmlns="http://www.w3.org/2000/svg" xmlns:xlink="http://www.w3.org/1999/xlink">
    <!-- Generator: Sketch 52.3 (67297) - http://www.bohemiancoding.com/sketch -->
    <title>分组 2</title>
    <desc>Created with Sketch.</desc>
    <g id="Page-1" stroke="none" stroke-width="1" fill="none" fill-rule="evenodd">
        <g id="查看物流" transform="translate(-158.000000, -1896.000000)">
            <g id="Group" transform="translate(48.000000, 594.000000)">
                <g id="分组-10" transform="translate(110.000000, 1302.000000)">
                    <g id="分组-2">
                        <path d="M32,62 C48.5685425,62 62,48.5685425 62,32 C62,15.4314575 48.5685425,2 32,2 C15.4314575,2 2,15.4314575 2,32 C2,48.5685425 15.4314575,62 32,62 Z" id="Oval-61" stroke="#949497" stroke-width="3"></path>
                        <path d="M48.8055627,44.7968171 L46.3680048,44.7968171 C45.8434302,47.0637841 43.8472658,48.6666667 41.5486525,48.6666667 C39.2500391,48.6666667 37.2538748,47.0637841 36.7293002,44.7968171 L27.2708725,44.7968171 C26.7462979,47.0637841 24.7501336,48.6666667 22.4515202,48.6666667 C20.1529069,48.6666667 18.1567425,47.0637841 17.6321679,44.7968171 L15.19461,44.7968171 C14.4588748,44.5773712 13.8834769,43.9945142 13.6668394,43.2492414 L13.6668394,21.2156324 C13.6556275,19.8707708 14.1906498,18.5803679 15.1464852,17.6469228 C16.0668871,16.7022419 17.3218039,16.1693082 18.6320938,16.1666667 L31.083424,16.1666667 C32.388904,16.1666667 32.8403602,16.6889735 33.8013279,17.6469228 C34.668834,18.4555409 35.1297196,19.6175736 35.0556275,20.8093938 L35.0556275,22.3569695 L41.9305951,22.3569695 C44.2944358,22.3715029 46.535191,23.426621 48.0699412,25.2478409 C49.5503509,27.0770753 50.3333333,28.3925147 50.3333333,31.3514794 L50.3333333,43.2492414 C50.1443045,44.0107446 49.5573206,44.6053378 48.8055627,44.7968171 Z M22.4515202,46.3443928 C23.9281079,46.3443928 25.1251188,45.1318646 25.1251188,43.6361353 C25.1251188,42.140406 23.9281079,40.9278778 22.4515202,40.9278778 C20.9749325,40.9278778 19.7779217,42.140406 19.7779217,43.6361353 C19.7779217,45.1318646 20.9749325,46.3443928 22.4515202,46.3443928 Z M32.3148071,19.039741 C31.8117826,18.5881972 31.1368566,18.3860991 30.4723158,18.4880302 L19.0140364,18.4880302 C17.3394919,18.5193739 15.9894379,19.8869293 15.9584953,21.5831816 L15.9584953,42.4754535 L17.6321679,42.4754535 C18.1567425,40.2084865 20.1529069,38.6056039 22.4515202,38.6056039 C24.7501336,38.6056039 26.7462979,40.2084865 27.2708725,42.4754535 L32.7639716,42.4754535 L32.7639716,20.8093938 C32.9107687,20.1805793 32.7428131,19.5188546 32.3148071,19.039741 Z M41.5486525,46.3443928 C42.6300221,46.3443928 43.6049132,45.6845471 44.0187355,44.6725406 C44.4325577,43.6605341 44.203816,42.4956643 43.4391722,41.7211081 C42.6745284,40.9465519 41.524566,40.7148448 40.5255107,41.1340316 C39.5264554,41.5532184 38.875054,42.5407474 38.875054,43.6361353 C38.875054,45.1318646 40.0720648,46.3443928 41.5486525,46.3443928 Z M48.0416775,31.6424237 C48.0416775,29.2916562 47.7216095,28.0334771 46.6773783,26.640659 C45.465408,25.2989883 43.7232224,24.5787666 41.9305951,24.678333 L35.0556275,24.678333 L35.0556275,30.8686358 L41.1667099,30.8686358 L41.1667099,33.1899993 L35.0556275,33.1899993 L35.0556275,42.4754535 L36.7293002,42.4754535 C37.2538748,40.2084865 39.2500391,38.6056039 41.5486525,38.6056039 C43.8472658,38.6056039 45.8434302,40.2084865 46.3680048,42.4754535 L48.0416775,42.4754535 L48.0416775,31.6424237 Z" id="形状" fill="#949497" fill-rule="nonzero"></path>
                    </g>
                </g>
            </g>
        </g>
    </g>
</svg>