<?xml version="1.0" encoding="UTF-8"?>
<svg width="469px" height="482px" viewBox="0 0 469 482" version="1.1" xmlns="http://www.w3.org/2000/svg" xmlns:xlink="http://www.w3.org/1999/xlink">
    <!-- Generator: Sketch 52.3 (67297) - http://www.bohemiancoding.com/sketch -->
    <title>Group 5</title>
    <desc>Created with Sketch.</desc>
    <g id="Page-1" stroke="none" stroke-width="1" fill="none" fill-rule="evenodd">
        <g id="购物车-空" transform="translate(-328.000000, -384.000000)" fill-rule="nonzero">
            <g id="Group-5" transform="translate(328.000000, 384.000000)">
                <path d="M434.244989,425 L58.7550108,425 C36.7504049,390.484948 24,349.494905 24,305.52649 C24,252.00394 42.8936537,202.894766 74.3745147,164.506163 L133.981869,224.120438 C133.982012,224.120581 133.982155,224.120724 133.982299,224.120867 C135.972187,226.110512 139.198236,226.110315 141.187881,224.120427 C143.177833,222.130232 143.177828,218.903746 141.18787,216.913557 L81.0344038,156.753107 C88.1656156,148.825079 95.8582827,141.412283 104.049792,134.577339 L145.310962,175.843421 C145.311296,175.843755 145.31163,175.844089 145.311963,175.844422 C149.955029,180.486935 157.482477,180.486487 162.12499,175.843421 C166.768217,171.199641 166.768217,163.671172 162.12499,159.027392 L123.299915,120.197695 C158.573399,96.6966681 200.937376,83 246.5,83 C369.383357,83 469,182.628503 469,305.52649 C469,349.494905 456.249595,390.484948 434.244989,425 Z M115.168584,382.191343 L118.35934,387.244926 L120.429672,381.63838 L126.221913,380.165434 L121.529539,376.463914 L121.918584,370.5 L116.948206,373.81888 L111.396409,371.605925 L113.01692,377.358626 L109.196675,381.954858 L115.168584,382.191343 Z M86,240 C89.8659932,240 93,236.865993 93,233 C93,229.134007 89.8659932,226 86,226 C82.1340068,226 79,229.134007 79,233 C79,236.865993 82.1340068,240 86,240 Z M378.856406,230.78461 L384.528862,239.768757 L388.209451,229.801565 L398.506768,227.182994 L390.16477,220.602513 L390.856406,210 L382.020179,215.900231 L372.150317,211.966089 L375.031226,222.193113 L368.239679,230.364193 L378.856406,230.78461 Z M240.856406,194.78461 L246.528862,203.768757 L250.209451,193.801565 L260.506768,191.182994 L252.16477,184.602513 L252.856406,174 L244.020179,179.900231 L234.150317,175.966089 L237.031226,186.193113 L230.239679,194.364193 L240.856406,194.78461 Z M437,357 C440.865993,357 444,353.865993 444,350 C444,346.134007 440.865993,343 437,343 C433.134007,343 430,346.134007 430,350 C430,353.865993 433.134007,357 437,357 Z" id="Combined-Shape" fill="#F4F4F4"></path>
                <path d="M96.2328135,97.1320317 L216.26643,97.0819558 C227.588266,97.0782514 236.769432,106.253411 236.773136,117.575247 C236.773137,117.578849 236.773137,117.582451 236.773137,117.586052 L236.750445,122.999116 C236.748182,134.316734 227.57477,143.491314 216.257152,143.495017 L96.2235398,143.555901 C84.901703,143.559605 75.7205379,134.384446 75.7168335,123.062609 C75.7168323,123.059008 75.7168321,123.055406 75.7168328,123.051804 L75.7395248,117.638741 C75.741787,106.321123 84.9151996,97.1465425 96.232817,97.1428395 Z" id="Rectangle" fill="#F4F4F4" transform="translate(156.244985, 120.318928) rotate(-315.000000) translate(-156.244985, -120.318928) "></path>
                <path d="M60.8904239,149.718774 L163.205444,149.686947 C171.953692,149.684225 179.047754,156.773875 179.050475,165.522123 C179.050476,165.524876 179.050476,165.527628 179.050476,165.530381 L179.050476,165.530381 C179.048635,174.284527 171.952926,181.380952 163.19878,181.383675 L60.88376,181.415503 C52.135512,181.418224 45.0414498,174.328574 45.0387284,165.580326 C45.0387276,165.577574 45.0387274,165.574821 45.038728,165.572069 L45.038728,165.572069 C45.0405685,156.817923 52.136278,149.721497 60.8904239,149.718774 Z" id="Rectangle-Copy" fill="#F4F4F4" transform="translate(112.044602, 165.551225) rotate(-315.000000) translate(-112.044602, -165.551225) "></path>
                <path d="M54.9870339,187.745006 L131.964804,187.725321 C136.963852,187.724042 141.017417,191.775535 141.018696,196.774583 C141.018696,196.776126 141.018696,196.77767 141.018696,196.779213 L141.018696,196.779213 C141.017417,201.781568 136.962526,205.836458 131.960172,205.837737 L54.9824019,205.857423 C49.9833538,205.858701 45.9297882,201.807208 45.9285097,196.80816 C45.9285093,196.806617 45.9285093,196.805074 45.9285097,196.803531 L45.9285097,196.803531 C45.929789,191.801176 49.9846791,187.746286 54.9870339,187.745006 Z" id="Rectangle-Copy-2" fill="#F4F4F4" transform="translate(93.473603, 196.791372) rotate(-315.000000) translate(-93.473603, -196.791372) "></path>
                <g id="Group-4" transform="translate(144.000000, 152.000000)">
                    <path d="M29.3347478,97 L164.695867,97 C169.66643,97 173.695867,101.029437 173.695867,106 C173.695867,106.818653 173.58417,107.633479 173.363868,108.421934 L155.202162,173.421934 C154.115572,177.310792 150.571969,180 146.534161,180 L40.3686248,180 C35.9792807,180 32.2301499,176.833658 31.4955588,172.50622 L20.4616818,107.50622 C19.6298193,102.605761 22.9280685,97.9587965 27.8285276,97.126934 C28.3261533,97.042461 28.8300033,97 29.3347478,97 Z" id="矩形" fill="#D8D8D8" transform="translate(97.500000, 138.500000) scale(-1, 1) translate(-97.500000, -138.500000) "></path>
                    <path d="M154,247 C147.372583,247 142,241.403559 142,234.5 C142,227.596441 147.372583,222 154,222 C160.627417,222 166,227.596441 166,234.5 C166,241.403559 160.627417,247 154,247 Z" id="椭圆形" fill="#D8D8D8"></path>
                    <path d="M54,245 C47.372583,245 42,239.403559 42,232.5 C42,225.596441 47.372583,220 54,220 C60.627417,220 66,225.596441 66,232.5 C66,239.403559 60.627417,245 54,245 Z" id="椭圆形-copy" fill="#D8D8D8"></path>
                    <path d="M17.3059661,86.5 C16.6249108,86.5 15.9449947,86.5556602 15.273007,86.6664248 C8.46136149,87.7891971 3.84961857,94.2213136 4.97239086,101.032959 L16.1809184,169.032959 C17.1760818,175.070426 22.3955594,179.5 28.5144936,179.5 L142.575502,179.5 C148.218512,179.5 153.161779,175.719192 154.639375,170.273067 L173.088555,102.273067 C173.378027,101.206131 173.524682,100.105508 173.524682,99 C173.524682,92.0964406 167.928242,86.5 161.024682,86.5 L17.3059661,86.5 Z" id="矩形" stroke="#949497" stroke-width="5" transform="translate(90.000000, 133.000000) scale(-1, 1) translate(-90.000000, -133.000000) "></path>
                    <ellipse id="椭圆形" stroke="#979797" stroke-width="5" transform="translate(149.500000, 233.000000) scale(-1, 1) translate(-149.500000, -233.000000) " cx="149.5" cy="233" rx="14.5" ry="14"></ellipse>
                    <ellipse id="椭圆形-copy" stroke="#979797" stroke-width="5" transform="translate(49.500000, 233.000000) scale(-1, 1) translate(-49.500000, -233.000000) " cx="49.5" cy="233" rx="14.5" ry="14"></ellipse>
                    <path d="M108.344727,151.19682 L176.659345,151.114672 C177.989517,151.113073 179.06913,152.190093 179.07073,153.520265 C179.070732,153.522196 179.070732,153.524127 179.07073,153.526058 L179.07073,153.526058 C179.069125,154.860372 177.98785,155.941646 176.653537,155.943251 L108.338919,156.025398 C107.008747,156.026998 105.929133,154.949977 105.927534,153.619805 C105.927532,153.617874 105.927532,153.615943 105.927534,153.614012 L105.927534,153.614012 C105.929139,152.279699 107.010414,151.198424 108.344727,151.19682 Z" id="矩形" fill="#949497" transform="translate(142.499132, 153.570035) scale(-1, 1) rotate(-319.000000) translate(-142.499132, -153.570035) "></path>
                    <path d="M76.4230861,137.678031 L187.519573,137.544439 C188.849745,137.542839 189.929359,138.61986 189.930958,139.950031 C189.930961,139.951962 189.930961,139.953894 189.930958,139.955825 L189.930958,139.955825 C189.929353,141.290138 188.848078,142.371413 187.513765,142.373017 L76.4172778,142.506609 C75.0871061,142.508209 74.0074923,141.431188 74.0058927,140.101017 C74.0058904,140.099085 74.0058904,140.097154 74.0058927,140.095223 L74.0058927,140.095223 C74.0074978,138.76091 75.0887726,137.679635 76.4230861,137.678031 Z" id="矩形-copy" fill="#949497" transform="translate(131.968425, 140.025524) scale(-1, 1) rotate(-319.000000) translate(-131.968425, -140.025524) "></path>
                    <path d="M45.04497,129.087135 L178.912452,128.926161 C180.242624,128.924561 181.322238,130.001582 181.323837,131.331754 C181.323839,131.333685 181.323839,131.335616 181.323837,131.337547 L181.323837,131.337547 C181.322232,132.671861 180.240957,133.753135 178.906644,133.754739 L45.0391617,133.915714 C43.70899,133.917313 42.6293761,132.840292 42.6277766,131.510121 C42.6277743,131.50819 42.6277743,131.506259 42.6277766,131.504327 L42.6277766,131.504327 C42.6293816,130.170014 43.7106565,129.08874 45.04497,129.087135 Z" id="矩形-copy-3" fill="#949497" transform="translate(111.975807, 131.420937) scale(-1, 1) rotate(-319.000000) translate(-111.975807, -131.420937) "></path>
                    <rect id="矩形" fill="#949497" transform="translate(92.000000, 199.000000) scale(-1, 1) translate(-92.000000, -199.000000) " x="30" y="196" width="124" height="6" rx="3"></rect>
                    <path d="M161.069006,3.7697084 C167.210564,2.356041 175.809261,1.64897328 186.865096,1.64850524 C203.448849,1.64780318 208.087077,13.9261365 209.641294,22.3198252 C210.677438,27.9156177 219.802102,78.4711478 237.015283,173.986415" id="Path-6" stroke="#949497" stroke-width="5" stroke-linecap="round" transform="translate(199.042144, 87.817460) scale(-1, 1) rotate(1.000000) translate(-199.042144, -87.817460) "></path>
                </g>
                <g id="Group-3" transform="translate(29.000000, 425.000000)" fill="#ACACAC">
                    <rect id="Rectangle" x="0" y="0" width="435" height="10" rx="5"></rect>
                    <g id="Group" transform="translate(48.000000, 24.000000)">
                        <rect id="Rectangle-Copy-5" x="0" y="0" width="156" height="9" rx="4.5"></rect>
                        <rect id="Rectangle-Copy-6" x="183" y="0" width="156" height="9" rx="4.5"></rect>
                        <ellipse id="Oval" cx="169.5" cy="4.125" rx="5.5" ry="4.125"></ellipse>
                    </g>
                    <g id="Group-2" transform="translate(90.000000, 48.000000)">
                        <rect id="Rectangle-Copy-7" x="0" y="0" width="63" height="9" rx="4.5"></rect>
                        <rect id="Rectangle-Copy-8" x="87" y="0" width="169" height="9" rx="4.5"></rect>
                    </g>
                </g>
                <polygon id="Star" fill="#F4F4F4" transform="translate(203.400802, 29.081727) rotate(-28.000000) translate(-203.400802, -29.081727) " points="203.400802 39.5817268 191.057312 46.0710837 193.414709 32.3264052 183.428615 22.5923699 197.229057 20.5870483 203.400802 8.08172678 209.572547 20.5870483 223.372989 22.5923699 213.386896 32.3264052 215.744293 46.0710837"></polygon>
                <polygon id="Star-Copy-3" fill="#F4F4F4" transform="translate(12.847982, 136.847982) rotate(-28.000000) translate(-12.847982, -136.847982) " points="12.847982 141.597982 7.26402208 144.533643 8.33046353 138.315813 3.81294507 133.912321 10.056002 133.005151 12.847982 127.347982 15.6399619 133.005151 21.8830189 133.912321 17.3655004 138.315813 18.4319419 144.533643"></polygon>
            </g>
        </g>
    </g>
</svg>