<?xml version="1.0" encoding="UTF-8"?>
<svg width="155px" height="155px" viewBox="0 0 155 155" version="1.1" xmlns="http://www.w3.org/2000/svg" xmlns:xlink="http://www.w3.org/1999/xlink">
    <!-- Generator: Sketch 52.3 (67297) - http://www.bohemiancoding.com/sketch -->
    <title>Group</title>
    <desc>Created with Sketch.</desc>
    <g id="Page-1" stroke="none" stroke-width="1" fill="none" fill-rule="evenodd">
        <g id="购物车" transform="translate(-110.000000, -184.000000)">
            <g id="Group" transform="translate(110.000000, 184.000000)">
                <rect id="Rectangle" fill="#D8D8D8" fill-rule="nonzero" opacity="0" x="0" y="0" width="155" height="155"></rect>
                <g id="Group-4" transform="translate(0.000000, 8.266667)">
                    <g id="Group-Copy" transform="translate(0.000000, 19.633333)">
                        <path d="M123.671389,17.1130081 L110.925034,68.9995003 L45.559264,68.9995003 L32.968471,19.6070361 C32.6956269,18.5366951 33.3421259,17.4478284 34.4124669,17.1749843 C34.5739185,17.1338281 34.7398802,17.1130081 34.9064949,17.1130081 L123.671389,17.1130081 Z" id="Path" fill="#E1E1E7"></path>
                        <ellipse id="Oval" fill="#EFEFF4" cx="50.894081" cy="91.0656504" rx="7.78380062" ry="7.9453252"></ellipse>
                        <ellipse id="Oval" fill="#EFEFF4" cx="107.176947" cy="91.0656504" rx="7.78380062" ry="7.9453252"></ellipse>
                        <path d="M50.0415575,97.8729048 C54.3404318,97.8729048 57.4053184,95.9687837 57.4053184,91.5807017 C57.4053184,87.1926198 57.587971,84.3426829 53.2890966,84.3426829 C48.9902222,84.3426829 45.505296,87.8999262 45.505296,92.2880081 C45.505296,96.6760901 45.7426831,97.8729048 50.0415575,97.8729048 Z" id="Oval" fill="#E1E1E7"></path>
                        <path d="M108.061933,97.5981912 C112.360807,97.5981912 114.335704,96.6760901 114.335704,92.2880081 C114.335704,87.8999262 113.870837,84.3426829 109.571963,84.3426829 C105.273088,84.3426829 101.788162,87.8999262 101.788162,92.2880081 C101.788162,96.6760901 103.763059,97.5981912 108.061933,97.5981912 Z" id="Oval" fill="#E1E1E7"></path>
                        <path d="M125.206069,95.4657643 L114.271636,95.4657643 C115.971542,93.136976 116.579741,90.1717917 115.936205,87.350402 L118.477904,87.350402 C122.082793,87.350402 125.005133,84.3920182 125.005133,80.7426669 C125.005133,77.0933155 122.082793,74.1349318 118.477904,74.1349318 L41.0970194,74.1349318 L40.2245479,70.5972847 L111.178964,70.5972847 C112.115288,70.5990034 112.932219,69.9544243 113.159206,69.0348239 L127.182817,12.3817647 C127.3359,11.7646789 127.199072,11.110609 126.812032,10.6093179 C126.424992,10.1080268 125.831069,9.81563405 125.202575,9.81697059 L34.111423,9.81697059 C32.9855989,9.81697059 32.0729382,10.7408881 32.0729382,11.880598 C32.0729382,13.020308 32.9855989,13.9442255 34.111423,13.9442255 L42.5169697,13.9442255 L45.0190642,24.6456078 L28.8998909,24.6456078 L24.240497,5.72980902 C23.5186677,2.78440681 20.9049326,0.717559894 17.9072158,0.72168 L7.38513939,0.72168 C3.78025064,0.72168 0.857910909,3.68006377 0.857910909,7.3294151 C0.857910909,10.9787664 3.78025064,13.9371502 7.38513939,13.9371502 L12.8063442,13.9371502 L29.6663612,82.3422729 C30.3876694,85.2855386 32.9982728,87.3518092 35.9938182,87.350402 L39.8168509,87.350402 C39.1733147,90.1717917 39.7815134,93.136976 41.4814194,95.4657643 L13.2350085,95.4657643 C12.1091844,95.4657643 11.1965236,96.3896818 11.1965236,97.5293918 C11.1965236,98.6691017 12.1091844,99.5930192 13.2350085,99.5930192 L125.206069,99.5930192 C126.331893,99.5930192 127.244554,98.6691017 127.244554,97.5293918 C127.244554,96.3896818 126.331893,95.4657643 125.206069,95.4657643 Z M100.44139,89.5614314 C100.44139,86.3012096 103.052122,83.6582776 106.272622,83.6582776 C109.493122,83.6582776 112.103853,86.3012096 112.103853,89.5614314 C112.103853,92.8216532 109.493122,95.4645851 106.272622,95.4645851 C103.053718,95.4606865 100.445241,92.8200369 100.44139,89.5614314 Z M100.221234,28.7728627 L97.9637576,38.4589404 L82.8836291,38.4589404 C81.757805,38.4589405 80.8451444,39.3828579 80.8451444,40.5225678 C80.8451444,41.6622778 81.757805,42.5861952 82.8836291,42.5861953 L97.0004279,42.5861953 L94.7417867,52.2687353 L76.7064376,52.2687353 L76.4944352,40.5261055 L76.4944352,40.517851 L76.2812679,28.7728627 L100.221234,28.7728627 Z M76.2067176,24.6456078 L76.0133527,13.935971 L103.681999,13.935971 L101.184564,24.6456078 L76.2067176,24.6456078 Z M116.522124,38.4554027 L108.897025,38.4554027 C107.771201,38.4554028 106.858541,39.3793203 106.858541,40.5190302 C106.858541,41.6587401 107.771201,42.5826576 108.897025,42.5826576 L115.500552,42.5826576 L113.106788,52.2687353 L98.9305818,52.2687353 L101.458303,41.43646 C101.600971,41.1533352 101.676358,40.8403955 101.678459,40.5225678 L101.678459,40.5025212 L104.410029,28.7728627 L118.919382,28.7728627 L116.522124,38.4554027 Z M76.9627042,66.4676714 L76.7809879,56.394811 L93.778457,56.394811 L91.4289576,66.4676714 L76.9627042,66.4676714 Z M58.9623006,66.4676714 L56.6116364,56.3959902 L72.7028533,56.3959902 L72.8845697,66.4688506 L58.9623006,66.4676714 Z M72.3790255,38.4589404 L52.4286655,38.4589404 L50.1700242,28.7728627 L72.2042982,28.7728627 L72.3790255,38.4589404 Z M72.4535758,42.5861953 L72.628303,52.2687353 L55.6506364,52.2687353 L53.3919952,42.5861953 L72.4535758,42.5861953 Z M51.4606764,52.2687353 L35.7072655,52.2687353 L33.3204909,42.5861953 L49.2020352,42.5861953 L51.4606764,52.2687353 Z M36.7241782,56.3959902 L52.4181818,56.3959902 L54.7676812,66.4688506 L39.2076352,66.4688506 L36.7241782,56.3959902 Z M109.587781,66.4688506 L95.6189176,66.4688506 L97.9637576,56.3959902 L112.081721,56.3959902 L109.587781,66.4688506 Z M119.942119,24.6456078 L105.373359,24.6456078 L107.870794,13.935971 L122.593314,13.935971 L119.942119,24.6456078 Z M46.7104242,13.9395086 L71.936383,13.9395086 L72.1297479,24.6491455 L49.2078594,24.6491455 L46.7104242,13.9395086 Z M45.9812291,28.7728627 L48.2398703,38.4554027 L32.3035782,38.4554027 L29.9168036,28.7728627 L45.9812291,28.7728627 Z M35.9938182,83.2231471 C34.8686088,83.2247049 33.8874835,82.4490053 33.6163624,81.3434773 L16.3766048,11.3770729 C16.1496999,10.4572486 15.3328827,9.81227303 14.3963624,9.81343294 L7.38513939,9.81343294 C6.03189883,9.81343294 4.93488061,8.70288413 4.93488061,7.33295275 C4.93488061,5.96302136 6.03189883,4.85247255 7.38513939,4.85247255 L17.9048861,4.85247255 C19.0300955,4.85091474 20.0112207,5.62661435 20.2823418,6.73214235 L37.5220994,76.6985467 C37.7490044,77.618371 38.5658215,78.2633466 39.5023418,78.2621867 L118.470915,78.2621867 C119.824156,78.2621867 120.921174,79.3727355 120.921174,80.7426669 C120.921174,82.1125982 119.824156,83.2231471 118.470915,83.2231471 L113.941984,83.2231471 C112.063497,80.887336 109.246204,79.5315652 106.270875,79.5315652 C103.295545,79.5315652 100.478252,80.887336 98.5997648,83.2231471 L65.2163721,83.2231471 C64.090548,83.2231471 63.1778873,84.1470645 63.1778873,85.2867745 C63.1778873,86.4264845 64.090548,87.350402 65.2163721,87.350402 L96.6160279,87.350402 C95.9724917,90.1717917 96.5806904,93.136976 98.2805964,95.4657643 L57.4724594,95.4657643 C60.5782516,91.0791268 59.6954572,84.990584 55.4754362,81.6924998 C51.2554152,78.3944155 45.2134674,79.0710461 41.807577,83.2231471 L35.9938182,83.2231471 Z M43.6468727,89.5614314 C43.6468727,86.3012096 46.257604,83.6582776 49.4781042,83.6582776 C52.6986045,83.6582776 55.3093358,86.3012096 55.3093358,89.5614314 C55.3093358,92.8216532 52.6986045,95.4645851 49.4781042,95.4645851 C46.2592005,95.4606865 43.6507239,92.8200369 43.6468727,89.5614314 Z" id="Shape" fill="#ACACAC" fill-rule="nonzero"></path>
                        <path d="M4.49864485,95.4657643 L2.89697818,95.4657643 C1.77115409,95.4657643 0.858493333,96.3896818 0.858493333,97.5293918 C0.858493333,98.6691017 1.77115409,99.5930192 2.89697818,99.5930192 L4.49864485,99.5930192 C5.62446894,99.5930192 6.5371297,98.6691017 6.5371297,97.5293918 C6.5371297,96.3896818 5.62446894,95.4657643 4.49864485,95.4657643 Z" id="Path" fill="#ACACAC"></path>
                    </g>
                    <path d="M53.7333333,6.2 L60.9666667,17.5666667" id="Path-2-Copy-2" stroke="#ACACAC" stroke-width="3.4" stroke-linecap="round"></path>
                    <path d="M88.8666667,6.2 L95.0666667,16.5333333" id="Path-2-Copy-3" stroke="#ACACAC" stroke-width="3.4" stroke-linecap="round" transform="translate(91.966667, 11.366667) scale(-1, 1) translate(-91.966667, -11.366667) "></path>
                    <path d="M74.9166667,0 L74.9166667,17.5666667" id="Path-2-Copy-4" stroke="#ACACAC" stroke-width="3.4" stroke-linecap="round"></path>
                    <path d="" id="Path-3-Copy" stroke="#979797"></path>
                    <path d="" id="Path-4-Copy" stroke="#979797"></path>
                    <path d="M145.7,117.8 C145.7,112.093058 142.924165,107.466667 139.5,107.466667 C136.075835,107.466667 133.3,112.093058 133.3,117.8" id="Path-Copy-2" stroke="#ACACAC" stroke-width="3" stroke-linecap="round"></path>
                    <path d="M152.933333,117.8 C152.933333,114.946529 151.314097,112.633333 149.316667,112.633333 C147.319237,112.633333 145.7,114.946529 145.7,117.8" id="Path-Copy-3" stroke="#ACACAC" stroke-width="3" stroke-linecap="round"></path>
                </g>
            </g>
        </g>
    </g>
</svg>