<?xml version="1.0" standalone="no"?><!DOCTYPE svg PUBLIC "-//W3C//DTD SVG 1.1//EN" "http://www.w3.org/Graphics/SVG/1.1/DTD/svg11.dtd"><svg t="1562663579493" class="icon" viewBox="0 0 1024 1024" version="1.1" xmlns="http://www.w3.org/2000/svg" p-id="64134" xmlns:xlink="http://www.w3.org/1999/xlink" width="200" height="200"><defs><style type="text/css"></style></defs><path d="M512 64C265.6 64 67.2 265.6 67.2 512S265.6 956.8 512 956.8 956.8 758.4 956.8 512 758.4 64 512 64z" fill="#FF375B" p-id="64135"></path><path d="M512 777.6c-32 0-60.8-25.6-60.8-60.8 0-32 25.6-60.8 60.8-60.8 32 0 60.8 25.6 60.8 60.8 0 35.2-28.8 60.8-60.8 60.8z m28.8-236.8c0 32-12.8 60.8-28.8 60.8s-28.8-25.6-28.8-60.8L454.4 272c0-32 25.6-60.8 60.8-60.8 32 0 60.8 25.6 60.8 60.8l-35.2 268.8z" fill="#FFFFFF" p-id="64136"></path></svg>