<?xml version="1.0" encoding="UTF-8"?>
<svg width="120px" height="120px" viewBox="0 0 120 120" version="1.1" xmlns="http://www.w3.org/2000/svg" xmlns:xlink="http://www.w3.org/1999/xlink">
    <!-- Generator: Sketch 52.3 (67297) - http://www.bohemiancoding.com/sketch -->
    <title>订单信息 copy 11</title>
    <desc>Created with Sketch.</desc>
    <g id="页面啊" stroke="none" stroke-width="1" fill="none" fill-rule="evenodd">
        <g id="消息中心" transform="translate(-108.000000, -750.000000)">
            <g id="订单信息-copy-11" transform="translate(108.000000, 750.000000)">
                <g id="系统消息">
                    <circle id="椭圆形-copy-4" fill="#7CD1FF" fill-rule="nonzero" cx="60" cy="60" r="60"></circle>
                    <g id="设置" stroke-width="1" fill-rule="evenodd" transform="translate(26.666667, 26.666667)" fill="#FFFFFF">
                        <path d="M64.1666667,25 L59.4875,25 C57.26,25 56.145,22.3075 57.72,20.7325 L61.0291667,17.4233333 C62.0058333,16.4466667 62.0058333,14.8641667 61.0291667,13.8875 L52.78,5.6375 C52.2916667,5.14916667 51.6516667,4.905 51.0125,4.905 C50.3733333,4.905 49.7325,5.14916667 49.245,5.6375 L45.9358333,8.94666667 C45.4266667,9.45583333 44.8,9.68416667 44.1858333,9.68416667 C42.9008333,9.68416667 41.6675,8.68583333 41.6675,7.17916667 L41.6675,2.5 C41.6675,1.11916667 40.5483333,0 39.1675,0 L27.5,0 C26.1191667,0 25,1.11916667 25,2.5 L25,7.17916667 C25,8.68583333 23.7666667,9.68416667 22.4816667,9.68416667 C21.8675,9.68416667 21.2416667,9.45666667 20.7316667,8.94666667 L17.4225,5.6375 C16.9341667,5.14916667 16.2941667,4.905 15.655,4.905 C15.0158333,4.905 14.375,5.14916667 13.8875,5.6375 L5.63833333,13.8875 C4.66166667,14.8641667 4.66166667,16.4466667 5.63833333,17.4233333 L8.9475,20.7325 C10.5216667,22.3075 9.40666667,25 7.17916667,25 L2.5,25 C1.11916667,25 0,26.1191667 0,27.5 L0,39.1666667 C0,40.5475 1.11916667,41.6666667 2.5,41.6666667 L7.17916667,41.6666667 C9.40666667,41.6666667 10.5216667,44.3591667 8.94666667,45.9341667 L5.6375,49.2433333 C4.66083333,50.22 4.66083333,51.8025 5.6375,52.7791667 L13.8866667,61.0291667 C14.375,61.5175 15.015,61.7616667 15.6541667,61.7616667 C16.2933333,61.7616667 16.9341667,61.5175 17.4216667,61.0291667 L20.7308333,57.72 C21.24,57.2108333 21.8666667,56.9825 22.4808333,56.9825 C23.7658333,56.9825 24.9991667,57.9808333 24.9991667,59.4875 L24.9991667,64.1666667 C24.9991667,65.5475 26.1183333,66.6666667 27.4991667,66.6666667 L39.1658333,66.6666667 C40.5466667,66.6666667 41.6658333,65.5475 41.6658333,64.1666667 L41.6658333,59.4875 C41.6658333,57.9808333 42.8991667,56.9825 44.1841667,56.9825 C44.7983333,56.9825 45.4241667,57.21 45.9341667,57.72 L49.2433333,61.0291667 C49.7316667,61.5175 50.3716667,61.7616667 51.0108333,61.7616667 C51.65,61.7616667 52.2908333,61.5175 52.7783333,61.0291667 L61.0275,52.7791667 C62.0041667,51.8025 62.0041667,50.22 61.0275,49.2433333 L57.7183333,45.9341667 C56.145,44.3591667 57.26,41.6666667 59.4875,41.6666667 L64.1666667,41.6666667 C65.5475,41.6666667 66.6666667,40.5475 66.6666667,39.1666667 L66.6666667,27.5 C66.6666667,26.1191667 65.5475,25 64.1666667,25 Z M63.3333333,38.3333333 L59.4875,38.3333333 C57.12,38.3333333 55.0041667,39.7466667 54.0983333,41.9341667 C53.1925,44.1216667 53.6883333,46.6166667 55.3625,48.2908333 L58.0816667,51.01 L51.0108333,58.0808333 L48.2916667,55.3616667 C47.1866667,54.2566667 45.7283333,53.6483333 44.185,53.6483333 C40.9583333,53.6483333 38.3333333,56.2675 38.3333333,59.4866667 L38.3333333,63.3333333 L28.3333333,63.3333333 L28.3333333,59.4875 C28.3333333,56.2683333 25.7083333,53.6491667 22.4816667,53.6491667 C20.9383333,53.6491667 19.48,54.2575 18.375,55.3625 L15.6558333,58.0816667 L8.585,51.0108333 L11.3041667,48.2916667 C12.9783333,46.6175 13.475,44.1216667 12.5683333,41.9341667 C11.6616667,39.7466667 9.5475,38.3333333 7.17916667,38.3333333 L3.33333333,38.3333333 L3.33333333,28.3333333 L7.17916667,28.3333333 C9.54666667,28.3333333 11.6625,26.92 12.5683333,24.7325 C13.4741667,22.545 12.9783333,20.05 11.3041667,18.375 L8.585,15.6558333 L15.6558333,8.585 L18.375,11.3041667 C19.48,12.4091667 20.9383333,13.0175 22.4816667,13.0175 C25.7083333,13.0175 28.3333333,10.3983333 28.3333333,7.17916667 L28.3333333,3.33333333 L38.3333333,3.33333333 L38.3333333,7.17916667 C38.3333333,10.3983333 40.9583333,13.0175 44.185,13.0175 C45.7283333,13.0175 47.1866667,12.4091667 48.2916667,11.3041667 L51.0108333,8.585 L58.0816667,15.6558333 L55.3625,18.375 C53.6883333,20.0491667 53.1916667,22.545 54.0983333,24.7325 C55.0041667,26.92 57.1191667,28.3333333 59.4875,28.3333333 L63.3333333,28.3333333 L63.3333333,38.3333333 Z" id="Shape" fill-rule="nonzero"></path>
                    </g>
                    <circle id="椭圆形" fill="#FFFFFF" fill-rule="nonzero" cx="46.6666667" cy="60" r="5"></circle>
                    <circle id="椭圆形-copy" fill="#FFFFFF" fill-rule="nonzero" cx="60" cy="60" r="5"></circle>
                    <circle id="椭圆形-copy-2" fill="#FFFFFF" fill-rule="nonzero" cx="73.3333333" cy="60" r="5"></circle>
                </g>
            </g>
        </g>
    </g>
</svg>