<svg t="1568257720424" class="icon" viewBox="0 0 1024 1024" version="1.1" xmlns="http://www.w3.org/2000/svg" p-id="2360" width="200" height="200"><path d="M 847.625 428.094 c -46.3125 0 -83.9063 37.5938 -83.9063 83.9063 s 37.5938 83.9063 83.9063 83.9063 s 83.9063 -37.5938 83.9063 -83.9063 s -37.5938 -83.9063 -83.9063 -83.9063 Z m -335.625 0 c -46.3125 0 -83.9063 37.5938 -83.9063 83.9063 s 37.5938 83.9063 83.9063 83.9063 s 83.9063 -37.5938 83.9063 -83.9063 s -37.5938 -83.9063 -83.9063 -83.9063 Z m -335.625 0 c -46.3125 0 -83.9063 37.5938 -83.9063 83.9063 s 37.5938 83.9063 83.9063 83.9063 s 83.9063 -37.5938 83.9063 -83.9063 s -37.5938 -83.9063 -83.9063 -83.9063 Z" p-id="2361" fill="#3A3A3A"></path></svg>