<?xml version="1.0" encoding="UTF-8"?>
<svg width="105px" height="60px" viewBox="0 0 105 60" version="1.1" xmlns="http://www.w3.org/2000/svg" xmlns:xlink="http://www.w3.org/1999/xlink">
    <!-- Generator: Sketch 52.3 (67297) - http://www.bohemiancoding.com/sketch -->
    <title>Combined Shape Copy 4</title>
    <desc>Created with Sketch.</desc>
    <g id="Page-1" stroke="none" stroke-width="1" fill="none" fill-rule="evenodd">
        <g id="我的钱包-copy-2" transform="translate(-894.000000, -846.000000)" fill="#949497" fill-rule="nonzero">
            <g id="Combined-Shape-Copy-4" transform="translate(894.000000, 846.000000)">
                <path d="M83.3693254,36 L6,36 C2.6862915,36 4.05812251e-16,33.3137085 0,30 C-4.05812251e-16,26.6862915 2.6862915,24 6,24 L83.7713266,24 L67.7873385,11.6563335 C65.1518574,9.62107793 64.2312399,6.05822943 65.5508556,3.00100185 C66.5128935,0.772194865 69.0995843,-0.254724396 71.3283913,0.707313485 C71.6652812,0.852727964 71.982637,1.03975454 72.2730526,1.26402864 L102.161796,24.3456702 C104.797277,26.3809258 105.717895,29.9437743 104.398279,33.0010019 C103.969746,33.9938087 103.21885,34.7481375 102.320816,35.1944233 C102.183811,35.3179011 102.041312,35.4369274 101.893413,35.551143 L72.0046695,58.6327845 C70.0833278,60.1165445 67.3229475,59.7618144 65.8391876,57.8404727 C65.6149135,57.550057 65.4278869,57.2327012 65.2824724,56.8958113 C63.9628567,53.8385837 64.8834742,50.2757352 67.5189554,48.2404797 L83.3693254,36 Z" id="Combined-Shape-Copy"></path>
            </g>
        </g>
    </g>
</svg>