<?xml version="1.0" encoding="UTF-8"?>
<svg width="198px" height="198px" viewBox="0 0 198 198" version="1.1" xmlns="http://www.w3.org/2000/svg" xmlns:xlink="http://www.w3.org/1999/xlink">
    <!-- Generator: Sketch 52.5 (67469) - http://www.bohemiancoding.com/sketch -->
    <title>钱币 copy 4</title>
    <desc>Created with Sketch.</desc>
    <g id="Page-1" stroke="none" stroke-width="1" fill="none" fill-rule="evenodd" opacity="0.0545452003">
        <g id="我的钱包" transform="translate(-753.000000, -1263.000000)" fill="#756DE5" fill-rule="nonzero">
            <g id="钱币-copy-4" transform="translate(753.000000, 1263.000000)">
                <path d="M143.111111,81 C121.333333,81 108.444444,85.2144082 101.333333,88.8267581 C92.8888889,93.0411664 88,98.8610635 88,104.480274 L88,174.519726 C88,180.339623 92.8888889,185.958834 101.333333,190.173242 C108.444444,193.785592 121.333333,198 143.111111,198 C164.666667,198 177.555556,193.785592 184.666667,190.173242 C193.111111,185.958834 198,180.339623 198,174.519726 L198,104.680961 C198,98.8610635 193.333333,93.0411664 184.888889,88.8267581 C177.777778,85.2144082 164.888889,81 143.111111,81 Z M188.444444,174.519726 C188.444444,180.740995 171.111111,189.571184 143.111111,189.571184 C115.111111,189.571184 97.7777778,180.740995 97.7777778,174.519726 L97.7777778,153.447684 L102,155.454545 C109.111111,158.866209 122,163.080617 143.111111,163.080617 C164.222222,163.080617 177.111111,158.866209 184.222222,155.454545 L188.444444,153.447684 L188.444444,174.519726 Z M188.444444,139.600343 C188.444444,145.821612 171.111111,154.651801 143.111111,154.651801 L140.222222,154.651801 C113.777778,154.049743 97.7777778,145.620926 97.7777778,139.600343 L97.7777778,118.528302 L102,120.535163 C109.111111,123.946827 122,128.161235 143.111111,128.161235 C164.222222,128.161235 177.111111,123.946827 184.222222,120.535163 L188.444444,118.528302 L188.444444,139.600343 Z M143.111111,119.531732 C115.111111,119.531732 97.7777778,110.701544 97.7777778,104.480274 C97.7777778,98.2590051 115.111111,89.4288165 143.111111,89.4288165 C171.333333,89.4288165 188.444444,98.2590051 188.444444,104.480274 C188.444444,110.90223 171.111111,119.531732 143.111111,119.531732 Z" id="Shape" opacity="0.5"></path>
                <path d="M12.7520107,53.8 C26.5160858,63 50.6032172,68.6 75.5,68.6 C100.396783,68.6 124.483914,63 138.247989,53.8 L142.296247,51.2 L142.296247,71.6 L151,71.6 L151,34.2 C151,21.6 138.450402,13.6 127.72252,9.2 C113.756032,3.4 94.7292225,0 75.5,0 C56.2707775,0 37.2439678,3.4 23.2774799,9.2 C12.5495979,13.6 0,21.6 0,34.2 L0,142.8 C0,155.4 12.5495979,163.4 23.2774799,167.8 C36.6367292,173.4 54.4490617,176.8 72.8686327,177 L72.8686327,168.4 C55.6635389,168.2 39.6729223,165.2 27.5281501,160.4 C15.5857909,155.6 8.70375335,149.2 8.70375335,142.8 L8.70375335,105.4 L12.7520107,108 C26.1112601,116.8 48.7815013,122.4 72.8686327,122.8 L72.8686327,114.2 C55.6635389,114 39.6729223,111 27.5281501,106.2 C15.5857909,101.2 8.70375335,94.8 8.70375335,88.6 L8.70375335,51 L12.7520107,53.8 Z M28.2767519,16.7306827 C41.0388258,11.552138 58.0549242,8.56451613 76.2864583,8.56451613 C94.5179924,8.56451613 111.534091,11.552138 124.296165,16.7306827 C136.247948,21.5108777 143.135417,27.8844711 143.135417,34.2580645 C143.135417,40.4324831 136.247948,46.8060765 124.296165,51.7854464 C111.534091,56.963991 94.5179924,59.9516129 76.2864583,59.9516129 C58.0549242,59.9516129 41.0388258,56.963991 28.2767519,51.7854464 C16.3249684,47.0052513 9.4375,40.6316579 9.4375,34.2580645 C9.4375,27.8844711 16.3249684,21.5108777 28.2767519,16.7306827 Z" id="Shape" opacity="0.5"></path>
            </g>
        </g>
    </g>
</svg>