<?xml version="1.0" encoding="UTF-8"?>
<svg width="126px" height="139px" viewBox="0 0 126 139" version="1.1" xmlns="http://www.w3.org/2000/svg" xmlns:xlink="http://www.w3.org/1999/xlink">
    <!-- Generator: Sketch 52.3 (67297) - http://www.bohemiancoding.com/sketch -->
    <title>钱币</title>
    <desc>Created with Sketch.</desc>
    <g id="Page-1" stroke="none" stroke-width="1" fill="none" fill-rule="evenodd" opacity="0.5">
        <g id="我的钱包-copy-2" transform="translate(-708.000000, -1268.000000)" fill="#756DE5" fill-rule="nonzero">
            <g id="钱币" transform="translate(708.000000, 1268.000000)">
                <path d="M91.0707071,57 C77.2121212,57 69.010101,59.9536878 64.4848485,62.4854202 C59.1111111,65.4391081 56,69.5180103 56,73.4562607 L56,122.543739 C56,126.622642 59.1111111,130.560892 64.4848485,133.51458 C69.010101,136.046312 77.2121212,139 91.0707071,139 C104.787879,139 112.989899,136.046312 117.515152,133.51458 C122.888889,130.560892 126,126.622642 126,122.543739 L126,73.5969125 C126,69.5180103 123.030303,65.4391081 117.656566,62.4854202 C113.131313,59.9536878 104.929293,57 91.0707071,57 Z M119.919192,122.543739 C119.919192,126.903945 108.888889,133.092624 91.0707071,133.092624 C73.2525253,133.092624 62.2222222,126.903945 62.2222222,122.543739 L62.2222222,107.7753 L64.9090909,109.181818 C69.4343434,111.572899 77.6363636,114.526587 91.0707071,114.526587 C104.505051,114.526587 112.707071,111.572899 117.232323,109.181818 L119.919192,107.7753 L119.919192,122.543739 Z M119.919192,98.0703259 C119.919192,102.430532 108.888889,108.619211 91.0707071,108.619211 L89.2323232,108.619211 C72.4040404,108.197256 62.2222222,102.28988 62.2222222,98.0703259 L62.2222222,83.3018868 L64.9090909,84.7084048 C69.4343434,87.0994854 77.6363636,90.0531732 91.0707071,90.0531732 C104.505051,90.0531732 112.707071,87.0994854 117.232323,84.7084048 L119.919192,83.3018868 L119.919192,98.0703259 Z M91.0707071,84.0051458 C73.2525253,84.0051458 62.2222222,77.8164666 62.2222222,73.4562607 C62.2222222,69.0960549 73.2525253,62.9073756 91.0707071,62.9073756 C109.030303,62.9073756 119.919192,69.0960549 119.919192,73.4562607 C119.919192,77.9571184 108.888889,84.0051458 91.0707071,84.0051458 Z" id="Shape"></path>
                <path d="M8.10723861,37.6903955 C16.8579088,44.1355932 32.1715818,48.0587571 48,48.0587571 C63.8284182,48.0587571 79.1420912,44.1355932 87.8927614,37.6903955 L90.4664879,35.8689266 L90.4664879,50.160452 L96,50.160452 L96,23.959322 C96,15.1322034 88.0214477,9.52768362 81.2010724,6.44519774 C72.3217158,2.3819209 60.2252011,0 48,0 C35.7747989,0 23.6782842,2.3819209 14.7989276,6.44519774 C7.97855228,9.52768362 0,15.1322034 0,23.959322 L0,100.040678 C0,108.867797 7.97855228,114.472316 14.7989276,117.554802 C23.2922252,121.477966 34.616622,123.859887 46.3270777,124 L46.3270777,117.975141 C35.3887399,117.835028 25.2225201,115.733333 17.5013405,112.370621 C9.90884718,109.00791 5.53351206,104.524294 5.53351206,100.040678 L5.53351206,73.839548 L8.10723861,75.6610169 C16.6005362,81.8259887 31.0134048,85.7491525 46.3270777,86.0293785 L46.3270777,80.0045198 C35.3887399,79.8644068 25.2225201,77.7627119 17.5013405,74.4 C9.90884718,70.8971751 5.53351206,66.4135593 5.53351206,62.0700565 L5.53351206,35.7288136 L8.10723861,37.6903955 Z M17.9772727,11.7209302 C26.0909091,8.09302326 36.9090909,6 48.5,6 C60.0909091,6 70.9090909,8.09302326 79.0227273,11.7209302 C86.6212121,15.0697674 91,19.5348837 91,24 C91,28.3255814 86.6212121,32.7906977 79.0227273,36.2790698 C70.9090909,39.9069767 60.0909091,42 48.5,42 C36.9090909,42 26.0909091,39.9069767 17.9772727,36.2790698 C10.3787879,32.9302326 6,28.4651163 6,24 C6,19.5348837 10.3787879,15.0697674 17.9772727,11.7209302 Z" id="Shape"></path>
            </g>
        </g>
    </g>
</svg>