<?xml version="1.0" encoding="UTF-8"?>
<svg width="105px" height="60px" viewBox="0 0 105 60" version="1.1" xmlns="http://www.w3.org/2000/svg" xmlns:xlink="http://www.w3.org/1999/xlink">
    <!-- Generator: Sketch 52.3 (67297) - http://www.bohemiancoding.com/sketch -->
    <title>Combined Shape 2</title>
    <desc>Created with Sketch.</desc>
    <g id="Page-1" stroke="none" stroke-width="1" fill="none" fill-rule="evenodd">
        <g id="我的钱包-copy-2" transform="translate(-894.000000, -392.000000)" fill="#FFFFFF" fill-rule="nonzero">
            <g id="Combined-Shape-2" transform="translate(894.000000, 392.000000)">
                <path d="M83.3728552,35.6590792 L6,35.6590792 C2.6862915,35.6590792 4.05812251e-16,32.9727877 0,29.6590792 C-4.05812251e-16,26.3453707 2.6862915,23.6590792 6,23.6590792 L83.7748734,23.6590792 L67.7901195,11.3153439 C65.1545997,9.28014468 64.2339696,5.71728483 65.5536309,2.66008105 C66.5157452,0.431191514 69.1025648,-0.595732762 71.3314544,0.366381485 C71.6683082,0.511786586 71.9856324,0.698793416 72.2760236,0.923039099 L102.166211,24.0048182 C104.801731,26.0400174 105.722361,29.6028773 104.402699,32.6600811 C103.974124,33.652944 103.223162,34.4073042 102.325059,34.8535923 C102.188103,34.9770139 102.045658,35.0959872 101.897816,35.2101534 L72.0076291,58.2919325 C70.086173,59.7757179 67.3256794,59.4209157 65.841894,57.4994597 C65.6176483,57.2090685 65.4306415,56.8917444 65.2852364,56.5548905 C63.9655751,53.4976868 64.8862052,49.9348269 67.521725,47.8996276 L83.3728552,35.6590792 Z" id="Combined-Shape"></path>
            </g>
        </g>
    </g>
</svg>