<?xml version="1.0" encoding="UTF-8"?>
<svg width="120px" height="120px" viewBox="0 0 120 120" version="1.1" xmlns="http://www.w3.org/2000/svg" xmlns:xlink="http://www.w3.org/1999/xlink">
    <!-- Generator: Sketch 52.5 (67469) - http://www.bohemiancoding.com/sketch -->
    <title>Group 6</title>
    <desc>Created with Sketch.</desc>
    <defs>
        <path d="M35.247115,60.5636602 L9.96742754,38.6906872 C6.8105892,35.748172 -0.475165489,27.9523084 0.0244560255,19.0868536 C0.0199147496,14.3028156 1.99577697,10.167789 6.42672858,5.79993828 C10.9258817,1.91538865 15.643098,0 20.5598822,0 C27.959251,0 34.1005248,4.22898608 37.209556,6.86513674 C40.3187524,4.22898608 46.4597785,0 53.8591473,0 C58.7760141,0 63.4933955,1.91530725 67.8786867,5.69247473 C72.423335,10.167789 74.3995275,14.302897 74.3995275,19.2121327 C74.8944426,27.9523084 67.6086054,35.7481719 64.4517671,38.6906871 L64.2404745,38.885358 L39.1724254,60.5641554 C38.0454164,61.5387905 36.3738781,61.5385796 35.247115,60.5636602 Z" id="path-1"></path>
    </defs>
    <g id="Page-1" stroke="none" stroke-width="1" fill="none" fill-rule="evenodd">
        <g id="我的钱包" transform="translate(-114.000000, -920.000000)">
            <g id="Group-6" transform="translate(114.000000, 920.000000)">
                <circle id="Oval" fill="#FFE5E5" fill-rule="nonzero" cx="60" cy="60" r="60"></circle>
                <g id="Combined-Shape" transform="translate(24.000000, 36.000000)">
                    <mask id="mask-2" fill="white">
                        <use xlink:href="#path-1"></use>
                    </mask>
                    <path stroke="#D11F32" stroke-width="4" d="M66.5230513,7.16453938 C62.500999,3.71631974 58.2556469,2 53.8591473,2 C48.2945312,2 43.0013393,4.57664457 38.502953,8.39062818 L37.2095217,9.48727167 L35.916119,8.39059431 C31.4182584,4.57685385 26.1245599,2 20.5598822,2 C16.1469299,2 11.9028153,3.72981952 7.78367605,7.27076085 C3.75701302,11.2548604 2.02046568,14.8822447 2.02445512,19.0849551 L2.02128757,19.199387 C1.6626682,25.5628517 5.69280186,31.972173 11.2760551,37.1782409 L36.5557426,59.0512139 C36.9313303,59.376187 37.4885097,59.3762573 37.8641794,59.051379 L62.8852999,37.4144733 L63.0880887,37.2276829 C68.7165038,31.9813905 72.757266,25.5863567 72.4027263,19.3252022 L72.3995275,19.2121327 C72.3995275,14.8824022 70.6612581,11.2541778 66.5230513,7.16453938 Z"></path>
                    <path d="M27.8608794,-9.95618447 L31.6815074,-7.68879278 L-3.19345522,54.0032665 L-7.01408321,51.7358748 L27.8608794,-9.95618447 Z M42.7455865,-9.95618447 L46.5662145,-7.68879278 L11.6912519,54.0032665 L7.87062392,51.7358748 L42.7455865,-9.95618447 Z M52.6687246,0.00567805902 L56.4893526,2.27306975 L21.61439,63.9651291 L17.793762,61.6977374 L52.6687246,0.00567805902 Z M65.0726472,4.98660932 L68.8932752,7.25400102 L34.0183126,68.9460603 L30.1976846,66.6786686 L65.0726472,4.98660932 Z M77.4765698,8.72230777 L81.2971978,10.9896995 L46.4222352,72.6817588 L42.6016072,70.4143671 L77.4765698,8.72230777 Z" fill="#FFFFFF" fill-rule="nonzero" opacity="0.200000003" mask="url(#mask-2)" transform="translate(37.141557, 31.362787) rotate(-342.000000) translate(-37.141557, -31.362787) "></path>
                </g>
            </g>
        </g>
    </g>
</svg>