<?xml version="1.0" standalone="no"?><!DOCTYPE svg PUBLIC "-//W3C//DTD SVG 1.1//EN" "http://www.w3.org/Graphics/SVG/1.1/DTD/svg11.dtd"><svg t="1562323091074" class="icon" viewBox="0 0 1024 1024" version="1.1" xmlns="http://www.w3.org/2000/svg" p-id="6678" xmlns:xlink="http://www.w3.org/1999/xlink" width="200" height="200"><defs><style type="text/css"></style></defs><path d="M512 61.44c249.32352 0 450.56 202.20928 450.56 450.56S760.32 962.56 512 962.56C263.63904 962.56 61.44 760.35072 61.44 512S262.67648 61.44 512 61.44zM352.9728 536.55552l223.81568 224.77824c6.8608 6.8608 15.69792 9.8304 24.54528 9.8304a34.37568 34.37568 0 0 0 24.53504-58.91072L425.59488 512.01024l199.2704-197.30432c13.75232-13.75232 13.75232-35.34848 0-48.10752-13.73184-13.73184-35.328-13.73184-48.09728 0L352.9728 488.43776c-6.8608 6.8608-9.80992 14.72512-9.80992 24.54528 0 7.85408 2.93888 16.6912 9.80992 23.57248z" p-id="6679" fill="#ffffff"></path></svg>