<?xml version="1.0" encoding="UTF-8"?>
<svg width="132px" height="132px" viewBox="0 0 132 132" version="1.1" xmlns="http://www.w3.org/2000/svg" xmlns:xlink="http://www.w3.org/1999/xlink">
    <!-- Generator: Sketch 52.5 (67469) - http://www.bohemiancoding.com/sketch -->
    <title>分组 8 copy 3</title>
    <desc>Created with Sketch.</desc>
    <defs>
        <linearGradient x1="25.6507995%" y1="0%" x2="80.3874739%" y2="100%" id="linearGradient-1">
            <stop stop-color="#8A3DF2" offset="0%"></stop>
            <stop stop-color="#AB6DFF" offset="100%"></stop>
        </linearGradient>
    </defs>
    <g id="Page-1" stroke="none" stroke-width="1" fill="none" fill-rule="evenodd">
        <g id="我的钱包" transform="translate(-496.000000, -367.000000)">
            <g id="分组-8-copy-3" transform="translate(496.000000, 367.000000)">
                <circle id="Oval" fill="url(#linearGradient-1)" fill-rule="nonzero" opacity="0.600000024" cx="66" cy="66" r="66"></circle>
                <g id="分组-7" transform="translate(33.000000, 34.000000)" fill="#FFFFFF">
                    <path d="M59.6169772,0 L5.38302277,0 C2.42236025,0 0,2.44449397 0,5.43220882 L0,53.7788673 C0,56.7665822 2.42236025,59.2110761 5.38302277,59.2110761 L59.6169772,59.2110761 C62.5776398,59.2110761 65,56.7665822 65,53.7788673 L65,5.43220882 C65,2.44449397 62.5776398,0 59.6169772,0 Z M61.7836439,53.0357025 C61.7836439,54.6669165 60.4756896,56.0015461 58.8770787,56.0015461 L6.12292126,56.0015461 C4.52431043,56.0015461 3.21635611,54.6669165 3.21635611,53.0357025 L3.21635611,6.17537364 C3.21635611,4.54415966 4.52431043,3.20953004 6.12292126,3.20953004 L58.8770787,3.20953004 C60.4756896,3.20953004 61.7836439,4.54415966 61.7836439,6.17537364 L61.7836439,53.0357025 Z M49.4699793,62.6795415 L15.6915114,62.6795415 C14.2111801,62.6795415 13,63.2016446 13,63.8397707 C13,64.4778968 14.2111801,65 15.6915114,65 L49.4699793,65 C50.9503106,65 52.1614907,64.4778968 52.1614907,63.8397707 C52.1614907,63.2016446 50.9503106,62.6795415 49.4699793,62.6795415 Z" id="形状-copy" fill-rule="nonzero" opacity="0.900000036"></path>
                    <path d="M21.9323684,22.2436842 L25.1173684,22.2436842 L31.655,39.3421053 L28.6615789,39.3421053 L27.105,35.0555263 L19.9447368,35.0555263 L18.3881579,39.3421053 L15.3947368,39.3421053 L21.9323684,22.2436842 Z M20.7828947,32.7565789 L26.2668421,32.7565789 L23.5847368,25.2610526 L23.4889474,25.2610526 L20.7828947,32.7565789 Z M33.5441812,22.2436842 L39.7944444,22.2436842 C42.5723391,22.2436842 44.6557602,23.01 46.0926023,24.5426316 C47.4576023,25.9794737 48.152076,28.0628947 48.152076,30.7928947 C48.152076,33.4989474 47.4576023,35.5823684 46.0926023,37.0431579 C44.6557602,38.5757895 42.5723391,39.3421053 39.7944444,39.3421053 L33.5441812,39.3421053 L33.5441812,22.2436842 Z M36.3460233,24.6384211 L36.3460233,36.9473684 L39.2676023,36.9473684 C41.3989181,36.9473684 42.955497,36.4444737 43.9373391,35.4626316 C44.8952339,34.4568421 45.3741812,32.9002632 45.3741812,30.7928947 C45.3741812,28.6376316 44.8952339,27.0571053 43.9373391,26.0992105 C42.955497,25.1173684 41.3989181,24.6384211 39.2676023,24.6384211 L36.3460233,24.6384211 Z" id="AD"></path>
                </g>
            </g>
        </g>
    </g>
</svg>