<?xml version="1.0" encoding="UTF-8"?>
<svg width="89px" height="77px" viewBox="0 0 89 77" version="1.1" xmlns="http://www.w3.org/2000/svg" xmlns:xlink="http://www.w3.org/1999/xlink">
    <!-- Generator: Sketch 52.5 (67469) - http://www.bohemiancoding.com/sketch -->
    <title>Group 17</title>
    <desc>Created with Sketch.</desc>
    <g id="Page-1" stroke="none" stroke-width="1" fill="none" fill-rule="evenodd">
        <g id="我的-copy" transform="translate(-390.000000, -803.000000)">
            <g id="Group-17" transform="translate(384.550000, 787.738709)">
                <g id="分组-4" transform="translate(6.000000, 16.000000)">
                    <g transform="translate(0.000000, 0.181792)">
                        <rect id="Rectangle" stroke="#333333" stroke-width="4.05" fill="#F9F9F9" x="11.2821429" y="5.11071429" width="63.8357143" height="63.8357143" rx="8.1"></rect>
                        <rect id="Rectangle" stroke="#383838" stroke-width="4.05" fill="#FE6068" x="2.025" y="2.025" width="82.35" height="15.8884615" rx="5.4"></rect>
                        <circle id="Oval" stroke="#383838" stroke-width="4.05" fill="#F9F9F9" cx="69.4285714" cy="57.0857143" r="16.9714286"></circle>
                        <rect id="Rectangle" fill="#383838" x="64.8" y="46.2857143" width="4.05" height="15.4285714" rx="2.025"></rect>
                        <path d="M72.5142857,52.3607143 L72.5142857,52.3607143 C73.6326623,52.3607143 74.5392857,53.2673377 74.5392857,54.3857143 L74.5392857,65.7642857 C74.5392857,66.8826623 73.6326623,67.7892857 72.5142857,67.7892857 L72.5142857,67.7892857 C71.3959091,67.7892857 70.4892857,66.8826623 70.4892857,65.7642857 L70.4892857,54.3857143 C70.4892857,53.2673377 71.3959091,52.3607143 72.5142857,52.3607143 Z" id="Rectangle" fill="#383838" transform="translate(72.514286, 60.075000) rotate(-270.000000) translate(-72.514286, -60.075000) "></path>
                    </g>
                </g>
            </g>
        </g>
    </g>
</svg>