<svg xmlns="http://www.w3.org/2000/svg" width="65" height="72.421" viewBox="0 0 65 72.421">
  <defs>
    <style>
      .cls-1 {
        fill: #fff;
      }
    </style>
  </defs>
  <path id="铃铛_1_" data-name="铃铛 (1)" class="cls-1" d="M153.81,96.935,147.8,86.684V72.478a22.611,22.611,0,0,0-4.713-13.261,26.955,26.955,0,0,0-12.222-9.154l-.087-.029q-.554-.176-1.116-.328v-.722a7.232,7.232,0,1,0-14.463,0v.664q-.479.13-.952.278l-.062.018A26.91,26.91,0,0,0,101.75,59.09a22.663,22.663,0,0,0-4.8,13.38V86.677L90.517,97.65a4.163,4.163,0,0,0,0,4.251,2.745,2.745,0,0,0,3.028,1.444h18.047a10.828,10.828,0,1,0,21.656,0H151.3a3.181,3.181,0,0,0,3.609-3.57,4.14,4.14,0,0,0-1.1-2.84M122.436,45.641a3.418,3.418,0,0,1,3.454,3.18q-.582-.108-1.169-.191a1.928,1.928,0,0,0-.5,0l-.205-.029a8.918,8.918,0,0,0-3.274,0l-.177.025a2.068,2.068,0,0,0-.516,0c-.361.051-.722.1-1.061.169a3.415,3.415,0,0,1,3.447-3.155m0,64.869a7.941,7.941,0,0,1-7.219-7.169h14.438a7.969,7.969,0,0,1-7.22,7.169m28.876-10.778H93.56c-.22,0,.361.524.242.361a.6.6,0,0,1,0-.606l6.685-11.4a1.828,1.828,0,0,0,.246-.906V72.492A21.783,21.783,0,0,1,115.441,53.42a39.171,39.171,0,0,1,4.634-1.083,1.785,1.785,0,0,0,.4,0c.292-.029.567-.068.83-.1a7.437,7.437,0,0,1,1.083-.111,7.253,7.253,0,0,1,1.082.111c.264.036.538.076.834.1a1.684,1.684,0,0,0,.361,0,40.911,40.911,0,0,1,4.938,1.18,21.825,21.825,0,0,1,14.438,18.975v14.69a1.828,1.828,0,0,0,.245.906l6.375,10.868a1.785,1.785,0,0,0,.328.412.561.561,0,0,1,.173.419c-.014.306.513-.055.152-.055" transform="translate(-89.934 -41.752)"/>
</svg>
