<?xml version="1.0" encoding="UTF-8"?>
<svg width="60px" height="60px" viewBox="0 0 60 60" version="1.1" xmlns="http://www.w3.org/2000/svg" xmlns:xlink="http://www.w3.org/1999/xlink">
    <!-- Generator: Sketch 52.3 (67297) - http://www.bohemiancoding.com/sketch -->
    <title>Group 13</title>
    <desc>Created with Sketch.</desc>
    <g id="Page-1" stroke="none" stroke-width="1" fill="none" fill-rule="evenodd">
        <g id="普通商品详情" transform="translate(-913.000000, -1560.000000)">
            <g id="Group-13-Copy" transform="translate(913.000000, 1560.000000)">
                <rect id="Rectangle" fill="#FFFFFF" opacity="0" x="0" y="0" width="60" height="60"></rect>
                <path d="M53.3708211,11.0461589 C50.1985652,8.34036367 46.8663855,7 43.4210604,7 C39.0418213,7 34.8521633,9.03153329 31.2886817,12.0411078 L29.9981826,13.1310118 L28.707712,12.041074 C25.1446554,9.03169869 20.9545956,7 16.5753067,7 C13.1171113,7 9.78579148,8.35099786 6.53528462,11.1312009 C3.36669093,14.257096 2.01661228,17.0696778 2.01971546,20.3260338 L2.01652319,20.4409109 C1.73604143,25.3985284 4.92998142,30.4582642 9.34141723,34.5560821 L29.3458605,51.7974245 C29.7209661,52.1207189 30.2761936,52.1207889 30.6513807,51.7975891 L50.4381332,34.7538679 L50.5999602,34.6053966 C55.0583521,30.4658468 58.2609885,25.4169595 57.9838684,20.5420561 L57.9806447,20.4285468 C57.9806447,17.0701094 56.6291503,14.2566591 53.3708211,11.0461589 Z" id="Path" stroke="#FE4F70" stroke-width="4" fill="#FE4F70" fill-rule="nonzero"></path>
            </g>
        </g>
    </g>
</svg>