<?xml version="1.0" encoding="UTF-8"?>
<svg width="58px" height="60px" viewBox="0 0 58 60" version="1.1" xmlns="http://www.w3.org/2000/svg" xmlns:xlink="http://www.w3.org/1999/xlink">
    <!-- Generator: Sketch 52.3 (67297) - http://www.bohemiancoding.com/sketch -->
    <title>提醒</title>
    <desc>Created with Sketch.</desc>
    <g id="Page-1" stroke="none" stroke-width="1" fill="none" fill-rule="evenodd">
        <g id="链猫秒杀-copy" transform="translate(-761.000000, -471.000000)" fill="#3A3A3A" fill-rule="nonzero">
            <g id="提醒" transform="translate(761.000000, 471.000000)">
                <path d="M29,6.83076923 C42.3846154,6.83076923 53.5384615,17.9076923 53.5384615,31.2 C53.5384615,44.4923077 42.3846154,55.5692308 29,55.5692308 C15.6153846,55.5692308 4.46153846,44.4923077 4.46153846,31.2 C4.46153846,17.9076923 15.6153846,6.83076923 29,6.83076923 Z M29,2.4 C12.9384615,2.4 0,15.2492308 0,31.2 C0,47.1507692 12.9384615,60 29,60 C45.0615385,60 58,47.1507692 58,31.2 C58,15.2492308 45.0615385,2.4 29,2.4 Z" id="Shape"></path>
                <path d="M9.76811754,0 C9.3260053,0 8.44178082,0 7.99966858,0.438356164 L2.25220946,7.01369863 C1.36798498,7.45205479 1.36798498,9.20547945 2.25220946,10.0821918 C2.6943217,10.5205479 3.13643394,10.5205479 4.02065842,10.5205479 C4.46277066,10.5205479 5.34699514,10.5205479 5.78910738,10.0821918 L11.5365665,3.50684932 C12.420791,2.63013699 12.420791,1.31506849 11.5365665,0.438356164 C11.0944543,0 10.652342,0 9.76811754,0 Z M47.7897702,0 C47.347658,0 46.4634335,0 46.0213213,0.438356164 C45.1370968,1.31506849 45.1370968,2.63013699 46.0213213,3.50684932 L52.2108926,9.64383562 C52.6530049,10.0821918 53.0951171,10.0821918 53.9793416,10.0821918 C54.4214538,10.0821918 55.3056783,10.0821918 55.7477905,9.64383562 C56.632015,8.76712329 56.632015,7.45205479 55.7477905,6.57534247 L49.5582192,0.438356164 C49.1161069,9.73346213e-16 48.2318825,9.73346213e-16 47.7897702,0 Z M28.7789439,14.4657534 C27.4526072,14.4657534 26.5683827,15.3424658 26.5683827,16.6575342 L26.5683827,29.8082192 C26.5683827,31.1232877 27.4526072,32 28.7789439,32 L42.0423111,32 C43.3686478,32 44.2528723,31.1232877 44.2528723,29.8082192 C44.2528723,28.4931507 43.3686478,27.6164384 42.0423111,27.6164384 L30.9895051,27.6164384 L30.9895051,16.6575342 C30.9895051,15.3424658 30.1052806,14.4657534 28.7789439,14.4657534 Z" id="Shape"></path>
            </g>
        </g>
    </g>
</svg>