<svg t="1565861581106" class="icon" viewBox="0 0 1024 1024" version="1.1" xmlns="http://www.w3.org/2000/svg" p-id="12669" width="200" height="200"><path d="M670.657 669.599c-7.872 0-15.744-3.003-21.752-9.009-12.013-12.012-12.013-31.488 0-43.502 27.598-27.594 42.792-64.285 42.792-103.309 0-39.026-15.194-75.715-42.792-103.312-12.013-12.013-12.013-31.488 0-43.502 12.014-12.013 31.488-12.012 43.503 0.001 39.22 39.215 60.811 91.354 60.811 146.813 0 55.457-21.591 107.593-60.811 146.811-6.008 6.006-13.88 9.009-21.751 9.009m131.499 71.627c-7.872 0-15.745-3.003-21.752-9.01-12.013-12.012-12.013-31.488 0-43.501 46.729-46.727 72.462-108.854 72.462-174.936 0-66.083-25.733-128.209-72.462-174.938-12.013-12.012-12.013-31.488 0-43.502 12.015-12.012 31.489-12.012 43.503 0 58.347 58.348 90.479 135.923 90.479 218.439 0 82.511-32.132 160.091-90.479 218.437-6.008 6.008-13.88 9.011-21.751 9.011M515.967 844.944c-8.657 0.001-17.161-3.09-24.079-9.065L310.774 679.428H145.358c-20.406 0-37.01-16.604-37.01-37.014V385.14c0-20.407 16.604-37.009 37.01-37.009h165.416l181.113-156.452c11.093-9.582 26.265-11.747 39.594-5.646 13.328 6.101 21.61 18.994 21.61 33.653v588.186c0 14.658-8.282 27.555-21.61 33.653-5.014 2.294-10.293 3.419-15.514 3.419m-356.35-216.785H316.08a37.001 37.001 0 0 1 24.191 9.003l161.552 139.553V250.843l-161.55 139.552a37.018 37.018 0 0 1-24.193 9.002H159.617v228.762z" p-id="12670" fill="#ffffff"></path></svg>