<?xml version="1.0" encoding="UTF-8"?>
<svg width="50px" height="60px" viewBox="0 0 50 60" version="1.1" xmlns="http://www.w3.org/2000/svg" xmlns:xlink="http://www.w3.org/1999/xlink">
    <!-- Generator: Sketch 52.3 (67297) - http://www.bohemiancoding.com/sketch -->
    <title>复制 (1)</title>
    <desc>Created with Sketch.</desc>
    <g id="Page-1" stroke="none" stroke-width="1" fill="none" fill-rule="evenodd" opacity="0.565848214">
        <g id="余额钱包" transform="translate(-974.000000, -1989.000000)" fill="#9E9EA1" fill-rule="nonzero">
            <g id="复制-2-copy" transform="translate(969.000000, 1989.000000)">
                <g id="复制" transform="translate(5.000000, 0.000000)">
                    <g id="复制-(1)" transform="translate(25.000000, 30.000000) scale(-1, 1) translate(-25.000000, -30.000000) ">
                        <path d="M3.77610078,55.8802701 L38.4293767,55.8802701 L38.4293767,11.7761008 L3.77610078,11.7761008 L3.77610078,55.8802701 Z M1.90281691,59.030568 C1.56413174,59.030568 1.23931823,58.8646152 0.999831658,58.5692175 C0.760345081,58.2738198 0.625802932,57.8731745 0.625802948,57.455419 L0.625802948,10.2009518 C0.625802948,9.33102112 1.19754158,8.62580295 1.90281691,8.62580295 L40.2132365,8.62580295 C40.5519217,8.62580293 40.8767352,8.79175563 41.1162218,9.08715335 C41.3557084,9.38255107 41.4902505,9.78319636 41.4902505,10.2009518 L41.4902505,57.455419 C41.4902506,57.8731745 41.3557084,58.2738198 41.1162218,58.5692175 C40.8767352,58.8646153 40.5519217,59.030568 40.2132365,59.030568 L1.90281691,59.030568 Z M46.3296139,3.36089381 L46.3296139,37.5179457 C46.3296139,38.3878764 47.0348321,39.0930946 47.9047628,39.0930946 C48.7746936,39.0930946 49.4799118,38.3878764 49.4799118,37.5179457 L49.4799118,1.78574492 C49.4799118,1.36798944 49.3139591,0.96734413 49.0185613,0.671946396 C48.7231636,0.376548661 48.3225183,0.21059595 47.9047628,0.21059597 L12.2124265,0.21059597 C11.3424958,0.21059597 10.6372776,0.915814162 10.6372776,1.78574489 C10.6372776,2.65567561 11.3424958,3.36089381 12.2124265,3.36089381 L46.3296139,3.36089381 Z" id="形状"></path>
                    </g>
                </g>
            </g>
        </g>
    </g>
</svg>