<?xml version="1.0" encoding="UTF-8"?>
<svg width="150px" height="141px" viewBox="0 0 150 141" version="1.1" xmlns="http://www.w3.org/2000/svg" xmlns:xlink="http://www.w3.org/1999/xlink">
    <!-- Generator: Sketch 52.3 (67297) - http://www.bohemiancoding.com/sketch -->
    <title>美金</title>
    <desc>Created with Sketch.</desc>
    <g id="Page-1" stroke="none" stroke-width="1" fill="none" fill-rule="evenodd" opacity="0.5">
        <g id="我的钱包-copy-2" transform="translate(-684.000000, -1696.000000)" fill="#F37052">
            <g id="美金" transform="translate(684.000000, 1696.000000)">
                <path d="M91.3424845,49.8198254 L89.077071,48.3979663 C90.327768,46.4828091 90.7761311,44.7127396 90.3985622,43.1167753 C89.9737972,41.2306356 88.4871196,39.6636888 85.9385295,38.3869174 C84.7586266,37.8065667 83.6023218,37.4293388 82.422419,37.2842511 C81.2661142,37.1391635 80.0626133,37.168181 78.8591124,37.4293388 C77.6792095,37.6614791 76.192532,38.1837947 74.4226777,39.0253031 L74.2338932,39.1123557 C72.6528234,39.9828817 69.4434877,40.70832 68.334379,40.1569869 C67.508447,39.7507414 67.0128878,39.2574434 66.8241034,38.7061102 C66.658917,38.1837947 66.7533092,37.6324615 67.1544762,37.0230933 L67.2252703,36.9070232 C68.1219965,35.1949888 69.5142818,34.2374102 70.9065672,33.5700069 C72.0392739,33.0476913 72.3224506,31.2195867 71.4257245,30.2039731 L70.9301653,29.65264 C70.38741,29.0432718 69.6086741,28.840149 68.9243304,29.1303244 C67.5320451,29.710675 66.2341519,30.4651309 65.030651,31.3646744 L62.930424,30.2039731 C62.7652376,30.1169205 62.5764531,30.1169205 62.4112667,30.2329906 L60.1458533,31.7128848 C59.7446863,31.9740426 59.7210882,32.6994809 60.1458533,32.9896563 L62.2460803,34.4115154 C60.9717852,36.2686375 60.4998241,38.0677245 60.853795,39.7507414 C61.2549619,41.6368811 62.6472473,43.1748103 65.030651,44.3935467 C66.7297111,45.2640727 68.5467615,45.6413006 70.4346061,45.554248 C72.3224506,45.4671954 76.9712678,43.8422136 79.1894852,42.7975824 L79.3074755,42.7395473 C79.3310735,42.7395473 79.3546716,42.7105298 79.3546716,42.7105298 L79.3782696,42.6815123 C79.8502308,42.4783895 80.369388,42.3913369 80.9357414,42.3623194 C81.5492909,42.3333019 82.1628404,42.5074071 82.7999879,42.8265999 C83.6495179,43.2618629 84.1686752,43.7841785 84.3338616,44.3645292 C84.499048,44.9448798 84.3810577,45.554248 84.0270868,46.1636162 L83.9798907,46.2796864 L83.8854985,46.3957565 C82.3516248,48.1948435 80.1098094,49.8778604 77.867994,51.0965968 C76.8296795,51.64793 76.8532775,53.447017 77.891592,53.9693326 L79.4254657,54.752806 C80.0390152,55.0719988 80.6997608,55.0719988 81.3369084,54.810841 C83.0123704,54.0854027 84.5934402,53.0407715 86.0801178,51.7349826 C86.1273139,51.7640001 86.150912,51.7930176 86.1981081,51.8220352 L88.3455313,53.0407715 C88.5815118,53.1858592 88.8410905,53.1858592 89.077071,53.0407715 L91.2716903,51.7640001 C91.956034,51.3577546 91.979632,50.2260708 91.3424845,49.8198254 Z" id="Path" opacity="0.699999988"></path>
                <path d="M148.266698,72.9468766 C149.771209,72.1970331 150.452941,70.005183 149.677177,68.2170948 C149.018954,66.6308875 147.420411,66.0252447 146.080456,66.6885678 L119.516437,79.8685084 L119.516437,68.5920165 L148.149158,54.4315114 C149.653669,53.681668 150.335401,51.4898179 149.559637,49.7017297 C148.901414,48.1155224 147.302871,47.5098796 145.962916,48.1732027 L119.492929,61.2377827 L119.492929,50.3938929 C119.492929,50.1631718 119.469421,49.9324507 119.445913,49.7305698 L147.867063,35.627745 C149.207018,34.9644219 149.912257,33.1186534 149.465605,31.4459257 C149.254034,30.5518816 148.783874,29.7731981 148.055127,29.3117559 L103.601534,1.36566743 C102.966818,0.961905577 102.238071,0.904225312 101.579847,1.13494637 C101.415292,1.16378651 101.274244,1.22146677 101.109688,1.30798717 L1.92951475,50.5380935 C1.76495888,50.6246139 1.60040301,50.7111343 1.43584714,50.8264949 C1.41233916,50.8264949 1.41233916,50.855335 1.38883118,50.855335 C0.236940091,51.6916988 -0.256727516,53.4797871 0.260448072,55.0371542 C0.566051829,55.9600385 1.17725934,56.6522016 1.88249878,56.9694431 L46.2185515,84.8001711 C46.7357271,85.1174125 47.2999187,85.2327731 47.8406022,85.1462527 C48.075682,85.1174125 48.3107619,85.0308921 48.5458417,84.9155316 L78.8241216,69.8898225 L78.8241216,81.4258756 L48.3812858,96.5092649 L4.04523306,68.6785369 C2.6112462,67.7844928 0.801131642,68.5631764 0.189924128,70.4666252 C-0.350759442,72.1105127 0.307464035,73.9851213 1.60040301,74.8214852 L46.6887111,103.113655 C47.4174586,103.719298 48.3812858,103.863499 49.2510811,103.430897 L78.8006136,88.7512692 L78.8006136,100.027761 L47.9346342,115.341871 L4.18628095,87.8572251 C2.68177015,86.9055007 0.801131642,87.828385 0.260448072,89.8760344 C-0.13918761,91.4622417 0.495527885,93.1926497 1.71794291,93.9713332 L46.4536313,122.061622 C46.6416952,122.176983 46.853267,122.263503 47.0648389,122.350024 C47.6525384,122.551905 48.2872539,122.551905 48.8749534,122.234663 L78.8006136,107.381995 L78.8006136,117.21648 L47.3469346,132.847832 L4.20978893,105.911148 C2.77580207,105.017104 0.965687512,105.795788 0.354479998,107.699236 C-0.186203572,109.343124 0.472019904,111.217733 1.76495888,112.054096 L45.8189158,139.596423 C46.0775036,139.769464 46.3595994,139.855984 46.6416952,139.913664 C47.1823788,140.057865 47.7465703,140.029025 48.3107619,139.769464 L147.655491,90.4816772 C149.160002,89.7318337 149.841733,87.5399837 149.06597,85.7518954 C148.407746,84.1656881 146.809204,83.5600454 145.469249,84.2233684 L119.492929,97.1149077 L119.492929,87.2804225 L148.266698,72.9468766 Z M47.6055224,78.0227399 L9.52259271,54.11427 L36.838867,40.5594076 L74.9217967,64.4678776 L47.6055224,78.0227399 Z M108.42067,47.8848013 C109.313973,48.3462435 109.972197,48.692325 110.606912,49.0095665 C112.581583,49.9324507 113.874522,52.2685015 113.874522,54.8641134 L113.992062,64.0064355 L113.992062,99.8258802 L84.4190211,114.505508 L84.4190211,67.2942106 L84.4190211,67.1500099 C84.4190211,63.5161532 82.1622549,61.4396637 81.0338718,60.6321399 L80.3756484,60.2283781 L43.7031975,37.2139523 L70.3847563,23.9763314 L108.42067,47.8848013 Z M77.1550549,20.5443556 L102.191055,8.11425846 L140.273985,32.0227284 L115.237985,44.4528255 L77.1550549,20.5443556 Z" id="Shape" fill-rule="nonzero" opacity="0.699999988"></path>
            </g>
        </g>
    </g>
</svg>