<?xml version="1.0" encoding="UTF-8"?>
<svg width="77px" height="77px" viewBox="0 0 77 77" version="1.1" xmlns="http://www.w3.org/2000/svg" xmlns:xlink="http://www.w3.org/1999/xlink">
    <!-- Generator: Sketch 52.3 (67297) - http://www.bohemiancoding.com/sketch -->
    <title>Group 4</title>
    <desc>Created with Sketch.</desc>
    <g id="Page-1" stroke="none" stroke-width="1" fill="none" fill-rule="evenodd">
        <g id="我的钱包-copy-2" transform="translate(-120.000000, -1173.000000)" fill-rule="nonzero">
            <g id="Group-4" transform="translate(120.000000, 1173.000000)">
                <circle id="Oval" fill="#A96BFB" opacity="0.600000024" cx="38.5" cy="38.5" r="38.5"></circle>
                <circle id="Oval" opacity="0.600000024" cx="38.5" cy="38.5" r="38.5"></circle>
                <g id="钱币-copy" transform="translate(16.000000, 14.000000)" fill="#FFFFFF">
                    <path d="M32.5252525,21 C27.5757576,21 24.6464646,22.0445969 23.030303,22.9399657 C21.1111111,23.9845626 20,25.4271012 20,26.8198971 L20,44.1801029 C20,45.6226415 21.1111111,47.0154374 23.030303,48.0600343 C24.6464646,48.9554031 27.5757576,50 32.5252525,50 C37.4242424,50 40.3535354,48.9554031 41.969697,48.0600343 C43.8888889,47.0154374 45,45.6226415 45,44.1801029 L45,26.8696398 C45,25.4271012 43.9393939,23.9845626 42.020202,22.9399657 C40.4040404,22.0445969 37.4747475,21 32.5252525,21 Z M42.8282828,44.1801029 C42.8282828,45.7221269 38.8888889,47.9108062 32.5252525,47.9108062 C26.1616162,47.9108062 22.2222222,45.7221269 22.2222222,44.1801029 L22.2222222,38.9571184 L23.1818182,39.4545455 C24.7979798,40.3001715 27.7272727,41.3447684 32.5252525,41.3447684 C37.3232323,41.3447684 40.2525253,40.3001715 41.8686869,39.4545455 L42.8282828,38.9571184 L42.8282828,44.1801029 Z M42.8282828,35.5248714 C42.8282828,37.0668954 38.8888889,39.2555746 32.5252525,39.2555746 L31.8686869,39.2555746 C25.8585859,39.1063465 22.2222222,37.0171527 22.2222222,35.5248714 L22.2222222,30.3018868 L23.1818182,30.7993139 C24.7979798,31.64494 27.7272727,32.6895369 32.5252525,32.6895369 C37.3232323,32.6895369 40.2525253,31.64494 41.8686869,30.7993139 L42.8282828,30.3018868 L42.8282828,35.5248714 Z M32.5252525,30.5506003 C26.1616162,30.5506003 22.2222222,28.3619211 22.2222222,26.8198971 C22.2222222,25.2778731 26.1616162,23.0891938 32.5252525,23.0891938 C38.9393939,23.0891938 42.8282828,25.2778731 42.8282828,26.8198971 C42.8282828,28.4116638 38.8888889,30.5506003 32.5252525,30.5506003 Z" id="Shape"></path>
                    <path d="M2.87131367,13.6779661 C5.97050938,16.0169492 11.3941019,17.440678 17,17.440678 C22.6058981,17.440678 28.0294906,16.0169492 31.1286863,13.6779661 L32.0402145,13.0169492 L32.0402145,18.2033898 L34,18.2033898 L34,8.69491525 C34,5.49152542 31.1742627,3.45762712 28.7587131,2.33898305 C25.613941,0.86440678 21.3297587,0 17,0 C12.6702413,0 8.38605898,0.86440678 5.24128686,2.33898305 C2.82573727,3.45762712 0,5.49152542 0,8.69491525 L0,36.3050847 C0,39.5084746 2.82573727,41.5423729 5.24128686,42.6610169 C8.24932976,44.0847458 12.2600536,44.9491525 16.4075067,45 L16.4075067,42.8135593 C12.5335121,42.7627119 8.93297587,42 6.19839142,40.779661 C3.50938338,39.559322 1.95978552,37.9322034 1.95978552,36.3050847 L1.95978552,26.7966102 L2.87131367,27.4576271 C5.87935657,29.6949153 10.9839142,31.1186441 16.4075067,31.220339 L16.4075067,29.0338983 C12.5335121,28.9830508 8.93297587,28.220339 6.19839142,27 C3.50938338,25.7288136 1.95978552,24.1016949 1.95978552,22.5254237 L1.95978552,12.9661017 L2.87131367,13.6779661 Z M6.36695076,4.25356339 C9.2405303,2.93698425 13.0719697,2.17741935 17.1770833,2.17741935 C21.282197,2.17741935 25.1136364,2.93698425 27.9872159,4.25356339 C30.678346,5.46886722 32.2291667,7.08927232 32.2291667,8.70967742 C32.2291667,10.2794449 30.678346,11.89985 27.9872159,13.1657914 C25.1136364,14.4823706 21.282197,15.2419355 17.1770833,15.2419355 C13.0719697,15.2419355 9.2405303,14.4823706 6.36695076,13.1657914 C3.67582071,11.9504876 2.125,10.3300825 2.125,8.70967742 C2.125,7.08927232 3.67582071,5.46886722 6.36695076,4.25356339 Z" id="Shape"></path>
                </g>
            </g>
        </g>
    </g>
</svg>